<svg width="245" height="108" viewBox="0 0 245 108" fill="none" xmlns="http://www.w3.org/2000/svg">
<path fill-rule="evenodd" clip-rule="evenodd" d="M0 0V46.8155H49.8486V0H0ZM36.8796 8.326H35.761C34.9919 8.326 34.4326 8.61814 34.083 9.23894C33.7335 9.85973 33.5587 10.8092 33.5587 12.0873V28.8123C33.5587 32.2085 32.6148 34.8742 30.7621 36.8097C28.8744 38.7451 26.0429 39.7311 22.2326 39.7311C18.702 39.7311 15.9054 38.7451 13.808 36.7732C11.7106 34.8012 10.6619 32.0624 10.6619 28.5932V8.326H7.306V7.52261H20.8343V8.326H17.3386V28.0089C17.3386 31.2955 17.863 33.8152 18.9117 35.5316C19.9604 37.2479 21.918 38.1243 24.8544 38.1243C27.0567 38.1243 28.8744 37.3574 30.3426 35.7872C31.8108 34.2169 32.5449 31.9894 32.5449 29.068V12.0508C32.5449 10.6996 32.3352 9.75018 31.9157 9.1659C31.4962 8.58162 30.7621 8.28948 29.6785 8.28948H28.42V7.48609H36.9145V8.28948L36.8796 8.326ZM43.6962 38.599C43.1019 39.2198 42.4028 39.512 41.5289 39.512C40.6549 39.512 39.9558 39.2198 39.3965 38.599C38.8022 37.9782 38.5226 37.2479 38.5226 36.3349C38.5226 35.422 38.8022 34.6917 39.3965 34.0709C39.9908 33.4501 40.7248 33.1579 41.5289 33.1579C42.3329 33.1579 43.1019 33.4866 43.6962 34.0709C44.2905 34.6917 44.5701 35.422 44.5701 36.3349C44.5701 37.2479 44.2905 37.9782 43.6962 38.599Z" fill="white"/>
<path fill-rule="evenodd" clip-rule="evenodd" d="M59.8802 8.14344H55.6504V7.41309H67.8853C71.3461 7.41309 74.1077 8.10692 76.1352 9.49458C78.1976 10.8823 79.2114 13.1098 79.2114 16.1773C79.2114 19.2448 78.1277 21.3263 75.9953 22.7505C73.828 24.2112 71.2761 24.9415 68.3398 24.9415C66.6269 24.9415 65.2985 24.6859 64.3197 24.1746V38.3069H68.6893V39.0373H55.6853V38.3069H59.9151V8.14344H59.8802ZM64.2498 23.2982C64.6343 23.5538 65.0888 23.7729 65.683 23.9555C66.2773 24.1381 66.9065 24.2477 67.5358 24.2477C69.3535 24.2477 70.9615 23.6634 72.3948 22.4583C73.828 21.2532 74.5621 19.3178 74.5621 16.579C74.5621 13.6576 73.8979 11.5396 72.6395 10.1884C71.3461 8.83727 69.4234 8.14344 66.8716 8.14344H64.2498V23.2982Z" fill="white"/>
<path fill-rule="evenodd" clip-rule="evenodd" d="M96.6199 6.75391C100.255 6.75391 103.437 8.36068 106.128 11.5742C108.855 14.7878 110.183 18.6586 110.183 23.2233C110.183 27.788 108.855 31.6589 106.198 34.8724C103.506 38.0859 100.325 39.6927 96.6199 39.6927C92.9145 39.6927 89.8383 38.0859 87.1116 34.8724C84.42 31.6589 83.0566 27.7515 83.0566 23.2233C83.0566 18.6951 84.385 14.7512 87.0767 11.5742C89.7334 8.36068 92.9145 6.75391 96.6199 6.75391ZM96.6199 38.9989C98.9621 38.9989 100.745 38.159 102.038 36.4792C103.332 34.7994 104.206 32.7909 104.625 30.4903C105.08 28.1897 105.289 25.7795 105.289 23.2598C105.289 20.7401 105.08 18.2204 104.66 15.9563C104.241 13.6922 103.402 11.7203 102.108 10.0405C100.815 8.36068 98.997 7.52077 96.585 7.52077C94.1729 7.52077 92.4601 8.36068 91.2016 10.0405C89.9082 11.7203 89.0343 13.7288 88.6148 16.0294C88.1604 18.33 87.9506 20.7766 87.9506 23.2598C87.9506 25.743 88.1604 28.2992 88.5798 30.5633C88.9993 32.8274 89.8383 34.7994 91.1317 36.4792C92.4251 38.159 94.2429 38.9989 96.6199 38.9989Z" fill="white"/>
<path fill-rule="evenodd" clip-rule="evenodd" d="M117.526 8.14344H113.227V7.41309H126.405C129.482 7.41309 131.929 7.96085 133.851 9.05637C135.774 10.1884 136.683 12.2699 136.683 15.3739C136.683 17.7841 135.739 19.5369 133.851 20.6324C131.964 21.6914 129.866 22.3853 127.489 22.7139C130.216 23.0061 132.173 23.6634 133.397 24.6128C134.62 25.5988 135.389 27.4612 135.704 30.2731L136.298 35.7507C136.438 36.8827 136.718 37.6496 137.137 38.0148C137.557 38.3799 138.011 38.5625 138.535 38.5625C138.99 38.5625 139.584 38.4165 140.283 38.1243L140.528 38.7086C140.074 38.8912 139.584 39.0373 138.99 39.1468C138.431 39.2564 137.766 39.2929 136.997 39.2929C134.62 39.2929 133.082 38.7086 132.418 37.5766C131.754 36.4445 131.229 34.3265 130.845 31.2225L130.53 28.5202C130.356 26.8039 129.901 25.4527 129.097 24.5398C128.293 23.6269 126.825 23.1521 124.623 23.1521H121.826V38.3069H126.196V39.0373H113.157V38.3069H117.456V8.14344H117.526ZM121.896 22.4583H124.028C126.685 22.4583 128.678 21.9105 130.041 20.815C131.369 19.7195 132.034 17.9301 132.034 15.4104C132.034 13.2559 131.509 11.503 130.495 10.1884C129.482 8.83727 127.559 8.17995 124.797 8.17995H121.896V22.4948V22.4583Z" fill="white"/>
<path fill-rule="evenodd" clip-rule="evenodd" d="M153.005 8.14344H152.097C148.216 8.14344 145.665 8.65468 144.511 9.67717C143.322 10.6997 142.763 13.0368 142.763 16.6885H142.064V7.41309H168.317V16.6885H167.618C167.618 13.0733 167.023 10.7362 165.87 9.67717C164.716 8.61816 162.164 8.10692 158.319 8.10692H157.375V38.2704H161.78V39.0007H148.566V38.2704H153.005V8.14344Z" fill="white"/>
<path fill-rule="evenodd" clip-rule="evenodd" d="M184.992 6.75391C188.627 6.75391 191.808 8.36068 194.5 11.5742C197.191 14.7878 198.555 18.6586 198.555 23.2233C198.555 27.788 197.226 31.6589 194.535 34.8724C191.878 38.0859 188.697 39.6927 184.992 39.6927C181.286 39.6927 178.21 38.0859 175.483 34.8724C172.792 31.6589 171.428 27.7515 171.428 23.2233C171.428 18.6951 172.757 14.7512 175.448 11.5742C178.105 8.36068 181.286 6.75391 184.992 6.75391ZM184.992 38.9989C187.334 38.9989 189.116 38.159 190.41 36.4792C191.703 34.7994 192.542 32.7909 192.997 30.4903C193.451 28.1897 193.661 25.7795 193.661 23.2598C193.661 20.7401 193.451 18.2204 193.032 15.9563C192.612 13.6922 191.773 11.7203 190.48 10.0405C189.186 8.36068 187.369 7.52077 184.992 7.52077C182.614 7.52077 180.867 8.36068 179.608 10.0405C178.315 11.7203 177.441 13.7288 177.021 16.0294C176.567 18.33 176.357 20.7766 176.357 23.2598C176.357 25.743 176.567 28.2992 176.986 30.5633C177.406 32.8274 178.245 34.7994 179.538 36.4792C180.832 38.159 182.649 38.9989 185.026 38.9989H184.992Z" fill="white"/>
<path fill-rule="evenodd" clip-rule="evenodd" d="M64.8107 88.7025V82.0928H63.6221V88.3008C63.6221 89.5424 63.5522 89.9075 63.0628 90.4188C62.5734 90.9665 61.8743 91.2952 61.0353 91.2952C60.1963 91.2952 59.4972 91.0031 59.0428 90.4188C58.5883 89.871 58.4835 89.5424 58.4835 88.3008V82.0928H57.2949V88.7025C57.2949 90.0171 57.6095 90.8205 58.4135 91.5143C59.1127 92.1351 60.0216 92.4272 61.0703 92.4272C62.119 92.4272 62.9929 92.0986 63.692 91.5143C64.4961 90.8205 64.8107 90.0536 64.8107 88.7025Z" fill="white"/>
<path fill-rule="evenodd" clip-rule="evenodd" d="M75.4716 92.2433V82.1279H74.283V90.6365C74.283 90.6365 74.283 90.527 74.2131 90.4904C74.1082 90.1983 74.1082 90.1983 74.0383 90.0522C73.9684 89.9427 73.9335 89.8696 73.8985 89.7966L69.1444 82.1644H67.5713V92.2068H68.7598V83.5156C68.8297 83.7347 68.8297 83.8077 68.8997 83.8808C68.8997 83.9538 68.9696 83.9903 69.0045 84.0999C69.0744 84.2459 69.1793 84.3555 69.1793 84.465L74.0383 92.2798H75.4016L75.4716 92.2433Z" fill="white"/>
<path d="M79.7007 82.1279H78.5122V92.1703H79.7007V82.1279Z" fill="white"/>
<path fill-rule="evenodd" clip-rule="evenodd" d="M89.4903 82.1279H88.3017L85.5751 89.9427C85.5751 89.9427 85.5052 90.2348 85.5052 90.4174C85.5052 90.2348 85.4702 90.0522 85.4003 89.9427L82.5688 82.1279H81.2754L85.0507 92.4259H85.7848L89.4903 82.1279Z" fill="white"/>
<path fill-rule="evenodd" clip-rule="evenodd" d="M96.5855 92.1337V91.1112H92.2508V87.569H95.7116V86.51H92.2508V83.1869H96.4457V82.1279H91.0273V92.1337H96.5855Z" fill="white"/>
<path fill-rule="evenodd" clip-rule="evenodd" d="M105.358 92.1351L102.527 87.6434C103.226 87.4609 103.576 87.2783 103.995 86.8766C104.519 86.3288 104.834 85.5619 104.834 84.7951C104.834 84.0282 104.554 83.2979 104.065 82.8231C103.506 82.2388 102.981 82.0928 101.793 82.0928H98.8564V92.1351H100.045V87.826H101.303L103.96 92.1351H105.323H105.358ZM103.541 84.8316C103.541 86.1097 102.876 86.8035 101.618 86.8035H100.045V83.1883H101.618C102.457 83.1883 102.702 83.2248 103.016 83.4804C103.366 83.7726 103.541 84.2108 103.541 84.8681V84.8316Z" fill="white"/>
<path fill-rule="evenodd" clip-rule="evenodd" d="M112.631 82.7862C112.107 82.4575 111.862 82.3115 111.477 82.2019C110.988 82.0558 110.394 81.9463 109.869 81.9463C107.982 81.9463 106.688 83.0053 106.688 84.6121C106.688 85.6346 107.318 86.4379 108.751 87.2413C109.66 87.7526 110.184 88.0447 110.359 88.1543C110.743 88.3734 111.023 88.6655 111.163 88.9942C111.268 89.1768 111.303 89.4324 111.303 89.688C111.303 90.6375 110.604 91.2217 109.485 91.2217C108.996 91.2217 108.541 91.1122 108.122 90.9661C107.772 90.82 107.562 90.674 107.038 90.3088L106.409 91.2948C107.038 91.733 107.283 91.8791 107.632 92.0251C108.122 92.2442 108.751 92.3538 109.415 92.3538C111.373 92.3538 112.561 91.2948 112.561 89.5785C112.561 88.8481 112.281 88.1543 111.827 87.7526C111.477 87.4239 110.953 87.0953 110.289 86.7301C108.331 85.6346 107.912 85.2694 107.912 84.539C107.912 83.6991 108.646 83.1148 109.765 83.1148C110.149 83.1148 110.708 83.2244 111.093 83.334C111.408 83.4435 111.617 83.5531 112.107 83.8452L112.666 82.8227L112.631 82.7862Z" fill="white"/>
<path d="M116.056 82.1279H114.867V92.1703H116.056V82.1279Z" fill="white"/>
<path fill-rule="evenodd" clip-rule="evenodd" d="M126.51 87.0943C126.51 84.2094 124.482 82.1279 121.685 82.1279H118.504V92.1703H121.685C123.363 92.1703 124.377 91.7686 125.216 90.7096C126.055 89.7236 126.51 88.4089 126.51 87.0943ZM125.251 87.0943C125.251 88.1898 124.762 89.4314 124.063 90.1983C123.468 90.8556 122.734 91.1112 121.476 91.1112H119.658V83.1869H121.476C123.643 83.1869 125.251 84.8667 125.251 87.0943Z" fill="white"/>
<path fill-rule="evenodd" clip-rule="evenodd" d="M135.319 92.1339L131.753 81.8359H130.46L126.894 92.1339H128.187L129.166 89.176H133.046L134.025 92.1339H135.284H135.319ZM132.697 88.0439H129.586L131.159 83.4427L132.732 88.0439H132.697Z" fill="white"/>
<path fill-rule="evenodd" clip-rule="evenodd" d="M144.793 87.0943C144.793 84.2094 142.765 82.1279 139.934 82.1279H136.752V92.1703H139.934C141.611 92.1703 142.625 91.7686 143.464 90.7096C144.303 89.7236 144.793 88.4089 144.793 87.0943ZM143.534 87.0943C143.534 88.1898 143.045 89.4314 142.346 90.1983C141.716 90.8556 141.017 91.1112 139.759 91.1112H137.941V83.1869H139.759C141.926 83.1869 143.534 84.8667 143.534 87.0943Z" fill="white"/>
<path fill-rule="evenodd" clip-rule="evenodd" d="M152.203 92.1337V91.1112H147.834V87.569H151.329V86.51H147.834V83.1869H152.063V82.1279H146.645V92.1337H152.203Z" fill="white"/>
<path fill-rule="evenodd" clip-rule="evenodd" d="M166.15 87.0943C166.15 84.2094 164.123 82.1279 161.326 82.1279H158.11V92.1703H161.291C162.969 92.1703 163.983 91.7686 164.822 90.7096C165.661 89.7236 166.115 88.4089 166.115 87.0943H166.15ZM164.927 87.0943C164.927 88.1898 164.438 89.4314 163.738 90.1983C163.144 90.8556 162.41 91.1112 161.152 91.1112H159.334V83.1869H161.152C163.319 83.1869 164.927 84.8667 164.927 87.0943Z" fill="white"/>
<path fill-rule="evenodd" clip-rule="evenodd" d="M177.231 87.1318C177.231 84.1373 175.203 81.9463 172.407 81.9463C169.61 81.9463 167.583 84.1373 167.583 87.1318C167.583 90.1262 169.61 92.3538 172.407 92.3538C175.203 92.3538 177.231 90.1627 177.231 87.1318ZM175.937 87.1318C175.937 89.3959 174.364 91.2583 172.442 91.2583C170.519 91.2583 168.946 89.3959 168.946 87.1318C168.946 84.8677 170.519 83.0418 172.442 83.0418C174.364 83.0418 175.937 84.9042 175.937 87.1318Z" fill="white"/>
<path fill-rule="evenodd" clip-rule="evenodd" d="M189.292 85.0858C189.292 84.1364 189.047 83.4426 188.558 82.8948C188.034 82.3105 187.369 82.1279 186.216 82.1279H183.209V92.1703H184.398V88.3724C185.237 88.4455 185.517 88.482 185.866 88.482C187.964 88.482 189.292 87.2039 189.292 85.0858ZM188.068 85.1589C188.068 86.1083 187.649 86.8752 186.95 87.2039C186.635 87.3499 186.251 87.423 185.691 87.423C185.377 87.423 185.097 87.423 184.433 87.3499V83.2235H186.076C186.845 83.2235 187.264 83.333 187.544 83.6617C187.894 84.0268 188.103 84.5746 188.103 85.2319L188.068 85.1589Z" fill="white"/>
<path fill-rule="evenodd" clip-rule="evenodd" d="M200.058 87.1318C200.058 84.1373 198.03 81.9463 195.234 81.9463C192.437 81.9463 190.41 84.1373 190.41 87.1318C190.41 90.1262 192.437 92.3538 195.234 92.3538C198.03 92.3538 200.058 90.1627 200.058 87.1318ZM198.764 87.1318C198.764 89.3959 197.191 91.2583 195.269 91.2583C193.346 91.2583 191.738 89.3959 191.738 87.1318C191.738 84.8677 193.311 83.0418 195.269 83.0418C197.226 83.0418 198.764 84.9042 198.764 87.1318Z" fill="white"/>
<path fill-rule="evenodd" clip-rule="evenodd" d="M208.412 92.1351L205.581 87.6434C206.28 87.4609 206.63 87.2783 207.049 86.8766C207.573 86.3288 207.888 85.5619 207.888 84.7951C207.888 84.0282 207.573 83.2979 207.154 82.8231C206.595 82.2388 206.035 82.0928 204.882 82.0928H201.945V92.1351H203.134V87.826H204.392L207.049 92.1351H208.412ZM206.63 84.8316C206.63 86.1097 205.965 86.8035 204.707 86.8035H203.134V83.1883H204.707C205.546 83.1883 205.791 83.2248 206.105 83.4804C206.455 83.7726 206.63 84.2108 206.63 84.8681V84.8316Z" fill="white"/>
<path fill-rule="evenodd" clip-rule="evenodd" d="M216.557 83.1869V82.1279H208.972V83.1869H212.153V92.1337H213.341V83.1869H216.557Z" fill="white"/>
<path fill-rule="evenodd" clip-rule="evenodd" d="M227.046 87.1318C227.046 84.1373 225.018 81.9463 222.222 81.9463C219.425 81.9463 217.397 84.1373 217.397 87.1318C217.397 90.1262 219.425 92.3538 222.222 92.3538C225.018 92.3538 227.046 90.1627 227.046 87.1318ZM225.752 87.1318C225.752 89.3959 224.179 91.2583 222.256 91.2583C220.334 91.2583 218.761 89.3959 218.761 87.1318C218.761 84.8677 220.334 83.0418 222.256 83.0418C224.179 83.0418 225.752 84.9042 225.752 87.1318Z" fill="white"/>
<path fill-rule="evenodd" clip-rule="evenodd" d="M63.2376 66.281V64.6377H57.2949V74.68H59.1127V70.4805H62.5035V68.8737H59.1127V66.281H63.2376Z" fill="white"/>
<path fill-rule="evenodd" clip-rule="evenodd" d="M72.1853 74.68L68.7246 64.6377H67.0816L63.5859 74.68H65.5086L66.3126 72.1968H69.5286L70.2977 74.68H72.2203H72.1853ZM69.0392 70.59H66.8369L67.9206 66.9748L69.0392 70.59Z" fill="white"/>
<path fill-rule="evenodd" clip-rule="evenodd" d="M80.6789 65.4387C79.8399 64.7814 78.8961 64.4893 77.6726 64.4893C76.0995 64.4893 75.0158 64.891 74.037 65.8769C73.0932 66.8629 72.5688 68.1775 72.5688 69.6382C72.5688 71.2085 73.1631 72.6692 74.1769 73.6552C75.0857 74.4951 76.1345 74.8968 77.6726 74.8968C78.2319 74.8968 78.7562 74.8237 79.2107 74.7142C79.6651 74.6046 79.9098 74.4951 80.5041 74.2394L80.1545 72.6327C79.3155 72.9978 78.7213 73.1074 78.0571 73.1074C75.9597 73.1074 74.5964 71.6832 74.5964 69.5287C74.5964 67.6298 75.9247 66.2421 77.7774 66.2421C78.6164 66.2421 79.3505 66.4612 79.9797 66.9359L80.6789 65.4022V65.4387Z" fill="white"/>
<path fill-rule="evenodd" clip-rule="evenodd" d="M90.1532 70.7713V64.6729H88.3005V70.8808C88.3005 72.3415 87.5664 73.1084 86.1681 73.1084C84.63 73.1084 83.8959 72.3781 83.8959 70.8808V64.6729H82.0781V70.7713C82.0781 72.5972 82.3927 73.4371 83.3715 74.1674C84.1056 74.6787 84.8747 74.8978 86.0982 74.8978C87.3217 74.8978 88.0907 74.6787 88.8248 74.1674C89.8386 73.4371 90.1532 72.6337 90.1532 70.7713Z" fill="white"/>
<path fill-rule="evenodd" clip-rule="evenodd" d="M98.2647 74.68V73.0367H94.3495V64.6377H92.5317V74.68H98.2647Z" fill="white"/>
<path fill-rule="evenodd" clip-rule="evenodd" d="M108.4 69.6392C108.4 68.3246 107.946 67.0465 107.107 66.1336C106.163 65.0746 105.01 64.6729 103.227 64.6729H99.6611V74.7152H103.192C104.905 74.7152 106.198 74.2404 107.072 73.2545C107.911 72.305 108.4 71.0269 108.4 69.6758V69.6392ZM106.408 69.6392C106.408 71.7938 105.184 72.9623 103.017 72.9623H101.549V66.3161H103.017C104.066 66.3161 104.8 66.4987 105.324 66.9004C106.023 67.4482 106.408 68.4707 106.408 69.6392Z" fill="white"/>
<path fill-rule="evenodd" clip-rule="evenodd" d="M117.245 74.68L113.75 64.6377H112.107L108.646 74.68H110.569L111.373 72.1968H114.589L115.358 74.68H117.28H117.245ZM114.064 70.59H111.827L112.946 66.9748L114.064 70.59Z" fill="white"/>
<path fill-rule="evenodd" clip-rule="evenodd" d="M127.244 69.6392C127.244 68.3246 126.789 67.0465 125.95 66.1336C125.006 65.0746 123.888 64.6729 122.07 64.6729H118.504V74.7152H122.035C123.748 74.7152 125.041 74.2404 125.915 73.2545C126.754 72.305 127.244 71.0269 127.244 69.6758V69.6392ZM125.251 69.6392C125.251 71.7938 124.028 72.9623 121.86 72.9623H120.427V66.3161H121.86C122.909 66.3161 123.643 66.4987 124.167 66.9004C124.867 67.4482 125.286 68.4707 125.286 69.6392H125.251Z" fill="white"/>
<path fill-rule="evenodd" clip-rule="evenodd" d="M134.793 74.68V73.0367H130.598V70.3709H133.884V68.7642H130.598V66.281H134.618V64.6377H128.78V74.68H134.793Z" fill="white"/>
<path fill-rule="evenodd" clip-rule="evenodd" d="M148.915 69.6392C148.915 68.3246 148.46 67.0465 147.621 66.1336C146.678 65.0746 145.524 64.6729 143.706 64.6729H140.141V74.7152H143.706C145.419 74.7152 146.713 74.2404 147.586 73.2545C148.425 72.305 148.915 71.0269 148.915 69.6758V69.6392ZM146.922 69.6392C146.922 71.7938 145.699 72.9623 143.531 72.9623H142.063V66.3161H143.531C144.58 66.3161 145.314 66.4987 145.839 66.9004C146.538 67.4482 146.957 68.4707 146.957 69.6392H146.922Z" fill="white"/>
<path fill-rule="evenodd" clip-rule="evenodd" d="M156.328 74.68V73.0367H152.133V70.3709H155.384V68.7642H152.133V66.281H156.119V64.6377H150.281V74.68H156.328Z" fill="white"/>
<path fill-rule="evenodd" clip-rule="evenodd" d="M168.563 72.0129C168.563 70.4426 167.654 69.4567 166.186 69.4201C166.955 69.3836 167.34 69.201 167.759 68.6898C168.109 68.2516 168.318 67.6673 168.318 67.1195C168.318 66.4622 168.039 65.7684 167.549 65.3302C167.025 64.8189 166.396 64.6729 165.137 64.6729H161.642V74.7152H165.557C167.479 74.7152 168.528 73.7657 168.528 72.0494L168.563 72.0129ZM166.256 67.4482C166.256 68.2881 165.697 68.7628 164.683 68.7628H163.599V66.1701H164.788C165.732 66.1701 166.256 66.6448 166.256 67.4482ZM166.536 71.7938C166.536 72.305 166.291 72.7797 165.906 72.9623C165.627 73.1084 165.382 73.1449 164.788 73.1449H163.599V70.3696H164.788C165.906 70.3696 166.536 70.8808 166.536 71.7938Z" fill="white"/>
<path fill-rule="evenodd" clip-rule="evenodd" d="M176.112 74.68V73.0367H171.882V70.3709H175.168V68.7642H171.882V66.281H175.902V64.6377H170.064V74.68H176.112Z" fill="white"/>
<path fill-rule="evenodd" clip-rule="evenodd" d="M183.349 74.68V73.0367H179.433V64.6377H177.616V74.68H183.349Z" fill="white"/>
<path fill-rule="evenodd" clip-rule="evenodd" d="M192.857 74.68L189.361 64.6377H187.718L184.257 74.68H186.18L186.984 72.1968H190.2L190.969 74.68H192.892H192.857ZM189.676 70.59H187.438L188.557 66.9748L189.676 70.59Z" fill="white"/>
<path fill-rule="evenodd" clip-rule="evenodd" d="M200.199 65.3292C199.569 65.0005 199.29 64.8909 198.835 64.7449C198.241 64.5623 197.682 64.4893 197.017 64.4893C195.899 64.4893 195.305 64.6718 194.605 65.1466C194.291 65.3657 194.046 65.6213 193.906 65.8769C193.662 66.2421 193.522 66.7533 193.522 67.2646C193.522 68.3601 194.046 69.0174 195.759 70.0399L197.227 70.9163C197.856 71.2815 198.066 71.5737 198.066 71.9753C198.066 72.5961 197.507 72.9978 196.668 72.9978C196.283 72.9978 195.759 72.8883 195.27 72.7057C194.885 72.5596 194.605 72.4136 193.906 72.0119L193.137 73.7647C193.417 73.9108 193.627 74.0203 193.766 74.0569C194.78 74.5316 195.095 74.6411 195.794 74.7507C196.074 74.7507 196.353 74.8237 196.633 74.8237C198.765 74.8237 200.024 73.7647 200.024 71.9753C200.024 71.2815 199.779 70.6242 199.36 70.186C198.905 69.7113 197.961 69.0905 196.493 68.2506C195.794 67.8854 195.584 67.6298 195.584 67.1916C195.584 66.6438 196.143 66.2786 196.982 66.2786C197.612 66.2786 198.451 66.5342 199.464 67.009L200.199 65.2926V65.3292Z" fill="white"/>
<path fill-rule="evenodd" clip-rule="evenodd" d="M212.888 74.68L209.393 64.6377H207.75L204.254 74.68H206.177L206.946 72.1968H210.162L210.931 74.68H212.853H212.888ZM209.742 70.59H207.505L208.589 66.9748L209.707 70.59H209.742Z" fill="white"/>
<path fill-rule="evenodd" clip-rule="evenodd" d="M221.206 74.6794L218.829 70.3704C219.633 70.1513 219.948 69.9321 220.333 69.4209C220.682 68.9462 220.857 68.3254 220.857 67.522C220.857 66.5725 220.577 65.8422 220.088 65.3309C219.528 64.7832 218.899 64.6006 217.466 64.6006H214.25V74.6429H216.103V70.626H217.012L219.214 74.6429H221.241L221.206 74.6794ZM218.934 67.595C218.934 68.581 218.41 69.0192 217.256 69.0192H216.068V66.2439H217.256C218.445 66.2439 218.934 66.609 218.934 67.595Z" fill="white"/>
<path fill-rule="evenodd" clip-rule="evenodd" d="M229.141 66.281V64.6377H221.556V66.281H224.422V74.68H226.24V66.281H229.141Z" fill="white"/>
<path fill-rule="evenodd" clip-rule="evenodd" d="M236.448 74.68V73.0367H232.253V70.3709H235.539V68.7642H232.253V66.281H236.273V64.6377H230.436V74.68H236.448Z" fill="white"/>
<path fill-rule="evenodd" clip-rule="evenodd" d="M244.278 65.3292C243.649 65.0005 243.369 64.8909 242.915 64.7449C242.321 64.5623 241.726 64.4893 241.097 64.4893C239.978 64.4893 239.384 64.6718 238.685 65.1466C238.37 65.3657 238.126 65.6213 237.986 65.8769C237.741 66.2421 237.601 66.7533 237.601 67.2646C237.601 68.3601 238.126 69.0174 239.839 70.0399L241.307 70.9163C241.936 71.2815 242.146 71.5737 242.146 71.9753C242.146 72.5961 241.586 72.9978 240.747 72.9978C240.363 72.9978 239.839 72.8883 239.349 72.7057C238.965 72.5596 238.685 72.4136 237.986 72.0119L237.217 73.7647C237.496 73.9108 237.706 74.0203 237.846 74.0569C238.86 74.5316 239.174 74.6411 239.874 74.7507C240.153 74.7507 240.433 74.8237 240.712 74.8237C242.845 74.8237 244.103 73.7647 244.103 71.9753C244.103 71.2815 243.859 70.6242 243.439 70.186C242.985 69.7113 242.041 69.0905 240.538 68.2506C239.874 67.8854 239.629 67.6298 239.629 67.1916C239.629 66.6438 240.188 66.2786 241.027 66.2786C241.656 66.2786 242.495 66.5342 243.509 67.009L244.243 65.2926L244.278 65.3292Z" fill="white"/>
<path fill-rule="evenodd" clip-rule="evenodd" d="M29.2941 61.6421C29.5388 67.7771 26.4975 72.5244 26.6723 78.6228L26.5325 78.7689L26.2528 78.4037C26.0431 72.4513 23.4912 67.1928 23.7709 61.277C25.6935 61.1674 27.4763 61.3865 29.2941 61.6421Z" fill="white"/>
<path fill-rule="evenodd" clip-rule="evenodd" d="M22.4075 67.0839C23.4911 70.8817 22.9668 75.4099 24.1553 79.1712C26.9169 84.4662 24.1553 90.8203 23.9456 96.444L22.1278 106.778C14.7519 105.975 7.13128 100.023 4.64934 92.4636C1.4333 83.2246 3.88029 72.598 11.396 66.2805C14.2275 63.9434 17.4086 62.5557 20.8694 61.7158C21.5335 63.3956 22.0229 65.258 22.4075 67.1204V67.0839Z" fill="white"/>
<path fill-rule="evenodd" clip-rule="evenodd" d="M41.0378 68.1053C39.3948 71.2823 37.0527 74.1672 35.2699 77.3077C33.3473 80.996 30.2011 84.173 28.5931 87.9709C27.9639 88.7012 27.2997 89.7602 26.3908 90.0158C26.1112 87.9709 27.1949 86.1085 27.1949 84.1365C27.8241 79.6814 28.1037 75.0802 29.9564 71.1363L31.8441 62.3721C35.165 63.6137 38.451 65.2204 41.0378 68.1418V68.1053Z" fill="white"/>
<path fill-rule="evenodd" clip-rule="evenodd" d="M45.5479 93.044C42.2969 101.407 34.0121 106.811 25.5175 107.03C24.9233 105.46 25.0631 103.525 24.8534 101.772C24.3989 95.089 30.2018 90.7434 32.5788 85.1197C34.2568 81.3584 37.5427 77.9623 40.584 75.0774C41.4929 73.6167 42.3318 72.1195 42.9261 70.5127C47.5404 76.5016 48.5542 85.8866 45.5479 93.044Z" fill="white"/>
</svg>
