<svg width="227" height="62" viewBox="0 0 227 62" fill="none" xmlns="http://www.w3.org/2000/svg">
<path d="M103.134 20.2253V9.31543H109.898V10.7908H104.844V13.9744H109.415V15.4498H104.844V20.2253H103.134Z" fill="white"/>
<path d="M116.812 18.9062C116.478 19.7603 115.846 20.4592 114.583 20.4592C113.022 20.4592 111.981 19.3333 111.981 17.392V12.1895H113.616V17.1202C113.616 18.4015 114.137 19.0615 115.177 19.0615C116.032 19.0615 116.85 18.6344 116.85 17.6638V12.1895H118.485V20.2651H116.812V18.9062Z" fill="white"/>
<path d="M121.011 20.3039V12.2283H122.684V13.5872H122.758C123.093 12.733 123.724 12.0342 124.988 12.0342C126.549 12.0342 127.59 13.1601 127.59 15.1014V20.3039H125.954V15.3731C125.954 14.0919 125.434 13.4319 124.393 13.4319C123.539 13.4319 122.721 13.859 122.721 14.8296V20.3039H121.086H121.011Z" fill="white"/>
<path d="M134.911 18.9837H134.837C134.391 19.9543 133.648 20.5367 132.496 20.5367C130.675 20.5367 129.522 19.0613 129.522 16.3048C129.522 13.5482 130.712 12.1117 132.533 12.1117C133.685 12.1117 134.428 12.7329 134.874 13.6647H134.949V8.81152H136.584L136.547 20.3814H134.911V18.9837ZM134.911 17.7025V15.0235C134.911 14.0529 134.131 13.5482 133.165 13.5482C131.938 13.5482 131.232 14.4023 131.232 15.7224V17.0424C131.232 18.3625 131.938 19.2166 133.127 19.2166C134.057 19.2166 134.874 18.7119 134.874 17.7413L134.911 17.7025Z" fill="white"/>
<path d="M145.056 20.4204C144.127 20.4204 143.681 19.8768 143.57 19.0615H143.495C143.198 20.0321 142.38 20.6145 141.154 20.6145C139.593 20.6145 138.589 19.6827 138.589 18.1685C138.589 16.6543 139.704 15.7614 141.971 15.7614H143.458V15.1402C143.458 14.0531 142.901 13.5095 141.823 13.5095C140.819 13.5095 140.262 13.9366 139.816 14.5966L138.85 13.7813C139.296 12.9271 140.336 12.1895 141.971 12.1895C143.904 12.1895 145.093 13.2377 145.093 15.0625V19.1003H146.06V20.4592H145.056V20.4204ZM143.458 18.0132V16.8485H142.009C140.819 16.8485 140.262 17.2367 140.225 17.9356V18.2462C140.225 18.9838 140.745 19.3333 141.637 19.3333C142.678 19.3333 143.458 18.7897 143.458 18.0132Z" fill="white"/>
<path d="M154.46 14.1293L153.197 14.8281C152.936 14.0904 152.379 13.6245 151.45 13.5857C150.223 13.5857 149.517 14.4399 149.48 15.7211V17.08C149.48 18.3612 150.186 19.2153 151.45 19.2153C152.416 19.2153 152.974 18.7106 153.345 17.9341L154.535 18.7106C154.051 19.7977 153.085 20.5742 151.561 20.613L151.413 21.3119L151.487 21.3895C151.71 21.3119 151.933 21.2731 152.119 21.2731C152.713 21.2731 153.159 21.6225 153.159 22.3213C153.159 23.292 152.305 23.6414 151.375 23.6414C150.446 23.6414 149.963 23.292 149.74 22.9814L150.372 22.2437C150.558 22.4766 150.855 22.6708 151.301 22.6708C151.673 22.6708 151.97 22.5155 151.97 22.2049C151.97 21.9719 151.784 21.7001 150.929 21.5837H150.558L150.781 20.4577C148.923 20.1471 147.845 18.5941 147.845 16.3035C147.845 13.741 149.22 12.1104 151.524 12.1104C153.122 12.1104 154.051 12.8869 154.535 14.0128L154.46 14.1293Z" fill="white"/>
<path d="M163.008 20.4954C162.079 20.4954 161.633 19.9518 161.522 19.1365H161.447C161.15 20.1071 160.332 20.6895 159.106 20.6895C157.545 20.6895 156.542 19.7577 156.542 18.2435C156.542 16.7293 157.656 15.8364 159.924 15.8364H161.41V15.2152C161.41 14.1281 160.853 13.5845 159.775 13.5845C158.771 13.5845 158.214 14.0116 157.768 14.6716L156.802 13.8563C157.248 13.0021 158.288 12.2645 159.924 12.2645C161.856 12.2645 163.046 13.3127 163.046 15.1375V19.1753H164.012V20.5342H163.008V20.4954ZM159.924 10.7115C159.478 10.4785 159.143 10.362 158.809 10.362C158.474 10.362 158.251 10.5173 157.954 10.7503L157.359 9.93497C157.656 9.46907 158.177 9.04199 158.92 9.04199C159.403 9.04199 159.738 9.23612 160.072 9.39142C160.518 9.62437 160.853 9.74084 161.187 9.74084C161.522 9.74084 161.745 9.58554 162.042 9.35259L162.637 10.1679C162.339 10.6338 161.819 11.0609 161.076 11.0609C160.593 11.0609 160.258 10.8668 159.924 10.7115ZM161.41 18.0882V16.9235H159.961C158.771 16.9235 158.214 17.3117 158.177 18.0106V18.3212C158.177 19.0589 158.697 19.4083 159.589 19.4083C160.63 19.4083 161.41 18.8647 161.41 18.0882Z" fill="white"/>
<path d="M165.462 16.5007C165.462 13.9383 166.875 12.3076 169.142 12.3076C171.409 12.3076 172.784 13.9771 172.784 16.5395C172.784 19.102 171.372 20.7326 169.105 20.7326C166.838 20.7326 165.462 19.0632 165.462 16.5007ZM171.074 17.1219V15.9183C171.074 14.4042 170.294 13.6665 169.142 13.6277C167.99 13.5888 167.172 14.3653 167.172 15.8795V17.0831C167.172 18.5973 167.952 19.3349 169.105 19.3738C170.257 19.4126 171.074 18.6361 171.074 17.1219Z" fill="white"/>
<path d="M102.986 30.9053H104.621V32.303H104.696C105.142 31.3324 105.885 30.75 107.037 30.75C108.858 30.75 110.01 32.2254 110.01 34.9819C110.01 37.7385 108.821 39.175 107 39.175C105.848 39.175 105.104 38.5538 104.658 37.622H104.584V42.1257H102.949L102.986 30.9441V30.9053ZM108.263 35.6031V34.2831C108.263 32.963 107.557 32.1089 106.368 32.1089C105.439 32.1089 104.621 32.6136 104.621 33.5842V36.2632C104.621 37.2338 105.402 37.7385 106.368 37.7385C107.594 37.7385 108.301 36.8844 108.301 35.5643L108.263 35.6031Z" fill="white"/>
<path d="M118.075 39.017C117.146 39.017 116.7 38.4735 116.588 37.6582H116.514C116.217 38.6288 115.399 39.2112 114.172 39.2112C112.611 39.2112 111.608 38.2794 111.608 36.7652C111.608 35.251 112.723 34.358 114.99 34.358H116.477V33.7368C116.477 32.6497 115.919 32.1062 114.841 32.1062C113.838 32.1062 113.28 32.5333 112.834 33.1933L111.868 32.378C112.314 31.5238 113.355 30.7861 114.99 30.7861C116.923 30.7861 118.112 31.8344 118.112 33.6592V37.697H119.078V39.0559H118.075V39.017ZM116.477 36.6099V35.4451H115.027C113.838 35.4451 113.28 35.8334 113.243 36.5322V36.8428C113.243 37.5417 113.764 37.9299 114.656 37.9299C115.696 37.9299 116.477 37.3864 116.477 36.6099Z" fill="white"/>
<path d="M120.826 37.6584H122.87V32.3782H120.826V30.9805H124.506V33.1547H124.58C124.877 32.0287 125.546 31.0193 127.144 31.0193H128.074V32.6499H126.55C125.212 32.6499 124.506 33.5429 124.506 34.6688V37.6972H127.293V39.0561H120.826V37.6972V37.6584Z" fill="white"/>
<path d="M136.027 39.0942C135.098 39.0942 134.652 38.5506 134.54 37.7353H134.466C134.169 38.7059 133.351 39.2883 132.125 39.2883C130.564 39.2883 129.56 38.3565 129.56 36.8423C129.56 35.3282 130.675 34.4352 132.942 34.4352H134.429V33.814C134.429 32.7269 133.871 32.1833 132.793 32.1833C131.79 32.1833 131.233 32.6104 130.787 33.2704L129.82 32.4551C130.266 31.601 131.307 30.8633 132.942 30.8633C134.875 30.8633 136.064 31.9116 136.064 33.7363V37.7741H137.03V39.133H136.027V39.0942ZM134.429 36.687V35.5223H132.979C131.79 35.5223 131.233 35.9105 131.195 36.6094V36.92C131.195 37.6188 131.716 38.0071 132.608 38.0071C133.648 38.0071 134.429 37.4635 134.429 36.687Z" fill="white"/>
<path d="M153.94 39.2114C153.011 39.2114 152.565 38.6678 152.453 37.8525H152.379C152.082 38.8231 151.264 39.4055 150.038 39.4055C148.477 39.4055 147.473 38.4737 147.473 36.9595C147.473 35.4453 148.588 34.5524 150.855 34.5524H152.342V33.9312C152.342 32.8441 151.784 32.3005 150.707 32.3005C149.703 32.3005 149.146 32.7276 148.7 33.3876L147.733 32.5723C148.179 31.7181 149.22 30.9805 150.855 30.9805C152.788 30.9805 153.977 32.0287 153.977 33.8535V37.8913H154.944V39.2502H153.94V39.2114ZM152.342 36.7654V35.6006H150.892C149.703 35.6006 149.146 35.9889 149.108 36.6877V36.9983C149.108 37.6972 149.629 38.0855 150.521 38.0855C151.561 38.0855 152.342 37.5419 152.342 36.7654Z" fill="white"/>
<path d="M165.424 33.8171C165.424 30.2064 166.725 28.1875 169.364 28.1875C171.371 28.1875 172.3 29.4299 172.783 30.9053L171.259 31.41C170.962 30.4005 170.516 29.624 169.327 29.624C167.84 29.624 167.208 30.8664 167.208 32.8853V34.7101C167.208 36.6902 167.84 37.9714 169.327 37.9714C170.516 37.9714 170.962 37.1949 171.259 36.1855L172.783 36.729C172.3 38.2044 171.371 39.4079 169.364 39.4079C166.725 39.4079 165.462 37.3502 165.462 33.7395L165.424 33.8171Z" fill="white"/>
<path d="M175.013 37.929H177.651V32.6488H175.013V31.2511H179.287V37.9678H181.74V39.3655H175.013V37.9678V37.929ZM177.391 28.844V28.5334C177.391 28.0286 177.689 27.6016 178.506 27.6016C179.324 27.6016 179.621 28.0286 179.621 28.5334V28.844C179.621 29.3487 179.324 29.7758 178.506 29.7758C177.689 29.7758 177.391 29.3487 177.391 28.844Z" fill="white"/>
<path d="M183.375 35.3295C183.375 32.7282 184.824 31.0976 187.017 31.0976C189.21 31.0976 190.548 32.7282 190.548 35.0966V35.7178H185.01V35.9895C185.01 37.2708 185.791 38.1637 187.129 38.1637C188.132 38.1637 188.838 37.6978 189.284 36.9213L190.288 37.8531C189.767 38.7849 188.689 39.5226 187.091 39.5226C184.713 39.5226 183.338 37.8531 183.375 35.2907V35.3295ZM187.835 27.2539L189.619 29.6222L188.764 30.2823L187.017 28.4575L185.233 30.2434L184.415 29.5834L186.237 27.2539H187.872H187.835ZM185.01 34.5142V34.6307H188.875V34.4754C188.875 33.1941 188.132 32.3788 187.017 32.3788C185.902 32.3788 185.01 33.2718 185.01 34.5142Z" fill="white"/>
<path d="M192.667 39.3674V31.2918H194.339V32.6507H194.413C194.748 31.7965 195.38 31.0977 196.643 31.0977C198.204 31.0977 199.245 32.2236 199.245 34.1648V39.3674H197.61V34.4366C197.61 33.1554 197.089 32.4954 196.049 32.4954C195.194 32.4954 194.376 32.9224 194.376 33.8931V39.3674H192.741H192.667Z" fill="white"/>
<path d="M201.513 35.3679C201.513 32.8055 202.888 31.1748 205.192 31.1748C206.79 31.1748 207.719 31.9513 208.203 33.0772L206.939 33.7761C206.679 33.0384 206.121 32.5725 205.192 32.5337C203.966 32.5337 203.259 33.3878 203.222 34.6691V36.0279C203.222 37.3092 203.928 38.1633 205.192 38.1633C206.158 38.1633 206.716 37.6586 207.088 36.8821L208.277 37.6586C207.794 38.7845 206.79 39.561 205.155 39.561C202.851 39.561 201.513 37.8915 201.513 35.3291V35.3679Z" fill="white"/>
<path d="M210.878 38.0845H213.517V32.8043H210.878V31.4066H215.152V38.1234H217.605V39.5211H210.878V38.1234V38.0845ZM213.257 29.0383V28.7277C213.257 28.223 213.554 27.7959 214.371 27.7959C215.189 27.7959 215.486 28.223 215.486 28.7277V29.0383C215.486 29.543 215.189 29.9701 214.371 29.9701C213.554 29.9701 213.257 29.543 213.257 29.0383Z" fill="white"/>
<path d="M225.671 39.5219C224.742 39.5219 224.296 38.9784 224.184 38.163H224.11C223.813 39.1337 222.995 39.716 221.769 39.716C220.208 39.716 219.204 38.7842 219.204 37.2701C219.204 35.7559 220.319 34.8629 222.586 34.8629H224.073V34.2417C224.073 33.1546 223.515 32.6111 222.438 32.6111C221.434 32.6111 220.877 33.0381 220.431 33.6982L219.464 32.8828C219.91 32.0287 220.951 31.291 222.586 31.291C224.519 31.291 225.708 32.3393 225.708 34.1641V38.2019H226.674V39.5607H225.671V39.5219ZM224.11 37.1148V35.95H222.661C221.471 35.95 220.914 36.3383 220.877 37.0371V37.3477C220.877 38.0466 221.397 38.4348 222.289 38.4348C223.33 38.4348 224.11 37.8913 224.11 37.1148Z" fill="white"/>
<path d="M102.577 53.6929C102.577 51.0916 104.027 49.4609 106.22 49.4609C108.412 49.4609 109.75 51.0916 109.75 53.4599V54.0811H104.213V54.3529C104.213 55.6341 104.993 56.5271 106.331 56.5271C107.335 56.5271 108.041 56.0612 108.487 55.2847L109.49 56.2165C108.97 57.1483 107.892 57.886 106.294 57.886C103.915 57.886 102.54 56.2165 102.577 53.654V53.6929ZM104.25 52.8775V52.994H108.115V52.8387C108.115 51.5575 107.372 50.7422 106.257 50.7422C105.142 50.7422 104.25 51.6351 104.25 52.8775Z" fill="white"/>
<path d="M126.959 57.81C126.029 57.81 125.583 57.2665 125.472 56.4511H125.398C125.1 57.4218 124.283 58.0041 123.056 58.0041C121.495 58.0041 120.492 57.0723 120.492 55.5582C120.492 54.044 121.607 53.151 123.874 53.151H125.36V52.5298C125.36 51.4427 124.803 50.8991 123.725 50.8991C122.722 50.8991 122.164 51.3262 121.718 51.9863L120.752 51.1709C121.198 50.3168 122.239 49.5791 123.874 49.5791C125.806 49.5791 126.996 50.6274 126.996 52.4522V56.49H127.962V57.8488H126.959V57.81ZM125.36 55.4029V54.2381H123.911C122.722 54.2381 122.164 54.6264 122.127 55.3252V55.6358C122.127 56.3347 122.647 56.7229 123.539 56.7229C124.58 56.7229 125.36 56.1794 125.36 55.4029Z" fill="white"/>
<path d="M142.901 48.4529V57.8874H141.191V48.4529H137.958V46.9775H146.172V48.4529H142.901Z" fill="white"/>
<path d="M147.435 53.8843C147.435 51.283 148.885 49.6523 151.078 49.6523C153.27 49.6523 154.608 51.283 154.608 53.6513V54.2725H149.071V54.5443C149.071 55.8255 149.851 56.7185 151.189 56.7185C152.193 56.7185 152.899 56.2526 153.345 55.4761L154.348 56.4079C153.828 57.3397 152.75 58.0774 151.152 58.0774C148.773 58.0774 147.398 56.4079 147.435 53.8454V53.8843ZM149.071 53.1078V53.2242H152.936V53.0689C152.936 51.7877 152.193 50.9724 151.078 50.9724C149.963 50.9724 149.071 51.8654 149.071 53.1078Z" fill="white"/>
<path d="M156.616 53.9265C156.616 51.364 157.991 49.7334 160.296 49.7334C161.894 49.7334 162.823 50.5099 163.306 51.6358L162.042 52.3347C161.782 51.597 161.225 51.1311 160.296 51.0923C159.069 51.0923 158.363 51.9464 158.326 53.2276V54.5865C158.326 55.8678 159.032 56.7219 160.296 56.7219C161.262 56.7219 161.819 56.2172 162.191 55.4407L163.38 56.2172C162.897 57.3431 161.894 58.1196 160.258 58.1196C157.954 58.1196 156.616 56.4501 156.616 53.8877V53.9265Z" fill="white"/>
<path d="M165.684 57.9641V49.8885H167.357V51.2473H167.431C167.765 50.3932 168.397 49.6943 169.661 49.6943C171.222 49.6943 172.262 50.8203 172.262 52.7615V57.9641H170.627V53.0333C170.627 51.7521 170.107 51.092 169.066 51.092C168.211 51.092 167.394 51.5191 167.394 52.4897V57.9641H165.758H165.684Z" fill="white"/>
<path d="M174.27 54.0017C174.27 51.4392 175.682 49.8086 177.949 49.8086C180.216 49.8086 181.591 51.4781 181.591 54.0405C181.591 56.603 180.179 58.2336 177.912 58.2336C175.645 58.2336 174.27 56.5641 174.27 54.0017ZM179.882 54.6229V53.4193C179.882 51.9051 179.101 51.1675 177.949 51.1286C176.797 51.0898 175.979 51.8663 175.979 53.3805V54.5841C175.979 56.0983 176.76 56.8359 177.912 56.8747C179.064 56.9136 179.882 56.1371 179.882 54.6229Z" fill="white"/>
<path d="M183.524 56.6836H186.088L186.126 47.8704H183.561V46.4727H187.761L187.724 56.6836H190.288V58.0813H183.561V56.6836H183.524Z" fill="white"/>
<path d="M192.185 54.0818C192.185 51.5193 193.597 49.8887 195.864 49.8887C198.132 49.8887 199.507 51.5581 199.507 54.1206C199.507 56.683 198.094 58.3137 195.827 58.3137C193.56 58.3137 192.185 56.6442 192.185 54.0818ZM197.797 54.703V53.4994C197.797 51.9852 197.017 51.2475 195.864 51.2087C194.712 51.1699 193.895 51.9464 193.895 53.4606V54.6641C193.895 56.1783 194.675 56.916 195.827 56.9548C196.979 56.9937 197.797 56.2172 197.797 54.703Z" fill="white"/>
<path d="M204.783 61.457C202.107 61.457 201.215 60.7193 201.215 59.5158C201.215 58.6228 201.698 58.1957 202.553 57.9628V57.8075C202.033 57.6133 201.699 57.2251 201.699 56.6427C201.699 55.8274 202.293 55.4779 203.111 55.2838V55.2062C202.182 54.7403 201.624 53.8861 201.624 52.7214C201.624 51.0131 202.888 49.8871 204.783 49.926C205.304 49.926 205.824 50.0424 206.233 50.1977V49.926C206.233 49.3048 206.567 48.8389 207.273 48.8389H208.686V50.1977H206.902V50.5472C207.571 51.0519 207.942 51.7896 207.942 52.7602C207.942 54.4685 206.679 55.5556 204.783 55.5556C204.449 55.5556 204.114 55.5556 203.817 55.4391C203.445 55.5168 202.999 55.7885 202.999 56.2156C202.999 56.7203 203.52 56.798 204.189 56.798H205.935C208.017 56.798 208.871 57.7298 208.871 59.0499C208.871 60.7193 207.534 61.4958 204.82 61.457H204.783ZM205.861 58.2734H203.185C202.813 58.4287 202.628 58.7393 202.628 59.1663C202.628 59.7875 203.074 60.2923 204.226 60.2923H205.452C206.679 60.2923 207.348 59.904 207.348 59.1663C207.348 58.6228 206.976 58.2734 205.898 58.2734H205.861ZM206.307 52.9543V52.5272C206.307 51.6731 205.824 51.0907 204.783 51.0907C203.743 51.0907 203.259 51.6731 203.222 52.5272V52.9543C203.222 53.8085 203.705 54.3908 204.746 54.3908C205.787 54.3908 206.27 53.8085 206.307 52.9543Z" fill="white"/>
<path d="M210.803 56.7994H213.441V51.5192H210.803V50.1215H215.077V56.8382H217.53V58.2359H210.803V56.8382V56.7994ZM213.181 47.7531V47.4425C213.181 46.9378 213.479 46.5107 214.296 46.5107C215.114 46.5107 215.411 46.9378 215.411 47.4425V47.7531C215.411 48.2579 215.114 48.6849 214.296 48.6849C213.479 48.6849 213.181 48.2579 213.181 47.7531Z" fill="white"/>
<path d="M225.598 58.2739C224.669 58.2739 224.223 57.7303 224.111 56.915H224.037C223.739 57.8856 222.922 58.468 221.695 58.468C220.134 58.468 219.131 57.5362 219.131 56.022C219.131 54.5078 220.246 53.6149 222.513 53.6149H224V52.9937C224 51.9066 223.442 51.363 222.364 51.363C221.361 51.363 220.803 51.7901 220.357 52.4501L219.391 51.6348C219.837 50.7806 220.878 50.043 222.513 50.043C224.446 50.043 225.635 51.0912 225.635 52.916V56.9538H226.601V58.3127H225.598V58.2739ZM224 55.8279V54.6631H222.55C221.361 54.6631 220.803 55.0514 220.766 55.7502V56.0608C220.766 56.7597 221.286 57.1479 222.178 57.1479C223.219 57.1479 224 56.6044 224 55.8279Z" fill="white"/>
<path d="M15.238 23.9952H26.7966V29.2366H15.238L15.1265 52.2986H26.685V57.54L0 57.4235V52.221L9.55159 52.2598L9.66314 29.1589H0.148638V23.9175H7.61901C8.73398 23.9563 9.66314 22.9857 9.66314 21.821V18.5597C9.66314 17.2396 10.1834 15.9584 11.0754 15.0266L16.4273 9.47461C17.3193 8.54281 18.5458 8.03809 19.8094 8.03809H26.8709V13.2406H15.3123L15.2752 23.9952H15.238Z" fill="white"/>
<path d="M42.5928 8.19336H54.6717V13.4347L38.0213 13.3571L37.9098 38.671L54.5601 38.7487V43.9512L42.4812 43.9124C41.2176 43.9124 39.9912 43.3688 39.0992 42.437L33.7101 36.7298C32.8181 35.798 32.335 34.5167 32.335 33.1967L32.4093 18.8314C32.4093 17.5114 32.9296 16.2301 33.8216 15.2983L39.285 9.66871C40.1769 8.73691 41.4034 8.23218 42.6671 8.23218L42.5928 8.19336Z" fill="white"/>
<path d="M69.1284 33.8166L69.2027 13.5111H59.8369V8.26973H67.1585C68.2735 8.30856 69.2027 7.33793 69.2027 6.17318V0H74.8519V8.30856L86.9679 8.34738V13.5499L74.8147 13.5111L74.7033 38.825H86.8564V44.0664H78.234C76.8589 44.0276 75.558 43.4064 74.6289 42.3193L70.3177 37.1167C69.5743 36.1849 69.1284 35.0202 69.1655 33.8166H69.1284Z" fill="white"/>
<path d="M32.1672 52.3786L32.1455 57.5811L86.7416 57.8299L86.7633 52.6274L32.1672 52.3786Z" fill="white"/>
</svg>
