<svg width="225" height="111" viewBox="0 0 225 111" fill="none" xmlns="http://www.w3.org/2000/svg">
<g clip-path="url(#clip0_1133_319)">
<path d="M224.051 110.451H113.601V0H224.051V110.451ZM114.275 109.776H223.377V0.674853H114.275V109.776Z" fill="white"/>
<path d="M110.451 110.451H0V0H110.451V110.451ZM0.674853 109.776H109.776V0.674853H0.674853V109.776Z" fill="white"/>
<path d="M20.8831 28.0439H15.6343V33.1428H20.8831V28.0439Z" fill="white"/>
<path d="M94.8169 48.1582H90.4116V52.5635H94.8169V48.1582Z" fill="white"/>
<path d="M20.8831 35.4863L15.6343 38.3919V52.5451H20.8831V35.4863Z" fill="white"/>
<path d="M82.4456 39.0094C78.5277 38.0159 77.5716 37.5285 77.5716 36.0288V35.9726C77.5716 34.8666 78.5652 34.0043 80.4772 34.0043C82.3893 34.0043 84.3576 34.8478 86.3635 36.235L88.9504 32.4859C86.6634 30.6488 83.8515 29.6177 80.5522 29.6177C76.878 29.6177 74.0474 31.3236 73.0351 34.0793C70.9543 31.7923 67.805 30.3863 64.0183 30.3863H56.1451V44.1458L50.2214 30.2176H45.7223L38.0553 48.2324H29.8071L33.5188 45.3643C37.5491 42.2337 39.4987 40.3216 39.4987 36.5162C39.4987 32.2609 36.4994 29.4678 31.6629 29.4678C27.5951 29.4678 25.4205 31.1362 23.171 34.1917L26.6765 37.0224C28.3636 34.9416 29.5634 33.9668 31.3255 33.9668C33.0876 33.9668 34.3811 35.0166 34.3811 36.9286C34.3811 38.8407 33.2751 40.0592 30.4444 42.4024L22.8711 48.6073V52.5815H41.1858L42.948 48.2512H57.8884L59.7255 52.5815H64.0183C70.8231 52.5815 75.5658 47.97 75.7908 41.9338C76.9718 42.5524 78.4339 43.0023 80.1211 43.4335C83.9077 44.4083 84.6763 45.0456 84.6763 46.3016V46.3578C84.6763 47.6888 83.4578 48.4949 81.4145 48.4949C79.7274 48.4949 78.2277 48.0262 76.8218 47.2389L74.3286 51.1005C76.5031 52.2815 78.9213 52.8814 81.3208 52.8814C86.1947 52.8814 89.6253 50.3695 89.6253 45.8704V45.8142C89.6253 41.8776 87.0383 40.2279 82.4456 39.0282V39.0094ZM44.6913 43.9209L47.8969 36.0663L51.1024 43.9209H44.6726H44.6913ZM70.6919 41.5214C70.6919 45.458 67.9925 48.1387 63.9996 48.1387H61.019V34.7729H63.9996C67.9925 34.7729 70.6919 37.5285 70.6919 41.4652V41.5214Z" fill="white"/>
<path d="M129.44 35.2809V38.5615C129.44 38.6927 129.403 38.7489 129.272 38.7489H128.747C128.616 38.7489 128.578 38.6927 128.578 38.5615V30.4257C128.578 30.2945 128.634 30.2383 128.747 30.2383H131.221C133.302 30.2383 133.939 31.0631 133.939 32.0754V33.4813C133.939 34.2499 133.546 34.9435 132.384 35.1872L134.014 38.5802C134.071 38.6927 133.977 38.7677 133.846 38.7677H133.321C133.19 38.7677 133.152 38.6927 133.096 38.5802L131.54 35.2997H129.459L129.44 35.2809ZM129.44 30.9881V34.5123H131.203C132.552 34.5123 133.04 34.0437 133.04 33.2939V32.1879C133.04 31.4568 132.552 30.9881 131.203 30.9881H129.44Z" fill="white"/>
<path d="M135.795 38.7489C135.683 38.7489 135.626 38.6927 135.626 38.5615V30.4257C135.626 30.2945 135.683 30.2383 135.795 30.2383H140.069C140.2 30.2383 140.257 30.2945 140.257 30.4257V30.8194C140.257 30.9506 140.2 31.0069 140.069 31.0069H136.508V33.9312H139.844C139.976 33.9312 140.032 33.9875 140.032 34.1187V34.4749C140.032 34.6061 139.976 34.6623 139.844 34.6623H136.508V37.9991H140.219C140.35 37.9991 140.407 38.0553 140.407 38.1678V38.5615C140.407 38.6927 140.35 38.7489 140.219 38.7489H135.776H135.795Z" fill="white"/>
<path d="M144.306 30.875C142.993 30.875 142.581 31.3437 142.581 32.056V32.4309C142.581 33.0496 142.993 33.2745 143.312 33.4057L145.674 34.2868C146.349 34.5305 146.986 35.0366 146.986 35.9177V36.9862C146.986 37.9797 146.33 38.8233 144.306 38.8233C142.281 38.8233 141.625 37.9985 141.625 36.9862V36.2926C141.625 36.1614 141.681 36.1051 141.794 36.1051H142.3C142.431 36.1051 142.469 36.1614 142.469 36.2926V36.8737C142.469 37.6048 142.937 38.0547 144.268 38.0547C145.599 38.0547 146.087 37.5861 146.087 36.8737V36.1051C146.087 35.449 145.543 35.1866 145.055 34.9991L142.806 34.1368C142.281 33.9306 141.719 33.4057 141.719 32.6371V31.9435C141.719 30.95 142.3 30.1064 144.306 30.1064C146.311 30.1064 146.911 30.9313 146.911 31.9435V32.5247C146.911 32.6559 146.855 32.7121 146.724 32.7121H146.218C146.087 32.7121 146.049 32.6559 146.049 32.5247V32.056C146.049 31.3249 145.637 30.875 144.324 30.875H144.306Z" fill="white"/>
<path d="M148.58 38.7489C148.467 38.7489 148.411 38.6927 148.411 38.5615V30.4257C148.411 30.2945 148.467 30.2383 148.58 30.2383H152.854C152.985 30.2383 153.041 30.2945 153.041 30.4257V30.8194C153.041 30.9506 152.985 31.0069 152.854 31.0069H149.292V33.9312H152.629C152.76 33.9312 152.816 33.9875 152.816 34.1187V34.4749C152.816 34.6061 152.76 34.6623 152.629 34.6623H149.292V37.9991H153.004C153.135 37.9991 153.191 38.0553 153.191 38.1678V38.5615C153.191 38.6927 153.135 38.7489 153.004 38.7489H148.561H148.58Z" fill="white"/>
<path d="M157.391 30.4062L159.903 38.5419C159.94 38.6731 159.903 38.7294 159.753 38.7294H159.209C159.078 38.7294 159.022 38.6731 158.984 38.5419L158.29 36.3112H155.422L154.747 38.5419C154.71 38.6731 154.654 38.7294 154.541 38.7294H154.035C153.904 38.7294 153.866 38.6731 153.904 38.5419L156.397 30.4062C156.435 30.275 156.491 30.2188 156.641 30.2188H157.184C157.316 30.2188 157.372 30.275 157.409 30.4062H157.391ZM157.203 32.6745C157.072 32.2808 156.922 31.2873 156.885 31.156C156.885 31.2498 156.716 32.1683 156.566 32.6557L155.647 35.6176H158.122L157.203 32.6932V32.6745Z" fill="white"/>
<path d="M161.87 35.2809V38.5615C161.87 38.6927 161.833 38.7489 161.701 38.7489H161.177C161.045 38.7489 161.008 38.6927 161.008 38.5615V30.4257C161.008 30.2945 161.064 30.2383 161.177 30.2383H163.651C165.732 30.2383 166.369 31.0631 166.369 32.0754V33.4813C166.369 34.2499 165.975 34.9435 164.813 35.1872L166.444 38.5802C166.5 38.6927 166.407 38.7677 166.275 38.7677H165.751C165.619 38.7677 165.582 38.6927 165.526 38.5802L163.97 35.2997H161.889L161.87 35.2809ZM161.87 30.9881V34.5123H163.632C164.982 34.5123 165.469 34.0437 165.469 33.2939V32.1879C165.469 31.4568 164.982 30.9881 163.632 30.9881H161.87Z" fill="white"/>
<path d="M173.194 37.0245C173.194 38.018 172.612 38.8616 170.55 38.8616C168.488 38.8616 167.907 38.0367 167.907 37.0245V31.9631C167.907 30.9695 168.488 30.126 170.55 30.126C172.612 30.126 173.194 30.9508 173.194 31.9631V32.6004C173.194 32.7317 173.137 32.8066 173.025 32.8066H172.519C172.387 32.8066 172.331 32.7504 172.331 32.6004V32.0943C172.331 31.3632 171.9 30.8946 170.569 30.8946C169.238 30.8946 168.807 31.3632 168.807 32.0943V36.8745C168.807 37.6056 169.238 38.0742 170.569 38.0742C171.9 38.0742 172.331 37.6056 172.331 36.8745V36.2184C172.331 36.0872 172.387 36.0309 172.519 36.0309H173.025C173.156 36.0309 173.194 36.0872 173.194 36.2184V37.0245Z" fill="white"/>
<path d="M175.518 33.8555H179.155V30.4062C179.155 30.275 179.211 30.2188 179.324 30.2188H179.867C179.998 30.2188 180.036 30.275 180.036 30.4062V38.5419C180.036 38.6731 179.98 38.7294 179.867 38.7294H179.324C179.192 38.7294 179.155 38.6731 179.155 38.5419V34.5865H175.518V38.5419C175.518 38.6731 175.481 38.7294 175.349 38.7294H174.824C174.693 38.7294 174.656 38.6731 174.656 38.5419V30.4062C174.656 30.275 174.712 30.2188 174.824 30.2188H175.349C175.481 30.2188 175.518 30.275 175.518 30.4062V33.8555Z" fill="white"/>
<path d="M129.44 52.3954C129.44 52.5267 129.403 52.5829 129.272 52.5829H128.747C128.616 52.5829 128.578 52.5267 128.578 52.3954V44.2597C128.578 44.1285 128.634 44.0723 128.747 44.0723H129.272C129.403 44.0723 129.44 44.1285 129.44 44.2597V52.3954Z" fill="white"/>
<path d="M136.788 52.3954C136.788 52.5267 136.751 52.5829 136.62 52.5829H136.151C136.151 52.5829 136.02 52.5642 135.982 52.4892L132.664 46.603C132.383 46.1343 132.252 45.8344 132.233 45.7969V52.3954C132.233 52.5267 132.177 52.5829 132.064 52.5829H131.596C131.464 52.5829 131.408 52.5267 131.408 52.3954V44.2597C131.408 44.1285 131.464 44.0723 131.596 44.0723H132.064C132.064 44.0723 132.196 44.091 132.214 44.1472L135.607 50.1272C135.701 50.2959 135.982 50.877 135.982 50.877V44.2597C135.982 44.1285 136.038 44.0723 136.151 44.0723H136.62C136.751 44.0723 136.788 44.1285 136.788 44.2597V52.3954Z" fill="white"/>
<path d="M141.194 44.711C139.882 44.711 139.47 45.1796 139.47 45.892V46.2669C139.47 46.8855 139.882 47.1104 140.201 47.2417L142.563 48.1227C143.238 48.3664 143.875 48.8726 143.875 49.7536V50.8221C143.875 51.8157 143.219 52.6592 141.194 52.6592C139.17 52.6592 138.514 51.8344 138.514 50.8221V50.1285C138.514 49.9973 138.57 49.9411 138.682 49.9411H139.189C139.32 49.9411 139.357 49.9973 139.357 50.1285V50.7097C139.357 51.4407 139.826 51.8906 141.157 51.8906C142.488 51.8906 142.975 51.422 142.975 50.7097V49.9411C142.975 49.285 142.432 49.0225 141.944 48.8351L139.695 47.9728C139.17 47.7665 138.607 47.2417 138.607 46.4731V45.7795C138.607 44.7859 139.189 43.9424 141.194 43.9424C143.2 43.9424 143.8 44.7672 143.8 45.7795V46.3606C143.8 46.4918 143.744 46.5481 143.613 46.5481H143.106C142.975 46.5481 142.938 46.4918 142.938 46.3606V45.892C142.938 45.1609 142.525 44.711 141.213 44.711H141.194Z" fill="white"/>
<path d="M149.892 44.0547C150.023 44.0547 150.079 44.1109 150.079 44.2421V44.6358C150.079 44.767 150.023 44.8233 149.892 44.8233H147.736V52.3966C147.736 52.5278 147.68 52.5841 147.567 52.5841H147.024C146.893 52.5841 146.836 52.5278 146.836 52.3966V44.8233H144.681C144.549 44.8233 144.493 44.767 144.493 44.6358V44.2421C144.493 44.1109 144.549 44.0547 144.681 44.0547H149.892Z" fill="white"/>
<path d="M152.011 52.3954C152.011 52.5267 151.973 52.5829 151.842 52.5829H151.317C151.186 52.5829 151.148 52.5267 151.148 52.3954V44.2597C151.148 44.1285 151.205 44.0723 151.317 44.0723H151.842C151.973 44.0723 152.011 44.1285 152.011 44.2597V52.3954Z" fill="white"/>
<path d="M158.44 44.0547C158.571 44.0547 158.627 44.1109 158.627 44.2421V44.6358C158.627 44.767 158.571 44.8233 158.44 44.8233H156.284V52.3966C156.284 52.5278 156.228 52.5841 156.115 52.5841H155.572C155.44 52.5841 155.384 52.5278 155.384 52.3966V44.8233H153.228C153.097 44.8233 153.041 44.767 153.041 44.6358V44.2421C153.041 44.1109 153.097 44.0547 153.228 44.0547H158.44Z" fill="white"/>
<path d="M160.483 50.7095C160.483 51.4406 160.97 51.9092 162.283 51.9092C163.595 51.9092 164.12 51.4406 164.12 50.7095V44.2421C164.12 44.1109 164.176 44.0547 164.288 44.0547H164.813C164.945 44.0547 164.982 44.1109 164.982 44.2421V50.8407C164.982 51.8342 164.345 52.6778 162.264 52.6778C160.183 52.6778 159.564 51.853 159.564 50.8407V44.2421C159.564 44.1109 159.621 44.0547 159.733 44.0547H160.277C160.408 44.0547 160.445 44.1109 160.445 44.2421V50.7095H160.483Z" fill="white"/>
<path d="M171.357 44.0547C171.488 44.0547 171.544 44.1109 171.544 44.2421V44.6358C171.544 44.767 171.488 44.8233 171.357 44.8233H169.201V52.3966C169.201 52.5278 169.145 52.5841 169.032 52.5841H168.489C168.357 52.5841 168.301 52.5278 168.301 52.3966V44.8233H166.145C166.014 44.8233 165.958 44.767 165.958 44.6358V44.2421C165.958 44.1109 166.014 44.0547 166.145 44.0547H171.357Z" fill="white"/>
<path d="M172.743 52.5829C172.63 52.5829 172.574 52.5267 172.574 52.3954V44.2597C172.574 44.1285 172.63 44.0723 172.743 44.0723H177.017C177.148 44.0723 177.204 44.1285 177.204 44.2597V44.6534C177.204 44.7846 177.148 44.8408 177.017 44.8408H173.455V47.7652H176.792C176.923 47.7652 176.98 47.8214 176.98 47.9527V48.3088C176.98 48.4401 176.923 48.4963 176.792 48.4963H173.455V51.8331H177.167C177.298 51.8331 177.354 51.8893 177.354 52.0018V52.3954C177.354 52.5267 177.298 52.5829 177.167 52.5829H172.724H172.743Z" fill="white"/>
<path d="M182.172 52.3954C182.172 52.5267 182.134 52.5829 182.003 52.5829H181.478C181.347 52.5829 181.31 52.5267 181.31 52.3954V44.2597C181.31 44.1285 181.366 44.0723 181.478 44.0723H182.003C182.134 44.0723 182.172 44.1285 182.172 44.2597V52.3954Z" fill="white"/>
<path d="M189.503 52.3954C189.503 52.5267 189.465 52.5829 189.334 52.5829H188.865C188.865 52.5829 188.734 52.5642 188.697 52.4892L185.379 46.603C185.097 46.1343 184.966 45.8344 184.947 45.7969V52.3954C184.947 52.5267 184.891 52.5829 184.779 52.5829H184.31C184.179 52.5829 184.123 52.5267 184.123 52.3954V44.2597C184.123 44.1285 184.179 44.0723 184.31 44.0723H184.779C184.779 44.0723 184.91 44.091 184.929 44.1472L188.322 50.1272C188.415 50.2959 188.697 50.877 188.697 50.877V44.2597C188.697 44.1285 188.753 44.0723 188.865 44.0723H189.334C189.465 44.0723 189.503 44.1285 189.503 44.2597V52.3954Z" fill="white"/>
<path d="M131.222 58.0752L133.734 66.2109C133.771 66.3421 133.734 66.3983 133.584 66.3983H133.04C132.909 66.3983 132.853 66.3421 132.815 66.2109L132.122 63.9801H129.253L128.579 66.2109C128.541 66.3421 128.485 66.3983 128.372 66.3983H127.866C127.735 66.3983 127.697 66.3421 127.735 66.2109L130.228 58.0752C130.266 57.9439 130.322 57.8877 130.472 57.8877H131.016C131.147 57.8877 131.203 57.9439 131.24 58.0752H131.222ZM131.034 60.3434C130.903 59.9497 130.753 58.9562 130.716 58.825C130.716 58.9187 130.547 59.8373 130.397 60.3247L129.478 63.2865H131.953L131.034 60.3622V60.3434Z" fill="white"/>
<path d="M135.701 62.9303V66.2109C135.701 66.3421 135.664 66.3983 135.532 66.3983H135.008C134.876 66.3983 134.839 66.3421 134.839 66.2109V58.0752C134.839 57.9439 134.895 57.8877 135.008 57.8877H137.482C139.563 57.8877 140.2 58.7125 140.2 59.7248V61.1307C140.2 61.8993 139.807 62.5929 138.644 62.8366L140.275 66.2296C140.331 66.3421 140.238 66.4171 140.106 66.4171H139.582C139.45 66.4171 139.413 66.3421 139.357 66.2296L137.801 62.9491H135.72L135.701 62.9303ZM135.701 58.6563V62.1805H137.463C138.813 62.1805 139.3 61.7119 139.3 60.962V59.856C139.3 59.1249 138.813 58.6563 137.463 58.6563H135.701Z" fill="white"/>
<path d="M146.311 57.8877C146.443 57.8877 146.499 57.9439 146.499 58.0752V58.4688C146.499 58.6 146.443 58.6563 146.311 58.6563H144.156V66.2296C144.156 66.3608 144.099 66.4171 143.987 66.4171H143.443C143.312 66.4171 143.256 66.3608 143.256 66.2296V58.6563H141.1C140.969 58.6563 140.913 58.6 140.913 58.4688V58.0752C140.913 57.9439 140.969 57.8877 141.1 57.8877H146.311Z" fill="white"/>
<path d="M146.162 65.2363C146.162 65.1051 146.218 65.0488 146.331 65.0488H146.874C147.006 65.0488 147.043 65.1051 147.043 65.2363V66.0424C147.043 66.7734 146.649 67.3171 145.768 67.5795C145.656 67.617 145.581 67.5795 145.543 67.4671L145.412 67.1109C145.356 66.9797 145.412 66.9234 145.525 66.8672C146.012 66.661 146.143 66.3985 146.143 66.0236V65.255L146.162 65.2363Z" fill="white"/>
<path d="M151.411 66.3983C151.298 66.3983 151.261 66.3421 151.261 66.2109V58.0752C151.261 57.9439 151.317 57.8877 151.429 57.8877H153.96C156.022 57.8877 156.678 58.7125 156.678 59.7248V64.58C156.678 65.5735 156.022 66.4171 153.96 66.4171H151.411V66.3983ZM152.142 58.6563V65.6485H153.96C155.31 65.6485 155.797 65.1799 155.797 64.4488V59.856C155.797 59.1249 155.31 58.6563 153.96 58.6563H152.142Z" fill="white"/>
<path d="M158.628 66.3983C158.516 66.3983 158.459 66.3421 158.459 66.2109V58.0752C158.459 57.9439 158.516 57.8877 158.628 57.8877H162.902C163.033 57.8877 163.09 57.9439 163.09 58.0752V58.4688C163.09 58.6 163.033 58.6563 162.902 58.6563H159.341V61.5806H162.677C162.809 61.5806 162.865 61.6369 162.865 61.7681V62.1243C162.865 62.2555 162.809 62.3117 162.677 62.3117H159.341V65.6485H163.052C163.183 65.6485 163.24 65.7047 163.24 65.8172V66.2109C163.24 66.3421 163.183 66.3983 163.052 66.3983H158.609H158.628Z" fill="white"/>
<path d="M167.158 58.544C165.846 58.544 165.433 59.0126 165.433 59.725V60.0999C165.433 60.7185 165.846 60.9435 166.164 61.0747L168.526 61.9557C169.201 62.1994 169.838 62.7056 169.838 63.5866V64.6551C169.838 65.6487 169.182 66.4922 167.158 66.4922C165.133 66.4922 164.477 65.6674 164.477 64.6551V63.9615C164.477 63.8303 164.533 63.7741 164.646 63.7741H165.152C165.283 63.7741 165.321 63.8303 165.321 63.9615V64.5427C165.321 65.2738 165.789 65.7237 167.12 65.7237C168.451 65.7237 168.939 65.255 168.939 64.5427V63.7741C168.939 63.118 168.395 62.8555 167.908 62.6681L165.658 61.8058C165.133 61.5996 164.571 61.0747 164.571 60.3061V59.6125C164.571 58.619 165.152 57.7754 167.158 57.7754C169.164 57.7754 169.763 58.6002 169.763 59.6125V60.1936C169.763 60.3248 169.707 60.3811 169.576 60.3811H169.07C168.939 60.3811 168.901 60.3248 168.901 60.1936V59.725C168.901 58.9939 168.489 58.544 167.176 58.544H167.158Z" fill="white"/>
<path d="M172.312 66.2109C172.312 66.3421 172.275 66.3983 172.143 66.3983H171.618C171.487 66.3983 171.45 66.3421 171.45 66.2109V58.0752C171.45 57.9439 171.506 57.8877 171.618 57.8877H172.143C172.275 57.8877 172.312 57.9439 172.312 58.0752V66.2109Z" fill="white"/>
<path d="M179.211 62.3119C179.342 62.3119 179.398 62.3681 179.398 62.4806V64.6739C179.398 65.6674 178.817 66.511 176.755 66.511C174.693 66.511 174.112 65.6862 174.112 64.6739V59.6125C174.112 58.619 174.693 57.7754 176.755 57.7754C178.817 57.7754 179.398 58.6002 179.398 59.6125V60.2124C179.398 60.3436 179.342 60.3811 179.229 60.3811H178.723C178.592 60.3811 178.536 60.3248 178.536 60.2124V59.7437C178.536 59.0126 178.105 58.544 176.774 58.544C175.443 58.544 175.012 59.0126 175.012 59.7437V64.5239C175.012 65.255 175.443 65.7237 176.774 65.7237C178.105 65.7237 178.536 65.255 178.536 64.5427V63.0617H176.849C176.717 63.0617 176.68 63.0055 176.68 62.8743V62.4806C176.68 62.3494 176.736 62.3119 176.849 62.3119H179.211Z" fill="white"/>
<path d="M186.428 66.2109C186.428 66.3421 186.39 66.3983 186.259 66.3983H185.791C185.791 66.3983 185.659 66.3796 185.622 66.3046L182.304 60.4184C182.023 59.9497 181.891 59.6498 181.873 59.6123V66.2109C181.873 66.3421 181.816 66.3983 181.704 66.3983H181.235C181.104 66.3983 181.048 66.3421 181.048 66.2109V58.0752C181.048 57.9439 181.104 57.8877 181.235 57.8877H181.704C181.704 57.8877 181.835 57.9064 181.854 57.9627L185.247 63.9426C185.341 64.1113 185.622 64.6925 185.622 64.6925V58.0752C185.622 57.9439 185.678 57.8877 185.791 57.8877H186.259C186.39 57.8877 186.428 57.9439 186.428 58.0752V66.2109Z" fill="white"/>
<path d="M131.222 71.9101L133.734 80.0458C133.771 80.1771 133.734 80.2333 133.584 80.2333H133.04C132.909 80.2333 132.853 80.1771 132.815 80.0458L132.122 77.8151H129.253L128.579 80.0458C128.541 80.1771 128.485 80.2333 128.372 80.2333H127.866C127.735 80.2333 127.697 80.1771 127.735 80.0458L130.228 71.9101C130.266 71.7789 130.322 71.7227 130.472 71.7227H131.016C131.147 71.7227 131.203 71.7789 131.24 71.9101H131.222ZM131.034 74.1784C130.903 73.7847 130.753 72.7912 130.716 72.66C130.716 72.7537 130.547 73.6722 130.397 74.1596L129.478 77.1215H131.953L131.034 74.1971V74.1784Z" fill="white"/>
<path d="M140.219 80.0458C140.219 80.1771 140.181 80.2333 140.05 80.2333H139.582C139.582 80.2333 139.45 80.2146 139.413 80.1396L136.095 74.2534C135.814 73.7847 135.682 73.4848 135.664 73.4473V80.0458C135.664 80.1771 135.607 80.2333 135.495 80.2333H135.026C134.895 80.2333 134.839 80.1771 134.839 80.0458V71.9101C134.839 71.7789 134.895 71.7227 135.026 71.7227H135.495C135.495 71.7227 135.626 71.7414 135.645 71.7976L139.038 77.7776C139.132 77.9463 139.413 78.5274 139.413 78.5274V71.9101C139.413 71.7789 139.469 71.7227 139.582 71.7227H140.05C140.181 71.7227 140.219 71.7789 140.219 71.9101V80.0458Z" fill="white"/>
<path d="M142.225 80.2333C142.112 80.2333 142.075 80.1771 142.075 80.0458V71.9101C142.075 71.7789 142.131 71.7227 142.243 71.7227H144.774C146.836 71.7227 147.492 72.5475 147.492 73.5598V78.4149C147.492 79.4085 146.836 80.252 144.774 80.252H142.225V80.2333ZM142.956 72.4725V79.4647H144.774C146.124 79.4647 146.611 78.9961 146.611 78.265V73.6722C146.611 72.9411 146.124 72.4725 144.774 72.4725H142.956Z" fill="white"/>
<path d="M154.223 72.3614C152.91 72.3614 152.498 72.83 152.498 73.5423V73.9173C152.498 74.5359 152.91 74.7608 153.229 74.8921L155.591 75.7731C156.266 76.0168 156.903 76.523 156.903 77.404V78.4725C156.903 79.4661 156.247 80.3096 154.223 80.3096C152.198 80.3096 151.542 79.4848 151.542 78.4725V77.7789C151.542 77.6477 151.598 77.5915 151.711 77.5915H152.217C152.348 77.5915 152.386 77.6477 152.386 77.7789V78.36C152.386 79.0911 152.854 79.541 154.185 79.541C155.516 79.541 156.004 79.0724 156.004 78.36V77.5915C156.004 76.9354 155.46 76.6729 154.972 76.4855L152.723 75.6231C152.198 75.4169 151.636 74.8921 151.636 74.1235V73.4299C151.636 72.4363 152.217 71.5928 154.223 71.5928C156.228 71.5928 156.828 72.4176 156.828 73.4299V74.011C156.828 74.1422 156.772 74.1985 156.641 74.1985H156.135C156.004 74.1985 155.966 74.1422 155.966 74.011V73.5423C155.966 72.8113 155.554 72.3614 154.241 72.3614H154.223Z" fill="white"/>
<path d="M158.346 73.4474C158.346 72.4539 159.002 71.6104 161.046 71.6104C163.089 71.6104 163.764 72.4352 163.764 73.4474V78.5088C163.764 79.5024 163.126 80.3459 161.046 80.3459C158.965 80.3459 158.346 79.5211 158.346 78.5088V73.4474ZM162.883 73.5787C162.883 72.8476 162.377 72.3789 161.046 72.3789C159.715 72.3789 159.227 72.8476 159.227 73.5787V78.3589C159.227 79.09 159.733 79.5586 161.046 79.5586C162.358 79.5586 162.883 79.09 162.883 78.3589V73.5787Z" fill="white"/>
<path d="M170.7 78.5088C170.7 79.5024 170.119 80.3459 168.057 80.3459C165.995 80.3459 165.414 79.5211 165.414 78.5088V73.4474C165.414 72.4539 165.995 71.6104 168.057 71.6104C170.119 71.6104 170.7 72.4352 170.7 73.4474V74.0848C170.7 74.216 170.644 74.291 170.531 74.291H170.025C169.894 74.291 169.838 74.2348 169.838 74.0848V73.5787C169.838 72.8476 169.406 72.3789 168.076 72.3789C166.745 72.3789 166.313 72.8476 166.313 73.5787V78.3589C166.313 79.09 166.745 79.5586 168.076 79.5586C169.406 79.5586 169.838 79.09 169.838 78.3589V77.7028C169.838 77.5715 169.894 77.5153 170.025 77.5153H170.531C170.662 77.5153 170.7 77.5715 170.7 77.7028V78.5088Z" fill="white"/>
<path d="M173.025 80.0458C173.025 80.1771 172.987 80.2333 172.856 80.2333H172.331C172.2 80.2333 172.163 80.1771 172.163 80.0458V71.9101C172.163 71.7789 172.219 71.7227 172.331 71.7227H172.856C172.987 71.7227 173.025 71.7789 173.025 71.9101V80.0458Z" fill="white"/>
<path d="M175.124 80.2333C175.012 80.2333 174.956 80.1771 174.956 80.0458V71.9101C174.956 71.7789 175.012 71.7227 175.124 71.7227H179.398C179.53 71.7227 179.586 71.7789 179.586 71.9101V72.3038C179.586 72.435 179.53 72.4912 179.398 72.4912H175.837V75.4156H179.173C179.305 75.4156 179.361 75.4718 179.361 75.6031V75.9592C179.361 76.0905 179.305 76.1467 179.173 76.1467H175.837V79.4835H179.548C179.68 79.4835 179.736 79.5397 179.736 79.6522V80.0458C179.736 80.1771 179.68 80.2333 179.548 80.2333H175.106H175.124Z" fill="white"/>
<path d="M185.678 71.7227C185.809 71.7227 185.865 71.7789 185.865 71.9101V72.3038C185.865 72.435 185.809 72.4912 185.678 72.4912H183.522V80.0646C183.522 80.1958 183.466 80.252 183.353 80.252H182.81C182.678 80.252 182.622 80.1958 182.622 80.0646V72.4912H180.466C180.335 72.4912 180.279 72.435 180.279 72.3038V71.9101C180.279 71.7789 180.335 71.7227 180.466 71.7227H185.678Z" fill="white"/>
<path d="M188.827 75.5285C188.94 75.7722 188.996 75.9784 189.015 75.9971C189.015 75.9784 189.127 75.6784 189.202 75.5285L191.114 71.8917C191.171 71.798 191.208 71.7043 191.339 71.7043H191.864C191.995 71.7043 192.052 71.7605 191.995 71.8917L189.483 76.7469V80.0275C189.483 80.1587 189.427 80.2149 189.296 80.2149H188.771C188.64 80.2149 188.584 80.1587 188.584 80.0275V76.8407L186.053 71.873C185.997 71.7418 186.053 71.6855 186.184 71.6855H186.784C186.915 71.6855 186.953 71.7605 187.009 71.873L188.846 75.5097L188.827 75.5285Z" fill="white"/>
</g>
<defs>
<clipPath id="clip0_1133_319">
<rect width="224.051" height="110.451" fill="white"/>
</clipPath>
</defs>
</svg>
