<svg width="554" height="45" viewBox="0 0 554 45" fill="none" xmlns="http://www.w3.org/2000/svg">
<path d="M2.90732 35V10.8416H11.9408C14.2482 10.8416 16.0018 11.4877 17.2016 12.7798C18.4245 14.0719 19.036 15.8486 19.036 18.1099C19.036 20.3711 18.4245 22.1478 17.2016 23.44C16.0018 24.7321 14.2482 25.3782 11.9408 25.3782H6.78374V35H2.90732ZM6.78374 22.1594H11.3524C13.7521 22.1594 14.9519 21.0518 14.9519 18.8367V17.3484C14.9519 15.1564 13.7521 14.0604 11.3524 14.0604H6.78374V22.1594ZM34.5974 35.4153C33.0745 35.4153 31.7477 35.1384 30.6171 34.5847C29.5096 34.0078 28.5866 33.1887 27.8482 32.1273C27.133 31.0659 26.6023 29.7622 26.2561 28.2163C25.91 26.6703 25.737 24.9052 25.737 22.9208C25.737 20.9595 25.91 19.2059 26.2561 17.6599C26.6023 16.0909 27.133 14.7757 27.8482 13.7143C28.5866 12.6529 29.5096 11.8453 30.6171 11.2915C31.7477 10.7147 33.0745 10.4263 34.5974 10.4263C36.1203 10.4263 37.4355 10.7147 38.543 11.2915C39.6736 11.8453 40.5966 12.6529 41.3119 13.7143C42.0503 14.7757 42.5925 16.0909 42.9386 17.6599C43.2847 19.2059 43.4578 20.9595 43.4578 22.9208C43.4578 24.9052 43.2847 26.6703 42.9386 28.2163C42.5925 29.7622 42.0503 31.0659 41.3119 32.1273C40.5966 33.1887 39.6736 34.0078 38.543 34.5847C37.4355 35.1384 36.1203 35.4153 34.5974 35.4153ZM34.5974 32.1965C36.3279 32.1965 37.5508 31.5504 38.2661 30.2583C38.9814 28.9431 39.3391 27.1664 39.3391 24.9282V20.8788C39.3391 18.6637 38.9814 16.91 38.2661 15.6179C37.5508 14.3027 36.3279 13.6451 34.5974 13.6451C32.8668 13.6451 31.6439 14.3027 30.9286 15.6179C30.2133 16.91 29.8557 18.6637 29.8557 20.8788V24.9628C29.8557 27.1779 30.2133 28.9431 30.9286 30.2583C31.6439 31.5504 32.8668 32.1965 34.5974 32.1965ZM51.4047 35V10.8416H66.5297V14.095H55.2812V21.121H66.1144V24.3745H55.2812V31.7466H66.5297V35H51.4047ZM84.9638 14.095V35H81.0874V14.095H73.5076V10.8416H92.5436V14.095H84.9638ZM99.6253 35V32.0581H105.301V13.7835H99.6253V10.8416H114.854V13.7835H109.178V32.0581H114.854V35H99.6253ZM132.146 35.4153C129.077 35.4153 126.793 34.3309 125.293 32.1619C123.816 29.993 123.078 26.9126 123.078 22.9208C123.078 18.929 123.816 15.8486 125.293 13.6797C126.793 11.5107 129.077 10.4263 132.146 10.4263C133.323 10.4263 134.338 10.5878 135.192 10.9108C136.069 11.2108 136.818 11.6376 137.441 12.1914C138.064 12.7221 138.584 13.3567 138.999 14.095C139.437 14.8103 139.795 15.5833 140.072 16.414L136.576 17.5907C136.392 17.0369 136.184 16.5178 135.953 16.0332C135.722 15.5487 135.434 15.1333 135.088 14.7872C134.742 14.4411 134.326 14.1642 133.842 13.9566C133.38 13.7489 132.804 13.6451 132.111 13.6451C130.404 13.6451 129.158 14.3027 128.373 15.6179C127.589 16.91 127.197 18.6637 127.197 20.8788V24.9628C127.197 27.1779 127.589 28.9431 128.373 30.2583C129.158 31.5504 130.404 32.1965 132.111 32.1965C132.804 32.1965 133.38 32.0927 133.842 31.885C134.326 31.6774 134.742 31.4005 135.088 31.0544C135.434 30.7082 135.722 30.2929 135.953 29.8084C136.184 29.3238 136.392 28.8046 136.576 28.2509L140.072 29.4276C139.795 30.2583 139.437 31.0428 138.999 31.7812C138.584 32.4965 138.064 33.131 137.441 33.6848C136.818 34.2155 136.069 34.6424 135.192 34.9654C134.338 35.2654 133.323 35.4153 132.146 35.4153ZM156.36 35.4153C153.291 35.4153 151.007 34.3309 149.507 32.1619C148.03 29.993 147.292 26.9126 147.292 22.9208C147.292 18.929 148.03 15.8486 149.507 13.6797C151.007 11.5107 153.291 10.4263 156.36 10.4263C157.537 10.4263 158.552 10.5878 159.406 10.9108C160.283 11.2108 161.033 11.6376 161.656 12.1914C162.279 12.7221 162.798 13.3567 163.213 14.095C163.651 14.8103 164.009 15.5833 164.286 16.414L160.79 17.5907C160.606 17.0369 160.398 16.5178 160.167 16.0332C159.937 15.5487 159.648 15.1333 159.302 14.7872C158.956 14.4411 158.541 14.1642 158.056 13.9566C157.595 13.7489 157.018 13.6451 156.325 13.6451C154.618 13.6451 153.372 14.3027 152.588 15.6179C151.803 16.91 151.411 18.6637 151.411 20.8788V24.9628C151.411 27.1779 151.803 28.9431 152.588 30.2583C153.372 31.5504 154.618 32.1965 156.325 32.1965C157.018 32.1965 157.595 32.0927 158.056 31.885C158.541 31.6774 158.956 31.4005 159.302 31.0544C159.648 30.7082 159.937 30.2929 160.167 29.8084C160.398 29.3238 160.606 28.8046 160.79 28.2509L164.286 29.4276C164.009 30.2583 163.651 31.0428 163.213 31.7812C162.798 32.4965 162.279 33.131 161.656 33.6848C161.033 34.2155 160.283 34.6424 159.406 34.9654C158.552 35.2654 157.537 35.4153 156.36 35.4153ZM179.882 35.4153C178.359 35.4153 177.032 35.1384 175.902 34.5847C174.794 34.0078 173.871 33.1887 173.133 32.1273C172.418 31.0659 171.887 29.7622 171.541 28.2163C171.195 26.6703 171.022 24.9052 171.022 22.9208C171.022 20.9595 171.195 19.2059 171.541 17.6599C171.887 16.0909 172.418 14.7757 173.133 13.7143C173.871 12.6529 174.794 11.8453 175.902 11.2915C177.032 10.7147 178.359 10.4263 179.882 10.4263C181.405 10.4263 182.72 10.7147 183.828 11.2915C184.958 11.8453 185.881 12.6529 186.597 13.7143C187.335 14.7757 187.877 16.0909 188.223 17.6599C188.569 19.2059 188.742 20.9595 188.742 22.9208C188.742 24.9052 188.569 26.6703 188.223 28.2163C187.877 29.7622 187.335 31.0659 186.597 32.1273C185.881 33.1887 184.958 34.0078 183.828 34.5847C182.72 35.1384 181.405 35.4153 179.882 35.4153ZM179.882 32.1965C181.613 32.1965 182.835 31.5504 183.551 30.2583C184.266 28.9431 184.624 27.1664 184.624 24.9282V20.8788C184.624 18.6637 184.266 16.91 183.551 15.6179C182.835 14.3027 181.613 13.6451 179.882 13.6451C178.151 13.6451 176.929 14.3027 176.213 15.6179C175.498 16.91 175.14 18.6637 175.14 20.8788V24.9628C175.14 27.1779 175.498 28.9431 176.213 30.2583C176.929 31.5504 178.151 32.1965 179.882 32.1965ZM209.115 23.44L209.219 16.1717H208.942L204.096 28.597L199.251 16.1717H198.974L199.078 23.44V35H195.651V10.8416H200.393L204.096 20.4288H204.338L208.076 10.8416H212.541V35H209.115V23.44ZM220.834 35V10.8416H229.868C232.175 10.8416 233.929 11.4877 235.129 12.7798C236.351 14.0719 236.963 15.8486 236.963 18.1099C236.963 20.3711 236.351 22.1478 235.129 23.44C233.929 24.7321 232.175 25.3782 229.868 25.3782H224.711V35H220.834ZM224.711 22.1594H229.279C231.679 22.1594 232.879 21.0518 232.879 18.8367V17.3484C232.879 15.1564 231.679 14.0604 229.279 14.0604H224.711V22.1594ZM248.406 10.8416V25.6897C248.406 26.6818 248.429 27.5817 248.475 28.3893C248.544 29.1969 248.717 29.8891 248.994 30.466C249.271 31.0197 249.686 31.4466 250.24 31.7466C250.794 32.0465 251.555 32.1965 252.524 32.1965C253.493 32.1965 254.255 32.0465 254.809 31.7466C255.362 31.4466 255.778 31.0197 256.055 30.466C256.332 29.8891 256.493 29.1969 256.539 28.3893C256.608 27.5817 256.643 26.6818 256.643 25.6897V10.8416H260.519V24.9975C260.519 26.728 260.416 28.2509 260.208 29.5661C260.023 30.8582 259.643 31.9427 259.066 32.8195C258.489 33.6732 257.67 34.3193 256.608 34.7577C255.57 35.1961 254.209 35.4153 252.524 35.4153C250.84 35.4153 249.467 35.1961 248.406 34.7577C247.367 34.3193 246.56 33.6732 245.983 32.8195C245.406 31.9427 245.014 30.8582 244.806 29.5661C244.621 28.2509 244.529 26.728 244.529 24.9975V10.8416H248.406ZM278.677 14.095V35H274.8V14.095H267.22V10.8416H286.256V14.095H278.677ZM306.559 35L304.725 28.5624H297.041L295.207 35H291.261L298.322 10.8416H303.618L310.678 35H306.559ZM301.022 14.7526H300.745L297.768 25.3436H303.998L301.022 14.7526ZM327.105 14.095V35H323.228V14.095H315.649V10.8416H334.685V14.095H327.105ZM341.766 35V32.0581H347.443V13.7835H341.766V10.8416H356.995V13.7835H351.319V32.0581H356.995V35H341.766ZM373.595 35.4153C372.072 35.4153 370.745 35.1384 369.615 34.5847C368.507 34.0078 367.584 33.1887 366.846 32.1273C366.13 31.0659 365.6 29.7622 365.254 28.2163C364.908 26.6703 364.734 24.9052 364.734 22.9208C364.734 20.9595 364.908 19.2059 365.254 17.6599C365.6 16.0909 366.13 14.7757 366.846 13.7143C367.584 12.6529 368.507 11.8453 369.615 11.2915C370.745 10.7147 372.072 10.4263 373.595 10.4263C375.118 10.4263 376.433 10.7147 377.54 11.2915C378.671 11.8453 379.594 12.6529 380.309 13.7143C381.048 14.7757 381.59 16.0909 381.936 17.6599C382.282 19.2059 382.455 20.9595 382.455 22.9208C382.455 24.9052 382.282 26.6703 381.936 28.2163C381.59 29.7622 381.048 31.0659 380.309 32.1273C379.594 33.1887 378.671 34.0078 377.54 34.5847C376.433 35.1384 375.118 35.4153 373.595 35.4153ZM373.595 32.1965C375.325 32.1965 376.548 31.5504 377.264 30.2583C377.979 28.9431 378.337 27.1664 378.337 24.9282V20.8788C378.337 18.6637 377.979 16.91 377.264 15.6179C376.548 14.3027 375.325 13.6451 373.595 13.6451C371.864 13.6451 370.641 14.3027 369.926 15.6179C369.211 16.91 368.853 18.6637 368.853 20.8788V24.9628C368.853 27.1779 369.211 28.9431 369.926 30.2583C370.641 31.5504 371.864 32.1965 373.595 32.1965ZM393.621 16.414H393.31V35H389.918V10.8416H394.902L401.997 29.4276H402.308V10.8416H405.7V35H400.716L393.621 16.414ZM414.478 10.8416H421.677C424.769 10.8416 427.053 11.8684 428.53 13.922C430.03 15.9755 430.78 18.9752 430.78 22.9208C430.78 26.8664 430.03 29.8661 428.53 31.9196C427.053 33.9732 424.769 35 421.677 35H414.478V10.8416ZM421.435 31.8158C423.211 31.8158 424.527 31.2274 425.38 30.0506C426.257 28.8508 426.696 27.1433 426.696 24.9282V20.9134C426.696 18.6983 426.257 17.0023 425.38 15.8256C424.527 14.6257 423.211 14.0258 421.435 14.0258H418.32V31.8158H421.435ZM438.83 35V10.8416H453.955V14.095H442.707V21.121H453.54V24.3745H442.707V31.7466H453.955V35H438.83ZM470.244 35.4153C468.144 35.4153 466.379 35.0461 464.948 34.3078C463.518 33.5694 462.341 32.5888 461.418 31.3659L463.91 28.9777C464.833 30.0853 465.813 30.9044 466.852 31.4351C467.89 31.9427 469.067 32.1965 470.382 32.1965C471.905 32.1965 473.07 31.8504 473.878 31.1582C474.708 30.466 475.124 29.4738 475.124 28.1817C475.124 27.1433 474.824 26.3473 474.224 25.7935C473.624 25.2167 472.597 24.8013 471.143 24.5475L468.513 24.1322C467.359 23.9476 466.39 23.6476 465.606 23.2323C464.821 22.7939 464.187 22.2863 463.702 21.7094C463.218 21.1095 462.86 20.4519 462.629 19.7366C462.422 18.9982 462.318 18.2253 462.318 17.4177C462.318 15.1333 463.056 13.4028 464.533 12.226C466.01 11.0262 468.04 10.4263 470.624 10.4263C472.539 10.4263 474.166 10.7378 475.504 11.3608C476.866 11.9607 477.962 12.8144 478.792 13.922L476.37 16.3447C475.701 15.5371 474.905 14.8911 473.982 14.4065C473.082 13.8989 471.963 13.6451 470.624 13.6451C469.194 13.6451 468.098 13.9566 467.336 14.5796C466.598 15.1795 466.229 16.0678 466.229 17.2446C466.229 18.2368 466.517 19.0213 467.094 19.5982C467.694 20.1519 468.744 20.5557 470.244 20.8095L472.805 21.2595C474.974 21.6517 476.554 22.4478 477.546 23.6476C478.539 24.8244 479.035 26.2665 479.035 27.974C479.035 29.0815 478.839 30.0968 478.446 31.0197C478.077 31.9427 477.512 32.7272 476.75 33.3733C476.012 34.0194 475.089 34.527 473.982 34.8962C472.897 35.2423 471.651 35.4153 470.244 35.4153ZM487.051 35V32.0581H492.727V13.7835H487.051V10.8416H502.28V13.7835H496.604V32.0581H502.28V35H487.051ZM523.379 31.6774H523.137C522.929 32.1619 522.675 32.6349 522.375 33.0964C522.098 33.5348 521.741 33.9271 521.302 34.2732C520.887 34.6193 520.379 34.8962 519.779 35.1038C519.179 35.3115 518.487 35.4153 517.703 35.4153C515.188 35.4153 513.296 34.3424 512.027 32.1965C510.757 30.0506 510.123 27.0164 510.123 23.0939C510.123 18.9867 510.85 15.8486 512.303 13.6797C513.757 11.5107 515.984 10.4263 518.983 10.4263C520.16 10.4263 521.187 10.5878 522.064 10.9108C522.964 11.2339 523.725 11.6723 524.348 12.226C524.971 12.7567 525.49 13.3913 525.905 14.1296C526.321 14.8449 526.655 15.6064 526.909 16.414L523.414 17.5907C523.229 17.06 523.021 16.5639 522.791 16.1025C522.56 15.6179 522.271 15.191 521.925 14.8218C521.602 14.4527 521.198 14.1642 520.714 13.9566C520.252 13.7489 519.687 13.6451 519.018 13.6451C517.334 13.6451 516.111 14.3027 515.349 15.6179C514.611 16.91 514.242 18.6637 514.242 20.8788V24.7206C514.242 25.8281 514.322 26.8434 514.484 27.7663C514.645 28.6893 514.911 29.4853 515.28 30.1545C515.672 30.8005 516.168 31.3082 516.768 31.6774C517.391 32.0465 518.141 32.2311 519.018 32.2311C520.425 32.2311 521.498 31.8158 522.237 30.9851C522.998 30.1314 523.379 29.0469 523.379 27.7317V25.5512H518.706V22.6439H526.909V35H523.379V31.6774ZM538.906 16.414H538.594V35H535.202V10.8416H540.186L547.282 29.4276H547.593V10.8416H550.985V35H546.001L538.906 16.414Z" fill="white"/>
<rect x="25.0552" y="5.56738" width="115.533" height="33.407" fill="white"/>
<rect x="171.211" y="5.56738" width="235.241" height="33.407" fill="white"/>
<rect x="437.075" y="5.56738" width="114.141" height="33.407" fill="white"/>
</svg>
