<svg width="340" height="33" viewBox="0 0 340 33" fill="none" xmlns="http://www.w3.org/2000/svg">
<rect width="339" height="33" fill="#F5F5F5"/>
<path d="M15.4536 5H96.3571V27.7257H15.4536V5Z" fill="#0039FF"/>
<path d="M117.265 5H283.617V27.7257H117.265V5Z" fill="#0039FF"/>
<path d="M303.615 5H339.067V27.7257H303.615V5Z" fill="#0039FF"/>
<path d="M94.7121 22.7392C93.3642 25.7787 90.219 27.1002 87.5231 26.8623C83.2679 26.4923 79.4355 22.9507 79.4355 16.1053C79.4355 9.33918 83.4793 5.6654 87.5231 5.45396C89.8226 5.32181 92.4656 6.27329 94.1042 8.41413L92.7563 9.89421C91.6727 8.54627 89.7697 7.03976 87.2853 7.35692C84.2194 7.75337 81.5499 10.555 81.5499 16.1317C81.5499 21.7613 84.5894 24.6686 87.4174 24.9593C90.4569 25.2765 92.0427 23.5057 92.9942 21.7613L94.7121 22.7392Z" fill="#0039FF"/>
<path d="M76.7537 5.85059V7.75355H72.5249V24.5631H76.7537V26.466H66.1816V24.5631H70.4104V7.75355H66.1816V5.85059H76.7537Z" fill="#0039FF"/>
<path d="M50.0576 5.85059H64.8585V7.75355H58.5152V26.466H56.4008V7.75355H50.0576V5.85059Z" fill="#0039FF"/>
<path d="M34.8633 5.85059H48.6069V7.75355H36.9777V14.7839H46.0432V16.6869H36.9777V24.5631H48.6069V26.466H34.8633V5.85059Z" fill="#0039FF"/>
<path d="M23.8894 26.889C18.7884 26.889 15.8018 21.7615 15.8018 16.1055C15.8018 10.5287 18.8412 5.42773 23.8894 5.42773C28.9375 5.42773 31.977 10.5287 31.977 16.1055C31.977 21.7615 28.9904 26.889 23.8894 26.889ZM23.8894 24.986C27.6424 24.986 29.8626 20.3079 29.8626 16.1319C29.8626 12.0088 27.5896 7.3307 23.8894 7.3307C20.1363 7.3307 17.9162 12.0088 17.9162 16.1319C17.9162 20.3079 20.0834 24.986 23.8894 24.986Z" fill="#0039FF"/>
<path d="M7.21541 5.85059C10.5192 5.85059 13.1622 7.96499 13.1622 11.2423C13.1622 14.5196 10.5192 16.6869 7.21541 16.6869H2.11441V26.466H0V5.85059H7.21541ZM2.11441 14.7839H7.21541C9.32981 14.7839 11.0478 13.5682 11.0478 11.2687C11.0478 9.02219 9.32981 7.75355 7.21541 7.75355H2.11441V14.7839Z" fill="#0039FF"/>
<path d="M279.938 26.466L270.529 9.78867V26.4925H268.626V5.85059H270.529L279.938 22.528V5.85059H281.841V26.466H279.938Z" fill="#0039FF"/>
<path d="M257.653 26.889C252.552 26.889 249.565 21.7615 249.565 16.1055C249.565 10.5287 252.604 5.42773 257.653 5.42773C262.701 5.42773 265.74 10.5287 265.74 16.1055C265.74 21.7615 262.754 26.889 257.653 26.889ZM257.653 24.986C261.406 24.986 263.626 20.3079 263.626 16.1319C263.626 12.0088 261.353 7.3307 257.653 7.3307C253.899 7.3307 251.679 12.0088 251.679 16.1319C251.679 20.3079 253.847 24.986 257.653 24.986Z" fill="#0039FF"/>
<path d="M247.332 5.85059V7.75355H243.103V24.5631H247.332V26.466H236.76V24.5631H240.989V7.75355H236.76V5.85059H247.332Z" fill="#0039FF"/>
<path d="M220.636 5.85059H235.437V7.75355H229.093V26.466H226.979V7.75355H220.636V5.85059Z" fill="#0039FF"/>
<path d="M210.992 5.85059H213.107L219.714 26.466H217.6L215.644 20.3871H208.455L206.499 26.466H204.385L210.992 5.85059ZM209.036 18.537H215.063L212.049 9.15434L209.036 18.537Z" fill="#0039FF"/>
<path d="M188.657 5.85059H203.458V7.75355H197.114V26.466H195V7.75355H188.657V5.85059Z" fill="#0039FF"/>
<path d="M186.775 20.1493C186.775 23.4531 184.105 26.889 179.189 26.889C174.273 26.889 171.498 23.4531 171.498 20.1493V5.82422H173.612V20.1493C173.612 22.2637 175.225 24.986 179.163 24.986C183.048 24.986 184.66 22.2637 184.66 20.1493V5.85065H186.775V20.1493Z" fill="#0039FF"/>
<path d="M162.462 5.85059C165.766 5.85059 168.409 7.96499 168.409 11.2423C168.409 14.5196 165.766 16.6869 162.462 16.6869H157.361V26.466H155.247V5.85059H162.462ZM157.361 14.7839H162.462C164.577 14.7839 166.295 13.5682 166.295 11.2687C166.295 9.02219 164.577 7.75355 162.462 7.75355H157.361V14.7839Z" fill="#0039FF"/>
<path d="M136.582 5.85059H138.696L143.982 14.4404L149.189 5.85059H149.268H151.383V26.466H149.268V9.39222L143.982 17.9027L138.696 9.39222V26.466H136.582V5.85059Z" fill="#0039FF"/>
<path d="M125.476 26.889C120.375 26.889 117.389 21.7615 117.389 16.1055C117.389 10.5287 120.428 5.42773 125.476 5.42773C130.524 5.42773 133.564 10.5287 133.564 16.1055C133.564 21.7615 130.577 26.889 125.476 26.889ZM125.476 24.986C129.229 24.986 131.449 20.3079 131.449 16.1319C131.449 12.0088 129.176 7.3307 125.476 7.3307C121.723 7.3307 119.503 12.0088 119.503 16.1319C119.503 20.3079 121.67 24.986 125.476 24.986Z" fill="#0039FF"/>
<path d="M114.608 22.7397C113.26 25.7792 110.115 27.1007 107.419 26.8628C103.164 26.4928 99.3315 22.9512 99.3315 16.1058C99.3315 9.33967 103.375 5.66589 107.419 5.45445C109.719 5.3223 112.362 6.27378 114 8.41461L112.652 9.8947C111.569 8.54676 109.666 7.04025 107.181 7.35741C104.115 7.75386 101.446 10.5554 101.446 16.1322C101.446 21.7618 104.485 24.6691 107.313 24.9598C110.353 25.277 111.939 23.5062 112.89 21.7618L114.608 22.7397Z" fill="#0039FF"/>
<path d="M327.053 26.4665V17.7182L320.446 5.85107H322.825L328.111 15.9474L333.397 5.85107H335.775L329.168 17.7446V26.4665H327.053Z" fill="#0039FF"/>
<path d="M310.405 5.85107H312.52L319.127 26.4665H317.013L315.057 20.3876H307.868L305.912 26.4665H303.798L310.405 5.85107ZM308.45 18.5375H314.476L311.463 9.15483L308.45 18.5375Z" fill="#0039FF"/>
<path d="M287.943 5.85107H290.057C291.564 5.85107 292.7 5.85107 294.498 6.22109C298.726 7.09329 301.951 10.7142 301.951 16.1588C301.951 21.6827 298.726 25.4886 294.498 26.1758C292.542 26.493 291.564 26.4665 290.057 26.4665H287.943V5.85107ZM290.057 24.5636C291.141 24.5636 292.515 24.6693 294.207 24.2728C297.141 23.5856 299.836 20.4933 299.836 16.1852C299.836 11.93 297.59 8.83767 294.207 8.12406C292.04 7.67475 291.141 7.75404 290.057 7.75404V24.5636Z" fill="#0039FF"/>
</svg>
