<svg width="891" height="532" viewBox="0 0 891 532" fill="none" xmlns="http://www.w3.org/2000/svg">
<path d="M63.4462 260.159L65.2114 250.504L40.9141 246.062L39.149 255.717L34.801 254.922L37.5014 240.151L45.8136 241.671L45.872 241.351C43.3965 240.194 41.6055 238.545 40.4991 236.404C39.3579 234.213 39.0561 231.647 39.5938 228.706L40.4355 224.102L45.5507 225.038L44.4168 231.24C43.8791 234.181 44.2952 236.724 45.6652 238.869C47.0429 240.971 49.1172 242.275 51.8879 242.782L66.1466 245.388L68.4845 232.6L72.8325 233.395L67.7942 260.954L63.4462 260.159ZM84.224 210.514C83.0552 212.641 81.6404 214.361 79.9796 215.673C78.3397 216.947 76.5212 217.827 74.5242 218.312C72.51 218.737 70.3952 218.762 68.1795 218.385C65.9259 217.987 63.6409 217.151 61.3244 215.878C58.9699 214.584 57.0207 213.092 55.4767 211.403C53.9536 209.676 52.851 207.858 52.1689 205.951C51.4488 204.022 51.1768 202.043 51.3527 200.013C51.5495 197.946 52.2011 195.906 53.3073 193.893C54.3926 191.918 55.7344 190.332 57.3325 189.133C58.9515 187.897 60.7197 187.064 62.637 186.634C64.5164 186.184 66.4965 186.135 68.5773 186.487C70.6581 186.84 72.7429 187.59 74.8315 188.738L76.9961 189.928L65.0365 211.688L66.4037 212.439C67.6948 213.149 69.0058 213.597 70.3367 213.785C71.6676 213.972 72.9405 213.906 74.1554 213.584C75.3912 213.225 76.5396 212.62 77.6006 211.769C78.6445 210.86 79.5421 209.721 80.2935 208.354C81.3789 206.38 81.8624 204.42 81.7441 202.476C81.6258 200.532 80.9779 198.742 79.8004 197.106L83.9261 194.997C85.4208 196.956 86.2501 199.316 86.4142 202.076C86.5612 204.778 85.8311 207.59 84.224 210.514ZM57.0668 195.959C56.3781 197.213 55.9693 198.496 55.8406 199.81C55.7119 201.124 55.8272 202.398 56.1863 203.634C56.5664 204.832 57.1818 205.961 58.0327 207.022C58.8664 208.025 59.9288 208.88 61.22 209.59L61.6187 209.809L70.8859 192.948L70.2593 192.604C68.9681 191.894 67.6761 191.456 66.3831 191.289C65.1111 191.085 63.8971 191.134 62.741 191.438C61.5678 191.684 60.4906 192.204 59.5093 193C58.5489 193.758 57.7348 194.744 57.0668 195.959ZM92.9855 186.74L100.657 178.43L82.5069 161.676L74.3948 170.465L71.1469 167.467L79.2591 158.678L74.1962 154.005C72.5405 152.477 71.584 150.798 71.3268 148.968C71.099 147.106 71.8521 145.236 73.5862 143.358L81.2134 135.095L84.4613 138.093L75.3351 147.98L82.7861 154.857L91.9123 144.97L95.1601 147.968L86.034 157.855L104.184 174.609L112.296 165.82L115.544 168.818L96.2333 189.738L92.9855 186.74ZM120.419 158.447L129.724 151.355L105.924 120.131L96.6193 127.223L93.9399 123.708L107.381 113.463L133.859 148.202L143.165 141.11L145.844 144.625L123.098 161.962L120.419 158.447ZM167.734 132.183C165.629 133.391 163.527 134.125 161.426 134.382C159.362 134.618 157.352 134.424 155.394 133.799C153.452 133.116 151.633 132.037 149.936 130.563C148.218 129.051 146.701 127.149 145.384 124.857C144.046 122.527 143.156 120.24 142.716 117.994C142.313 115.727 142.316 113.601 142.725 111.617C143.113 109.595 143.91 107.763 145.115 106.121C146.358 104.457 147.976 103.053 149.967 101.909C151.921 100.787 153.892 100.129 155.88 99.9365C157.906 99.7223 159.85 99.9301 161.711 100.56C163.55 101.152 165.267 102.14 166.861 103.523C168.456 104.906 169.846 106.631 171.033 108.698L172.264 110.839L150.734 123.208L151.511 124.561C152.245 125.838 153.131 126.903 154.171 127.755C155.21 128.608 156.332 129.212 157.537 129.57C158.779 129.905 160.075 129.986 161.423 129.811C162.788 129.576 164.147 129.071 165.499 128.294C167.453 127.171 168.885 125.749 169.795 124.027C170.705 122.305 171.082 120.439 170.927 118.429L175.547 118.773C175.806 121.224 175.287 123.67 173.992 126.113C172.713 128.497 170.627 130.52 167.734 132.183ZM152.104 105.629C150.864 106.341 149.848 107.225 149.055 108.281C148.262 109.336 147.697 110.485 147.361 111.727C147.063 112.948 147.002 114.233 147.177 115.581C147.368 116.871 147.83 118.154 148.564 119.432L148.791 119.826L165.474 110.242L165.118 109.622C164.384 108.345 163.508 107.299 162.49 106.484C161.51 105.648 160.447 105.059 159.302 104.718C158.172 104.317 156.981 104.202 155.729 104.371C154.515 104.519 153.307 104.938 152.104 105.629ZM202.907 114.417C200.69 115.404 198.543 115.909 196.467 115.931C194.412 115.897 192.482 115.451 190.678 114.594C188.874 113.737 187.215 112.459 185.7 110.762C184.226 109.046 182.951 106.981 181.877 104.566C180.802 102.151 180.141 99.8128 179.894 97.5514C179.646 95.29 179.808 93.2022 180.38 91.2881C180.933 89.3343 181.894 87.6026 183.261 86.0929C184.629 84.5831 186.402 83.3439 188.579 82.375C191.549 81.0538 194.254 80.6325 196.696 81.1111C199.139 81.5896 201.262 82.6843 203.067 84.3951L200.164 88.1054C198.905 86.7683 197.429 85.955 195.735 85.6653C194.08 85.358 192.303 85.6271 190.403 86.4727C189.017 87.0892 187.875 87.8817 186.978 88.85C186.103 89.7611 185.474 90.7998 185.092 91.9659C184.71 93.132 184.576 94.3772 184.691 95.7015C184.846 97.0082 185.222 98.3346 185.821 99.6807L188.146 104.907C188.745 106.253 189.478 107.421 190.346 108.41C191.252 109.382 192.267 110.117 193.389 110.613C194.511 111.11 195.732 111.349 197.052 111.331C198.355 111.273 199.718 110.927 201.144 110.293C203.202 109.377 204.693 108.145 205.617 106.596C206.54 105.046 207.028 103.264 207.08 101.249L211.495 102.059C211.501 104.523 210.833 106.86 209.492 109.069C208.19 111.261 205.996 113.043 202.907 114.417ZM239.263 99.3537C236.847 100.191 234.832 100.132 233.217 99.1782C231.643 98.21 230.488 96.6613 229.75 94.5321L222.728 74.264L212.164 77.9239L210.717 73.7475L218.579 71.0238C219.643 70.655 220.31 70.1949 220.577 69.6436C220.872 69.0372 220.834 68.2017 220.465 67.1371L217.593 58.8456L222.322 57.2071L226.195 68.3853L240.628 63.3848L242.075 67.5613L227.642 72.5617L235.728 95.9008L250.161 90.9003L251.608 95.0768L239.263 99.3537ZM297.833 78.1969L307.463 76.2988L302.686 52.0651L293.057 53.9632L292.202 49.6267L306.933 46.7229L308.567 55.0133L308.886 54.9505C309.055 52.223 309.933 49.9521 311.518 48.1378C313.138 46.2727 315.415 45.051 318.349 44.4727L322.94 43.5676L323.946 48.6695L317.76 49.8888C314.826 50.4671 312.613 51.7867 311.12 53.8476C309.67 55.9002 309.217 58.3083 309.762 61.0718L312.565 75.2931L325.319 72.779L326.174 77.1155L298.688 82.5335L297.833 78.1969ZM352.019 74.0591C349.614 74.3828 347.391 74.2667 345.348 73.7108C343.349 73.1492 341.561 72.2093 339.984 70.8912C338.445 69.5243 337.169 67.8378 336.155 65.8317C335.136 63.7827 334.45 61.4483 334.098 58.8286C333.739 56.1659 333.781 53.7118 334.222 51.4663C334.706 49.2149 335.512 47.2481 336.641 45.5658C337.764 43.8405 339.195 42.4456 340.931 41.3811C342.711 40.3108 344.739 39.6225 347.015 39.3161C349.248 39.0155 351.322 39.1518 353.235 39.725C355.192 40.2925 356.913 41.2196 358.398 42.5063C359.877 43.7501 361.093 45.3135 362.046 47.1966C362.999 49.0796 363.634 51.2021 363.952 53.5642L364.282 56.0121L339.674 59.3242L339.882 60.8703C340.078 62.3305 340.497 63.6515 341.137 64.8333C341.777 66.0152 342.587 66.9992 343.567 67.7855C344.59 68.566 345.759 69.1301 347.074 69.4778C348.426 69.7768 349.875 69.8223 351.421 69.6142C353.654 69.3136 355.518 68.5381 357.011 67.2878C358.504 66.0374 359.559 64.4525 360.175 62.5332L364.322 64.5984C363.635 66.9645 362.23 69.0338 360.108 70.8061C358.022 72.5297 355.326 73.614 352.019 74.0591ZM347.588 43.5678C346.17 43.7585 344.895 44.1925 343.762 44.8697C342.629 45.5469 341.672 46.3971 340.892 47.4204C340.154 48.4379 339.611 49.604 339.264 50.9188C338.953 52.1849 338.896 53.548 339.093 55.0082L339.153 55.4591L358.221 52.8926L358.126 52.184C357.93 50.7238 357.514 49.4243 356.88 48.2854C356.289 47.1407 355.527 46.1938 354.596 45.4447C353.701 44.6469 352.642 44.0898 351.419 43.7735C350.239 43.4514 348.962 43.3828 347.588 43.5678ZM375.67 65.9457L386.947 65.0771L385.05 40.4501L373.125 41.3686L372.786 36.9617L384.71 36.0431L384.181 29.1735C384.008 26.9268 384.45 25.0456 385.507 23.53C386.607 22.011 388.431 21.1534 390.98 20.957L402.192 20.0934L402.532 24.5003L389.116 25.5337L389.895 35.6437L403.31 34.6104L403.65 39.0173L390.235 40.0507L392.132 64.6777L404.056 63.7592L404.396 68.1661L376.01 70.3527L375.67 65.9457ZM414.584 63.2382L426.281 62.975L425.398 23.7249L413.701 23.9882L413.601 19.5693L430.497 19.189L431.48 62.8579L443.177 62.5947L443.276 67.0136L414.683 67.6571L414.584 63.2382ZM468.496 68.2982C466.07 68.2231 463.895 67.744 461.972 66.8607C460.092 65.9788 458.482 64.7584 457.143 63.1996C455.848 61.5988 454.866 59.7258 454.195 57.5807C453.526 55.3923 453.232 52.977 453.314 50.335C453.397 47.6496 453.84 45.2355 454.644 43.0926C455.49 40.9511 456.608 39.1432 457.998 37.6688C459.389 36.1511 461.028 35.0096 462.916 34.2443C464.848 33.4804 466.961 33.1339 469.257 33.205C471.509 33.2747 473.532 33.7491 475.325 34.6284C477.162 35.509 478.708 36.7057 479.962 38.2185C481.217 39.6881 482.16 41.4297 482.791 43.4436C483.423 45.4574 483.701 47.6554 483.628 50.0376L483.551 52.5064L458.733 51.7383L458.685 53.2975C458.639 54.7702 458.835 56.1419 459.273 57.4127C459.71 58.6835 460.348 59.7871 461.186 60.7235C462.068 61.6612 463.128 62.4094 464.368 62.968C465.653 63.4846 467.075 63.7671 468.634 63.8154C470.887 63.8851 472.852 63.4256 474.53 62.4371C476.208 61.4485 477.508 60.0581 478.431 58.2658L482.183 60.9832C481.117 63.2046 479.392 65.0154 477.008 66.4157C474.668 67.7739 471.831 68.4014 468.496 68.2982ZM469.124 37.4929C467.694 37.4487 466.365 37.6677 465.137 38.1499C463.908 38.6321 462.824 39.3139 461.887 40.1953C460.992 41.0781 460.266 42.1394 459.707 43.3794C459.193 44.5774 458.913 45.9127 458.868 47.3854L458.854 47.8402L478.085 48.4354L478.107 47.7207C478.152 46.2481 477.956 44.898 477.517 43.6705C477.121 42.4443 476.525 41.3854 475.729 40.4937C474.978 39.56 474.025 38.8368 472.87 38.3242C471.758 37.8129 470.51 37.5358 469.124 37.4929ZM507.922 70.6502C505.505 70.4424 503.381 69.8466 501.552 68.863C499.77 67.84 498.296 66.5172 497.131 64.8948C495.965 63.2724 495.13 61.3521 494.625 59.134C494.163 56.9196 494.045 54.4956 494.271 51.862C494.498 49.2284 495.049 46.8619 495.925 44.7626C496.802 42.6633 497.952 40.9137 499.378 39.514C500.806 38.071 502.484 37.0192 504.411 36.3585C506.338 35.6978 508.489 35.4695 510.864 35.6736C514.102 35.9519 516.674 36.8907 518.581 38.4899C520.488 40.089 521.817 42.0735 522.571 44.4434L518.237 46.289C517.781 44.5101 516.881 43.0845 515.538 42.0122C514.238 40.9436 512.552 40.3202 510.48 40.1421C508.968 40.0122 507.586 40.1543 506.333 40.5685C505.126 40.9432 504.074 41.5487 503.176 42.3848C502.277 43.221 501.559 44.2465 501.019 45.4614C500.523 46.6801 500.212 48.0234 500.086 49.4913L499.596 55.1903C499.47 56.6582 499.547 58.0349 499.828 59.3203C500.152 60.6095 500.685 61.7426 501.428 62.7198C502.17 63.697 503.123 64.4966 504.288 65.1186C505.456 65.6974 506.817 66.0536 508.371 66.1872C510.616 66.3802 512.517 66.0217 514.074 65.1117C515.631 64.2017 516.919 62.8772 517.939 61.1381L521.413 63.9811C520.227 66.1408 518.513 67.8637 516.272 69.1497C514.073 70.4395 511.29 70.9397 507.922 70.6502ZM547.131 74.4498C544.6 74.0855 542.836 73.1093 541.839 71.521C540.884 69.9389 540.568 68.0327 540.889 65.8023L543.945 44.5711L532.879 42.9784L533.508 38.6035L541.743 39.7888C542.859 39.9493 543.662 39.8459 544.152 39.4788C544.692 39.0749 545.042 38.3153 545.203 37.2001L546.453 28.5147L551.407 29.2277L549.721 40.937L564.84 43.1131L564.211 47.488L549.092 45.3119L545.573 69.76L560.692 71.9361L560.062 76.311L547.131 74.4498ZM608.955 81.976L618.412 84.603L625.023 60.8042L615.566 58.1772L616.749 53.9184L631.216 57.9372L628.955 66.0789L629.268 66.1659C630.643 63.8046 632.447 62.1693 634.678 61.2601C636.963 60.3207 639.546 60.2511 642.427 61.0514L646.936 62.304L645.544 67.3143L639.469 65.6267C636.589 64.8264 634.018 65.012 631.759 66.1834C629.542 67.3663 628.056 69.3148 627.302 72.0287L623.422 85.9948L635.948 89.4743L634.765 93.733L607.772 86.2348L608.955 81.976ZM659.124 102.873C656.841 102.049 654.922 100.92 653.367 99.4836C651.853 98.0622 650.701 96.4029 649.911 94.5057C649.177 92.5825 648.823 90.4972 648.851 88.2499C648.893 85.9618 649.362 83.5745 650.259 81.0879C651.17 78.5606 652.34 76.4029 653.768 74.6146C655.237 72.8411 656.861 71.4689 658.639 70.4979C660.432 69.4862 662.344 68.9092 664.376 68.7668C666.449 68.6392 668.566 68.965 670.726 69.7442C672.846 70.5087 674.622 71.5869 676.055 72.9789C677.529 74.3856 678.627 76.0024 679.35 77.8294C680.088 79.6156 680.444 81.5639 680.42 83.6743C680.396 85.7846 679.98 87.9607 679.171 90.2027L678.333 92.5262L654.976 84.1021L654.447 85.5696C653.947 86.9555 653.708 88.3204 653.73 89.6643C653.752 91.0081 654.016 92.2551 654.523 93.4052C655.07 94.5699 655.847 95.6101 656.852 96.5256C657.914 97.415 659.178 98.1244 660.645 98.6536C662.765 99.4181 664.776 99.5905 666.678 99.1709C668.58 98.7512 670.247 97.8324 671.68 96.4144L674.405 100.161C672.703 101.943 670.501 103.13 667.8 103.722C665.155 104.288 662.263 104.005 659.124 102.873ZM669.271 73.7797C667.926 73.2946 666.594 73.0908 665.277 73.1683C663.959 73.2458 662.717 73.5582 661.553 74.1055C660.429 74.6675 659.409 75.4513 658.493 76.457C657.633 77.4367 656.953 78.6195 656.454 80.0054L656.299 80.4334L674.398 86.961L674.641 86.2884C675.141 84.9025 675.372 83.5579 675.335 82.2549C675.339 80.9665 675.101 79.775 674.621 78.6804C674.196 77.5597 673.514 76.5767 672.575 75.7314C671.677 74.9007 670.575 74.2502 669.271 73.7797ZM683.899 106.796L694.165 111.543L704.531 89.1228L693.675 84.1036L695.53 80.0917L706.386 85.1109L709.277 78.857C710.223 76.8117 711.527 75.3855 713.189 74.5786C714.89 73.7898 716.902 73.9318 719.222 75.0048L729.429 79.7239L727.574 83.7359L715.361 78.0893L711.106 87.2931L723.319 92.9397L721.464 96.9517L709.251 91.3051L698.885 113.725L709.741 118.744L707.886 122.756L682.045 110.808L683.899 106.796ZM719.242 123.774L729.279 129.786L749.454 96.1065L739.417 90.0942L741.688 86.3024L756.186 94.9868L733.74 132.459L743.777 138.471L741.506 142.263L716.971 127.566L719.242 123.774ZM761.117 158.071C759.223 156.554 757.772 154.865 756.764 153.004C755.79 151.17 755.236 149.227 755.101 147.177C755.028 145.119 755.367 143.032 756.119 140.914C756.898 138.762 758.113 136.654 759.765 134.591C761.444 132.493 763.248 130.829 765.178 129.598C767.141 128.394 769.12 127.62 771.117 127.276C773.141 126.897 775.137 126.969 777.106 127.491C779.109 128.04 781.007 129.032 782.8 130.467C784.559 131.875 785.892 133.47 786.798 135.25C787.738 137.057 788.255 138.942 788.349 140.905C788.47 142.833 788.178 144.793 787.474 146.782C786.769 148.771 785.672 150.696 784.183 152.557L782.639 154.485L763.256 138.967L762.281 140.185C761.36 141.335 760.693 142.55 760.28 143.829C759.866 145.107 759.714 146.373 759.822 147.625C759.963 148.904 760.362 150.139 761.018 151.331C761.735 152.515 762.702 153.595 763.92 154.57C765.679 155.978 767.527 156.791 769.462 157.008C771.397 157.225 773.272 156.894 775.086 156.015L776.455 160.442C774.269 161.578 771.802 161.99 769.054 161.678C766.368 161.359 763.722 160.156 761.117 158.071ZM780.119 133.816C779.002 132.922 777.808 132.299 776.536 131.947C775.264 131.595 773.988 131.489 772.709 131.631C771.464 131.8 770.246 132.212 769.054 132.868C767.924 133.517 766.898 134.417 765.977 135.567L765.693 135.923L780.713 147.947L781.16 147.389C782.08 146.239 782.734 145.041 783.12 143.796C783.54 142.578 783.7 141.373 783.598 140.182C783.558 138.984 783.23 137.834 782.615 136.73C782.033 135.654 781.201 134.683 780.119 133.816ZM789.24 185.393C787.654 183.557 786.549 181.648 785.926 179.667C785.364 177.691 785.231 175.715 785.529 173.739C785.827 171.764 786.569 169.806 787.756 167.865C788.97 165.957 790.578 164.139 792.578 162.411C794.579 160.683 796.625 159.373 798.718 158.481C800.811 157.589 802.856 157.14 804.854 157.132C806.884 157.096 808.82 157.514 810.661 158.386C812.502 159.258 814.202 160.595 815.76 162.399C817.884 164.858 819.071 167.326 819.32 169.802C819.57 172.278 819.137 174.628 818.022 176.85L813.63 175.147C814.545 173.555 814.896 171.906 814.683 170.201C814.498 168.528 813.725 166.905 812.366 165.331C811.374 164.183 810.285 163.32 809.098 162.742C807.973 162.168 806.797 161.867 805.57 161.839C804.343 161.811 803.112 162.043 801.878 162.537C800.672 163.063 799.512 163.808 798.397 164.771L794.068 168.51C792.953 169.474 792.048 170.513 791.352 171.63C790.684 172.78 790.275 173.963 790.125 175.181C789.974 176.399 790.099 177.637 790.498 178.895C790.931 180.125 791.657 181.33 792.677 182.511C794.15 184.216 795.761 185.286 797.512 185.721C799.262 186.156 801.109 186.107 803.053 185.573L803.556 190.034C801.199 190.753 798.77 190.79 796.267 190.146C793.792 189.536 791.45 187.951 789.24 185.393ZM811.071 217.632C809.942 215.338 809.752 213.331 810.499 211.611C811.266 209.93 812.66 208.592 814.682 207.597L833.929 198.129L828.994 188.097L832.96 186.146L836.633 193.611C837.13 194.622 837.669 195.226 838.249 195.424C838.887 195.641 839.712 195.501 840.723 195.004L848.596 191.13L850.806 195.621L840.191 200.843L846.934 214.55L842.968 216.501L836.225 202.795L814.062 213.698L820.804 227.404L816.838 229.355L811.071 217.632ZM826.834 277.871L824.548 287.416L848.57 293.168L850.855 283.623L855.154 284.652L851.657 299.254L843.439 297.286L843.364 297.602C845.773 298.892 847.472 300.636 848.461 302.833C849.482 305.083 849.644 307.661 848.948 310.569L847.858 315.121L842.801 313.91L844.269 307.778C844.965 304.87 844.688 302.308 843.436 300.093C842.174 297.919 840.173 296.504 837.434 295.848L823.338 292.473L820.31 305.116L816.012 304.087L822.536 276.842L826.834 277.871ZM803.576 326.444C804.836 324.37 806.324 322.713 808.041 321.474C809.734 320.272 811.589 319.472 813.605 319.075C815.636 318.737 817.75 318.804 819.947 319.277C822.181 319.773 824.428 320.707 826.687 322.079C828.983 323.474 830.866 325.049 832.335 326.804C833.782 328.595 834.804 330.459 835.403 332.394C836.039 334.352 836.225 336.341 835.961 338.361C835.675 340.418 834.935 342.428 833.743 344.391C832.573 346.317 831.163 347.844 829.515 348.972C827.843 350.137 826.041 350.892 824.107 351.238C822.209 351.607 820.229 351.57 818.166 351.127C816.102 350.685 814.052 349.845 812.015 348.607L809.904 347.325L822.797 326.104L821.463 325.294C820.204 324.529 818.914 324.024 817.592 323.779C816.271 323.534 814.996 323.545 813.769 323.814C812.518 324.119 811.345 324.673 810.248 325.477C809.166 326.341 808.219 327.439 807.409 328.772C806.239 330.698 805.671 332.635 805.705 334.582C805.739 336.529 806.308 338.346 807.414 340.032L803.201 341.959C801.792 339.937 801.066 337.544 801.022 334.779C800.992 332.074 801.844 329.295 803.576 326.444ZM830.076 342.164C830.819 340.941 831.283 339.677 831.468 338.37C831.654 337.063 831.594 335.784 831.289 334.534C830.961 333.321 830.395 332.166 829.591 331.069C828.802 330.032 827.778 329.131 826.519 328.365L826.13 328.129L816.14 344.572L816.751 344.944C818.01 345.709 819.282 346.202 820.566 346.425C821.828 346.685 823.043 346.688 824.211 346.434C825.394 346.24 826.493 345.767 827.508 345.014C828.5 344.299 829.356 343.349 830.076 342.164ZM793.868 349.836L785.941 357.902L803.559 375.215L811.941 366.684L815.094 369.782L806.711 378.313L811.625 383.142C813.233 384.721 814.136 386.429 814.336 388.266C814.506 390.134 813.694 391.98 811.902 393.803L804.021 401.824L800.868 398.726L810.299 389.129L803.066 382.022L793.636 391.619L790.483 388.521L799.914 378.924L782.296 361.611L773.914 370.142L770.761 367.044L790.716 346.738L793.868 349.836ZM765.616 377.277L756.152 384.156L779.236 415.913L788.7 409.033L791.299 412.609L777.629 422.545L751.946 387.214L742.482 394.093L739.883 390.518L763.017 373.702L765.616 377.277ZM717.758 402.55C719.883 401.379 721.998 400.683 724.104 400.463C726.171 400.264 728.178 400.494 730.124 401.153C732.054 401.871 733.853 402.982 735.523 404.487C737.214 406.029 738.697 407.957 739.973 410.273C741.269 412.626 742.118 414.929 742.518 417.182C742.881 419.456 742.84 421.581 742.395 423.558C741.971 425.573 741.142 427.39 739.908 429.011C738.635 430.652 736.993 432.027 734.981 433.135C733.008 434.222 731.025 434.845 729.034 435.002C727.005 435.18 725.065 434.938 723.216 434.275C721.387 433.65 719.688 432.631 718.119 431.22C716.55 429.809 715.19 428.06 714.04 425.972L712.848 423.809L734.595 411.826L733.842 410.46C733.131 409.169 732.263 408.089 731.239 407.218C730.215 406.347 729.104 405.723 727.906 405.344C726.67 404.986 725.376 404.883 724.025 405.034C722.656 405.244 721.288 405.725 719.922 406.478C717.949 407.565 716.492 408.962 715.551 410.667C714.611 412.373 714.2 414.232 714.32 416.244L709.706 415.818C709.492 413.363 710.053 410.926 711.392 408.506C712.713 406.146 714.835 404.16 717.758 402.55ZM732.911 429.378C734.164 428.688 735.196 427.822 736.007 426.781C736.819 425.74 737.404 424.601 737.762 423.365C738.082 422.15 738.166 420.867 738.015 419.515C737.847 418.222 737.407 416.931 736.696 415.64L736.477 415.242L719.626 424.527L719.971 425.153C720.682 426.444 721.539 427.505 722.542 428.338C723.507 429.191 724.559 429.799 725.699 430.161C726.821 430.581 728.009 430.718 729.264 430.571C730.481 430.445 731.697 430.047 732.911 429.378ZM682.298 419.755C684.529 418.8 686.683 418.326 688.76 418.333C690.814 418.396 692.737 418.87 694.529 419.753C696.321 420.635 697.961 421.936 699.451 423.655C700.902 425.392 702.147 427.475 703.187 429.905C704.227 432.335 704.854 434.682 705.069 436.947C705.285 439.212 705.093 441.297 704.495 443.203C703.913 445.148 702.928 446.866 701.539 448.356C700.15 449.847 698.36 451.06 696.169 451.998C693.181 453.277 690.469 453.66 688.034 453.146C685.599 452.633 683.492 451.508 681.712 449.772L684.667 446.104C685.906 447.458 687.371 448.293 689.061 448.606C690.711 448.937 692.492 448.693 694.404 447.875C695.798 447.278 696.951 446.502 697.862 445.547C698.75 444.648 699.393 443.619 699.792 442.458C700.191 441.297 700.342 440.054 700.246 438.728C700.11 437.42 699.753 436.088 699.173 434.734L696.922 429.475C696.343 428.12 695.626 426.942 694.773 425.94C693.88 424.956 692.876 424.207 691.761 423.694C690.646 423.182 689.429 422.925 688.109 422.924C686.806 422.964 685.437 423.29 684.003 423.904C681.932 424.791 680.423 426.002 679.478 427.538C678.533 429.073 678.02 430.848 677.939 432.863L673.535 431.99C673.565 429.526 674.266 427.199 675.638 425.009C676.971 422.836 679.191 421.085 682.298 419.755ZM645.745 434.341C648.171 433.533 650.186 433.616 651.789 434.59C653.35 435.577 654.487 437.14 655.198 439.278L661.972 459.63L672.58 456.1L673.976 460.293L666.082 462.921C665.013 463.277 664.341 463.729 664.067 464.277C663.765 464.879 663.792 465.715 664.148 466.784L666.919 475.11L662.17 476.691L658.434 465.466L643.941 470.29L642.545 466.096L657.039 461.272L649.238 437.836L634.745 442.66L633.349 438.466L645.745 434.341ZM586.949 454.859L577.301 456.659L581.831 480.94L591.479 479.14L592.29 483.485L577.53 486.239L575.98 477.932L575.661 477.992C575.464 480.718 574.563 482.979 572.959 484.777C571.32 486.626 569.031 487.824 566.092 488.373L561.492 489.231L560.538 484.119L566.736 482.963C569.675 482.415 571.902 481.118 573.416 479.072C574.887 477.034 575.364 474.631 574.847 471.862L572.189 457.613L559.41 459.997L558.599 455.652L586.139 450.514L586.949 454.859ZM532.726 458.472C535.134 458.169 537.357 458.305 539.394 458.879C541.388 459.458 543.168 460.414 544.733 461.746C546.26 463.127 547.521 464.824 548.517 466.839C549.518 468.897 550.183 471.238 550.512 473.86C550.847 476.526 550.784 478.98 550.323 481.221C549.819 483.468 548.995 485.428 547.851 487.1C546.713 488.815 545.27 490.198 543.524 491.247C541.735 492.301 539.701 492.971 537.422 493.258C535.186 493.538 533.114 493.384 531.206 492.793C529.254 492.209 527.542 491.266 526.068 489.967C524.6 488.71 523.398 487.136 522.462 485.244C521.526 483.353 520.909 481.225 520.612 478.86L520.304 476.409L544.941 473.315L544.747 471.768C544.563 470.306 544.156 468.981 543.527 467.794C542.897 466.606 542.096 465.615 541.123 464.82C540.106 464.03 538.942 463.456 537.631 463.097C536.281 462.786 534.833 462.727 533.285 462.922C531.049 463.202 529.179 463.961 527.675 465.198C526.171 466.435 525.102 468.011 524.469 469.925L520.34 467.823C521.048 465.463 522.471 463.406 524.609 461.653C526.71 459.948 529.416 458.887 532.726 458.472ZM536.887 489.001C538.306 488.823 539.585 488.4 540.724 487.733C541.863 487.066 542.828 486.224 543.617 485.208C544.364 484.197 544.917 483.036 545.276 481.724C545.598 480.461 545.667 479.098 545.483 477.636L545.427 477.185L526.337 479.582L526.426 480.292C526.609 481.753 527.013 483.057 527.637 484.201C528.218 485.351 528.972 486.305 529.896 487.062C530.784 487.868 531.838 488.434 533.058 488.761C534.235 489.094 535.512 489.174 536.887 489.001ZM509.007 466.377L497.723 467.151L499.413 491.793L511.345 490.975L511.647 495.384L499.715 496.203L500.187 503.076C500.341 505.325 499.883 507.202 498.814 508.709C497.701 510.218 495.87 511.061 493.319 511.235L482.1 512.005L481.798 507.595L495.221 506.675L494.528 496.558L481.104 497.479L480.802 493.069L494.225 492.149L492.535 467.507L480.604 468.325L480.301 463.915L508.704 461.967L509.007 466.377ZM470.072 468.758L458.373 468.923L458.929 508.179L470.627 508.014L470.69 512.433L453.792 512.672L453.173 468.997L441.474 469.162L441.412 464.743L470.009 464.338L470.072 468.758ZM416.204 463.248C418.628 463.343 420.799 463.84 422.715 464.74C424.588 465.637 426.187 466.871 427.513 468.441C428.794 470.053 429.761 471.934 430.414 474.084C431.065 476.278 431.338 478.696 431.235 481.337C431.129 484.022 430.666 486.432 429.844 488.568C428.98 490.702 427.847 492.501 426.445 493.964C425.041 495.47 423.392 496.597 421.498 497.347C419.561 498.095 417.444 498.423 415.149 498.333C412.898 498.245 410.879 497.753 409.093 496.859C407.263 495.963 405.728 494.754 404.487 493.23C403.244 491.75 402.315 490.001 401.701 487.982C401.086 485.963 400.826 483.763 400.919 481.381L401.017 478.913L425.827 479.889L425.889 478.33C425.947 476.858 425.762 475.484 425.335 474.21C424.908 472.935 424.28 471.826 423.449 470.883C422.576 469.938 421.521 469.181 420.286 468.612C419.006 468.085 417.586 467.79 416.027 467.729C413.776 467.641 411.807 468.084 410.121 469.058C408.434 470.033 407.123 471.412 406.185 473.197L402.455 470.448C403.54 468.236 405.28 466.439 407.676 465.059C410.027 463.72 412.87 463.117 416.204 463.248ZM415.318 494.047C416.747 494.103 418.078 493.895 419.311 493.423C420.543 492.951 421.632 492.278 422.577 491.405C423.479 490.529 424.214 489.474 424.783 488.239C425.307 487.045 425.598 485.712 425.656 484.24L425.674 483.786L406.449 483.03L406.421 483.744C406.363 485.216 406.548 486.568 406.977 487.799C407.362 489.028 407.949 490.092 408.738 490.991C409.482 491.931 410.429 492.662 411.579 493.184C412.686 493.705 413.932 493.992 415.318 494.047ZM376.799 460.554C379.215 460.784 381.333 461.398 383.153 462.398C384.926 463.437 386.388 464.773 387.539 466.406C388.69 468.039 389.508 469.966 389.993 472.189C390.435 474.407 390.531 476.832 390.281 479.464C390.032 482.095 389.459 484.457 388.564 486.548C387.669 488.639 386.503 490.379 385.065 491.766C383.623 493.196 381.936 494.233 380.003 494.876C378.07 495.519 375.918 495.729 373.545 495.503C370.31 495.196 367.746 494.234 365.853 492.618C363.961 491.002 362.649 489.006 361.917 486.629L366.267 484.822C366.707 486.605 367.594 488.039 368.928 489.123C370.218 490.203 371.898 490.842 373.969 491.038C375.479 491.182 376.862 491.052 378.119 490.649C379.329 490.285 380.387 489.689 381.293 488.861C382.198 488.033 382.926 487.014 383.477 485.804C383.984 484.59 384.307 483.249 384.446 481.782L384.987 476.088C385.126 474.621 385.061 473.244 384.792 471.956C384.479 470.664 383.956 469.526 383.222 468.542C382.489 467.559 381.543 466.751 380.384 466.118C379.221 465.529 377.863 465.161 376.31 465.013C374.067 464.8 372.163 465.142 370.598 466.038C369.033 466.934 367.733 468.247 366.698 469.976L363.249 467.103C364.454 464.954 366.183 463.246 368.437 461.98C370.647 460.71 373.434 460.235 376.799 460.554ZM337.628 456.391C340.155 456.779 341.909 457.772 342.891 459.37C343.83 460.961 344.129 462.87 343.786 465.098L340.527 486.298L351.577 487.997L350.905 492.366L342.682 491.102C341.569 490.93 340.765 491.026 340.271 491.389C339.727 491.787 339.37 492.543 339.198 493.657L337.865 502.33L332.918 501.57L334.716 489.877L319.618 487.556L320.29 483.187L335.387 485.508L339.141 461.095L324.043 458.774L324.715 454.405L337.628 456.391ZM275.874 448.254L266.448 445.519L259.565 469.24L268.991 471.976L267.759 476.221L253.339 472.036L255.694 463.921L255.382 463.83C253.979 466.176 252.157 467.79 249.915 468.674C247.62 469.587 245.036 469.627 242.165 468.794L237.67 467.489L239.119 462.495L245.175 464.253C248.046 465.086 250.618 464.93 252.891 463.784C255.122 462.627 256.63 460.696 257.415 457.991L261.454 444.07L248.969 440.447L250.201 436.202L277.106 444.009L275.874 448.254ZM225.958 426.762C228.231 427.615 230.135 428.768 231.672 430.224C233.168 431.664 234.299 433.338 235.065 435.245C235.775 437.177 236.102 439.267 236.046 441.514C235.975 443.801 235.476 446.182 234.547 448.657C233.604 451.173 232.407 453.316 230.957 455.086C229.466 456.841 227.825 458.192 226.035 459.141C224.229 460.13 222.309 460.683 220.276 460.799C218.201 460.901 216.089 460.548 213.938 459.742C211.828 458.951 210.066 457.85 208.651 456.44C207.195 455.015 206.118 453.384 205.418 451.548C204.703 449.753 204.37 447.8 204.421 445.69C204.472 443.581 204.916 441.41 205.752 439.178L206.62 436.866L229.869 445.584L230.417 444.123C230.934 442.744 231.19 441.382 231.185 440.038C231.18 438.694 230.931 437.444 230.439 436.287C229.907 435.116 229.143 434.066 228.149 433.138C227.1 432.235 225.844 431.51 224.384 430.962C222.274 430.171 220.265 429.973 218.358 430.369C216.451 430.764 214.773 431.662 213.322 433.062L210.644 429.281C212.369 427.521 214.585 426.362 217.293 425.804C219.946 425.271 222.834 425.591 225.958 426.762ZM215.445 455.725C216.784 456.227 218.112 456.448 219.431 456.387C220.75 456.326 221.995 456.029 223.166 455.497C224.297 454.949 225.327 454.178 226.255 453.184C227.127 452.215 227.822 451.041 228.34 449.662L228.499 449.236L210.484 442.48L210.233 443.149C209.716 444.529 209.468 445.87 209.488 447.174C209.468 448.462 209.691 449.657 210.157 450.757C210.568 451.883 211.238 452.875 212.166 453.732C213.053 454.574 214.146 455.238 215.445 455.725ZM201.231 422.509L191.039 417.607L180.332 439.866L191.11 445.05L189.194 449.033L178.416 443.849L175.43 450.058C174.453 452.089 173.128 453.495 171.453 454.276C169.74 455.039 167.732 454.866 165.428 453.758L155.294 448.884L157.21 444.901L169.335 450.733L173.73 441.595L161.605 435.763L163.521 431.78L175.646 437.612L186.353 415.353L175.574 410.169L177.49 406.185L203.147 418.526L201.231 422.509ZM166.148 404.971L156.226 398.772L135.424 432.068L145.347 438.267L143.005 442.016L128.672 433.062L151.816 396.017L141.893 389.818L144.235 386.069L168.49 401.223L166.148 404.971ZM125.01 369.804C126.866 371.368 128.274 373.092 129.235 374.978C130.163 376.837 130.668 378.792 130.752 380.846C130.774 382.904 130.383 384.983 129.578 387.081C128.746 389.213 127.478 391.289 125.775 393.311C124.044 395.366 122.199 396.984 120.239 398.167C118.247 399.321 116.248 400.046 114.244 400.34C112.211 400.668 110.217 400.546 108.262 399.975C106.273 399.376 104.401 398.337 102.644 396.858C100.921 395.406 99.6285 393.779 98.767 391.976C97.8724 390.146 97.4026 388.249 97.3577 386.285C97.2848 384.353 97.6253 382.402 98.3794 380.431C99.1334 378.46 100.278 376.563 101.814 374.74L103.405 372.851L122.395 388.849L123.4 387.656C124.349 386.529 125.046 385.331 125.491 384.063C125.936 382.795 126.121 381.534 126.044 380.279C125.935 378.997 125.567 377.752 124.941 376.545C124.254 375.343 123.313 374.239 122.12 373.234C120.397 371.782 118.571 370.924 116.641 370.658C114.712 370.393 112.83 370.677 110.994 371.51L109.736 367.051C111.95 365.97 114.427 365.62 117.166 366C119.843 366.387 122.458 367.654 125.01 369.804ZM105.408 393.577C106.502 394.498 107.68 395.151 108.943 395.535C110.206 395.919 111.479 396.056 112.761 395.946C114.01 395.809 115.238 395.427 116.446 394.801C117.592 394.18 118.64 393.306 119.589 392.179L119.882 391.831L105.168 379.435L104.707 379.982C103.758 381.109 103.074 382.29 102.657 383.525C102.207 384.732 102.017 385.932 102.089 387.126C102.099 388.324 102.398 389.482 102.986 390.601C103.54 391.691 104.348 392.683 105.408 393.577ZM97.7417 341.669C99.2634 343.56 100.301 345.506 100.856 347.507C101.349 349.502 101.413 351.481 101.046 353.445C100.68 355.409 99.8705 357.34 98.6176 359.239C97.3374 361.104 95.6678 362.865 93.6088 364.523C91.5497 366.18 89.4589 367.418 87.3364 368.237C85.2139 369.055 83.1543 369.434 81.1577 369.372C79.1273 369.338 77.2072 368.853 75.3975 367.918C73.5877 366.983 71.9355 365.587 70.441 363.73C68.403 361.199 67.3024 358.691 67.1391 356.208C66.9759 353.725 67.4899 351.392 68.6811 349.209L73.0112 351.064C72.0415 352.623 71.6336 354.259 71.7877 355.971C71.9147 357.649 72.6303 359.298 73.9346 360.918C74.8857 362.099 75.9442 363 77.1101 363.619C78.215 364.231 79.3801 364.573 80.6053 364.643C81.8304 364.714 83.0683 364.524 84.3189 364.074C85.5424 363.59 86.7279 362.886 87.8756 361.962L92.3312 358.375C93.4789 357.451 94.4199 356.443 95.1542 355.351C95.8614 354.226 96.3113 353.057 96.5038 351.845C96.6964 350.633 96.6148 349.391 96.259 348.12C95.8694 346.876 95.1855 345.646 94.2073 344.431C92.7943 342.676 91.2208 341.551 89.4868 341.055C87.7528 340.56 85.9052 340.545 83.944 341.011L83.5954 336.535C85.9756 335.899 88.4053 335.946 90.8845 336.676C93.3364 337.372 95.6222 339.037 97.7417 341.669ZM77.2906 308.593C78.3095 310.938 78.4051 312.952 77.5772 314.634C76.732 316.277 75.276 317.548 73.2094 318.446L53.5367 326.995L57.9927 337.249L53.9389 339.01L50.6229 331.38C50.1738 330.347 49.6642 329.717 49.0941 329.493C48.4669 329.246 47.6367 329.347 46.6034 329.796L38.5555 333.293L36.5607 328.703L47.4104 323.988L41.3224 309.978L45.3762 308.217L51.4642 322.226L74.1176 312.382L68.0296 298.372L72.0833 296.611L77.2906 308.593Z" fill="#0039FF"/>
<path d="M359.915 266.035L367.565 280.975C370.355 286.465 371.795 288.625 378.365 288.625V290.785H373.955C361.985 290.785 360.455 289.615 356.225 280.525L344.435 256.675H343.085C341.375 256.675 339.755 256.585 338.225 256.495V281.515C338.225 287.005 339.485 288.625 347.855 288.625V290.785H318.605V288.625C326.975 288.625 328.145 287.005 328.145 281.515V228.055C328.145 222.565 326.975 220.945 318.605 220.945V218.785H346.325C362.435 218.785 369.635 225.715 369.635 237.145C369.635 249.205 361.265 254.515 350.735 256.135C354.335 257.215 356.765 259.195 359.915 266.035ZM338.225 225.805V252.985C339.845 253.165 341.555 253.255 343.355 253.255C352.535 253.255 359.285 248.755 359.285 237.415C359.285 227.605 354.245 222.475 345.515 222.475C343.625 222.475 341.735 222.745 339.845 223.375C338.675 223.825 338.225 224.725 338.225 225.805ZM408.301 271.525H410.461C408.571 286.015 402.451 292.225 393.991 292.225C383.821 292.225 377.431 282.595 377.431 267.745C377.431 253.525 383.731 241.465 394.441 241.465C404.971 241.465 409.921 251.365 409.921 264.505H386.161V264.685C386.161 276.925 389.941 285.565 397.411 285.565C401.461 285.565 406.141 282.415 408.301 271.525ZM394.441 245.245C389.041 245.245 386.791 251.815 386.251 260.815H401.281C401.281 252.175 399.751 245.245 394.441 245.245ZM457.408 219.415V281.515C457.408 287.275 458.308 288.625 463.798 288.625V290.785H442.558V288.625C447.868 288.625 448.678 287.275 448.678 281.515V229.315C448.228 229.405 447.688 229.495 447.148 229.495C444.628 229.495 443.458 227.785 442.018 225.175C440.578 222.745 439.228 221.035 436.888 221.035C433.108 221.035 430.498 223.915 430.498 234.805V243.085H439.498V246.775H430.498V281.515C430.498 287.275 431.578 288.625 438.238 288.625V290.785H415.018V288.625C420.868 288.625 421.768 287.275 421.768 281.515V246.775H415.828V243.805L421.768 243.355V235.615C421.768 221.575 430.318 216.625 437.968 216.625C443.548 216.625 448.948 218.965 450.928 222.385L456.148 218.425L457.408 219.415ZM497.773 271.525H499.933C498.043 286.015 491.923 292.225 483.463 292.225C473.293 292.225 466.903 282.595 466.903 267.745C466.903 253.525 473.203 241.465 483.913 241.465C494.443 241.465 499.393 251.365 499.393 264.505H475.633V264.685C475.633 276.925 479.413 285.565 486.883 285.565C490.933 285.565 495.613 282.415 497.773 271.525ZM483.913 245.245C478.513 245.245 476.263 251.815 475.723 260.815H490.753C490.753 252.175 489.223 245.245 483.913 245.245ZM522.753 292.225C512.223 292.225 506.103 282.145 506.103 267.745C506.103 252.805 512.673 241.465 524.283 241.465C531.843 241.465 536.973 246.415 536.973 253.165C536.973 256.945 535.263 259.195 532.203 259.195C529.413 259.195 527.973 257.305 527.973 255.055C527.973 253.525 528.603 251.725 528.603 249.835C528.603 246.775 526.893 245.245 524.193 245.245C517.713 245.245 515.013 254.155 515.013 264.325C515.013 276.025 518.613 285.385 525.993 285.385C530.043 285.385 534.633 282.325 536.253 270.985H538.413C537.423 285.925 530.853 292.225 522.753 292.225ZM567.315 270.625H569.835C569.835 284.665 567.045 292.225 558.225 292.225C551.205 292.225 547.515 287.995 547.515 275.395V246.775H541.215V243.445C547.785 243.265 551.925 238.405 552.825 229.945H556.065V243.085H566.865V246.775H556.245V273.055C556.245 281.065 557.055 286.375 561.285 286.375C565.335 286.375 567.315 281.335 567.315 270.625Z" fill="#0039FF"/>
</svg>
