<svg width="887" height="528" viewBox="0 0 887 528" fill="none" xmlns="http://www.w3.org/2000/svg">
<path d="M61.2732 258.103L62.9339 248.736L39.3615 244.556L37.7008 253.923L33.4826 253.175L36.0231 238.846L44.0874 240.276L44.1424 239.965C41.737 238.857 39.9926 237.268 38.9092 235.199C37.7917 233.081 37.4859 230.596 37.9918 227.742L38.7837 223.276L43.7463 224.156L42.6795 230.173C42.1735 233.026 42.59 235.489 43.929 237.56C45.2752 239.59 47.2924 240.844 49.9805 241.32L63.8137 243.773L66.0134 231.367L70.2316 232.114L65.4914 258.85L61.2732 258.103ZM81.0322 209.795C79.9257 211.87 78.5757 213.554 76.9823 214.847C75.4087 216.102 73.6571 216.977 71.7277 217.471C69.7809 217.909 67.7316 217.958 65.5796 217.62C63.3906 217.262 61.1658 216.48 58.9051 215.275C56.6073 214.05 54.6998 212.628 53.1827 211.01C51.6853 209.355 50.5943 207.607 49.9098 205.767C49.1882 203.906 48.9001 201.992 49.0456 200.023C49.2109 198.017 49.8172 196.031 50.8645 194.067C51.8921 192.14 53.1729 190.586 54.707 189.405C56.2608 188.186 57.9642 187.357 59.8171 186.917C61.6329 186.458 63.5513 186.386 65.5723 186.702C67.5933 187.018 69.623 187.719 71.6613 188.806L73.7738 189.932L62.4511 211.168L63.7853 211.88C65.0454 212.552 66.3215 212.97 67.6136 213.136C68.9058 213.301 70.1386 213.221 71.3121 212.894C72.5053 212.531 73.6109 211.93 74.6286 211.093C75.6291 210.198 76.485 209.084 77.1964 207.75C78.224 205.823 78.6684 203.918 78.5299 202.035C78.3913 200.153 77.7413 198.426 76.58 196.855L80.5524 194.76C82.0251 196.64 82.858 198.917 83.051 201.59C83.2267 204.206 82.5538 206.941 81.0322 209.795ZM54.5336 196.023C53.8815 197.246 53.5012 198.495 53.3926 199.77C53.2841 201.045 53.4114 202.279 53.7747 203.472C54.1578 204.628 54.7682 205.715 55.6058 206.733C56.4262 207.694 57.4664 208.511 58.7265 209.182L59.1156 209.39L67.8892 192.935L67.2777 192.609C66.0176 191.937 64.7601 191.528 63.505 191.383C62.2697 191.2 61.0937 191.263 59.977 191.572C58.843 191.824 57.8054 192.342 56.8642 193.125C55.9428 193.871 55.1659 194.837 54.5336 196.023ZM89.2086 186.642L96.5123 178.468L78.6602 162.517L70.9367 171.161L67.7421 168.307L75.4656 159.663L70.4858 155.214C68.8572 153.758 67.9039 152.146 67.6259 150.377C67.3759 148.577 68.0765 146.753 69.7275 144.905L76.9893 136.777L80.1839 139.632L71.4949 149.356L78.8237 155.905L87.5126 146.18L90.7072 149.034L82.0183 158.759L99.8704 174.71L107.594 166.066L110.788 168.92L92.4032 189.497L89.2086 186.642ZM129.358 154.174C127.576 155.578 125.713 156.538 123.767 157.055C121.855 157.546 119.932 157.616 118 157.267C116.075 156.859 114.211 156.055 112.41 154.854C110.582 153.621 108.863 151.981 107.251 149.936C105.666 147.923 104.487 145.884 103.716 143.819C102.944 141.753 102.598 139.753 102.678 137.819C102.765 135.825 103.271 133.956 104.196 132.212C105.154 130.441 106.524 128.854 108.305 127.451C110.087 126.047 111.934 125.1 113.846 124.61C115.792 124.093 117.727 124.038 119.653 124.446C121.585 124.795 123.465 125.587 125.292 126.82C127.12 128.054 128.826 129.677 130.412 131.69C132.023 133.735 133.215 135.791 133.986 137.856C134.732 139.889 135.061 141.902 134.974 143.895C134.894 145.83 134.375 147.682 133.418 149.452C132.493 151.197 131.14 152.771 129.358 154.174ZM126.668 150.76C128.878 149.018 130.14 146.955 130.453 144.57C130.766 142.184 129.831 139.606 127.648 136.835L124.763 133.173C122.58 130.401 120.292 128.889 117.899 128.635C115.507 128.381 113.206 129.124 110.995 130.866C108.785 132.607 107.523 134.67 107.21 137.056C106.897 139.441 107.832 142.019 110.015 144.791L112.9 148.453C115.084 151.224 117.371 152.737 119.764 152.991C122.156 153.245 124.457 152.501 126.668 150.76ZM145.663 135.759L153.835 130.889L141.581 110.323L133.409 115.193L131.216 111.513L143.717 104.063L147.91 111.099L148.18 110.938C147.446 108.393 147.507 106.034 148.364 103.861C149.235 101.631 150.915 99.7741 153.405 98.2906L157.302 95.9687L159.881 100.298L154.632 103.426C152.142 104.91 150.552 106.836 149.86 109.203C149.205 111.549 149.576 113.895 150.973 116.24L158.165 128.309L168.989 121.859L171.182 125.539L147.856 139.439L145.663 135.759ZM179.208 121.164L165.526 91.6755L169.755 89.7134L171.346 93.1423L171.574 93.0362C171.501 91.6811 171.698 90.4091 172.165 89.2201C172.632 88.0312 173.685 87.0566 175.323 86.2965C177.038 85.5011 178.517 85.3471 179.762 85.8345C180.989 86.2838 182.016 87.15 182.843 88.4332L183.014 88.3536C182.929 86.7727 183.178 85.3143 183.762 83.9784C184.346 82.6425 185.515 81.568 187.267 80.7549C189.667 79.6413 191.656 79.737 193.234 81.0422C194.85 82.3297 196.383 84.5355 197.832 87.6596L207.325 108.119L203.096 110.081L193.948 90.3646C192.781 87.8501 191.71 86.2403 190.735 85.5353C189.78 84.7745 188.617 84.7123 187.245 85.3487C186.026 85.9143 185.221 86.774 184.831 87.9276C184.422 89.0431 184.589 90.4009 185.332 92.0011L195.381 113.66L191.152 115.622L182.004 95.9062C180.837 93.3917 179.766 91.7819 178.791 91.0769C177.836 90.3162 176.692 90.2451 175.359 90.8638C174.139 91.4295 173.315 92.2979 172.887 93.4692C172.478 94.5847 172.645 95.9426 173.387 97.5427L183.437 119.202L179.208 121.164ZM249.359 88.3276L258.511 85.7348L251.986 62.7011L242.834 65.2939L241.666 61.1721L255.668 57.2056L257.9 65.0856L258.203 64.9997C258.152 62.3516 258.82 60.0887 260.209 58.2111C261.627 56.2816 263.73 54.9219 266.518 54.1321L270.882 52.8958L272.256 57.745L266.376 59.4105C263.588 60.2004 261.554 61.6496 260.274 63.7583C259.035 65.8554 258.787 68.2173 259.531 70.844L263.361 84.3611L275.484 80.927L276.651 85.0488L250.526 92.4494L249.359 88.3276ZM301.39 80.1403C299.09 80.6328 296.933 80.6869 294.917 80.3024C292.943 79.9091 291.145 79.1345 289.523 77.9786C287.933 76.7728 286.574 75.2384 285.445 73.3756C284.307 71.4717 283.47 69.2672 282.933 66.762C282.388 64.2157 282.244 61.8411 282.503 59.6382C282.802 57.4264 283.434 55.4655 284.4 53.7554C285.356 52.0043 286.634 50.5494 288.233 49.3909C289.872 48.2236 291.781 47.4068 293.957 46.9406C296.093 46.4833 298.107 46.46 299.999 46.8709C301.932 47.273 303.664 48.0402 305.195 49.1727C306.717 50.2641 308.009 51.684 309.071 53.4324C310.133 55.1808 310.906 57.1844 311.389 59.4432L311.891 61.7841L288.358 66.8242L288.675 68.3026C288.974 69.699 289.477 70.9442 290.184 72.0385C290.891 73.1327 291.747 74.0231 292.753 74.7096C293.8 75.3873 294.972 75.8451 296.269 76.0828C297.598 76.2707 299.001 76.2063 300.48 75.8897C302.615 75.4323 304.358 74.5436 305.707 73.2237C307.057 71.9039 307.958 70.2935 308.409 68.3927L312.572 70.0784C312.085 72.4163 310.882 74.5209 308.963 76.3922C307.077 78.2136 304.552 79.463 301.39 80.1403ZM294.828 51.0064C293.473 51.2967 292.273 51.8114 291.229 52.5505C290.184 53.2896 289.323 54.1827 288.646 55.2299C288.009 56.2682 287.572 57.4357 287.334 58.7322C287.128 59.9789 287.175 61.3004 287.474 62.6968L287.567 63.128L305.801 59.2226L305.656 58.545C305.357 57.1486 304.858 55.9239 304.16 54.8707C303.503 53.8088 302.697 52.9506 301.741 52.2964C300.817 51.5923 299.752 51.1331 298.546 50.9188C297.382 50.6958 296.142 50.725 294.828 51.0064ZM323.652 70.5451L334.488 68.8932L330.881 45.2266L319.421 46.9734L318.776 42.7383L330.235 40.9915L329.229 34.3897C328.9 32.2307 329.192 30.3806 330.104 28.8396C331.057 27.2922 332.759 26.3318 335.209 25.9584L345.983 24.316L346.629 28.5511L333.737 30.5162L335.218 40.232L348.11 38.2668L348.755 42.5019L335.863 44.4671L339.471 68.1337L350.931 66.3869L351.576 70.622L324.297 74.7801L323.652 70.5451ZM375.353 68.8344C373.095 69.0497 371.009 68.848 369.093 68.2291C367.22 67.6062 365.565 66.6248 364.129 65.2851C362.731 63.8996 361.6 62.2144 360.736 60.2295C359.867 58.2028 359.31 55.8934 359.062 53.3011C358.819 50.7507 358.932 48.3983 359.402 46.244C359.871 44.0897 360.663 42.221 361.778 40.638C362.931 39.0092 364.368 37.7119 366.09 36.746C367.854 35.7761 369.865 35.1835 372.122 34.9681C374.38 34.7527 376.446 34.9565 378.32 35.5794C380.235 36.1983 381.892 37.2005 383.29 38.586C384.725 39.9258 385.877 41.609 386.746 43.6357C387.614 45.6624 388.17 47.9509 388.413 50.5013C388.66 53.0936 388.549 55.4669 388.08 57.6212C387.606 59.7337 386.793 61.6044 385.641 63.2332C384.526 64.8162 383.087 66.0926 381.323 67.0625C379.601 68.0284 377.611 68.619 375.353 68.8344ZM374.94 64.507C377.741 64.2398 379.919 63.1882 381.474 61.3523C383.029 59.5164 383.639 56.8424 383.304 53.3303L382.861 48.6894C382.526 45.1773 381.422 42.6669 379.548 41.158C377.674 39.6491 375.337 39.0282 372.535 39.2955C369.734 39.5627 367.556 40.6142 366.001 42.4502C364.447 44.2861 363.837 46.9601 364.172 50.4721L364.615 55.1131C364.95 58.6251 366.054 61.1356 367.928 62.6445C369.801 64.1534 372.139 64.7742 374.94 64.507ZM398.736 61.8084L408.24 61.4138L407.247 37.4944L397.743 37.889L397.565 33.6086L412.105 33.0051L412.445 41.188L412.76 41.1749C413.325 38.5873 414.501 36.5417 416.288 35.0383C418.116 33.4912 420.477 32.6575 423.373 32.5373L427.905 32.3492L428.114 37.3849L422.008 37.6383C419.113 37.7585 416.798 38.6954 415.063 40.4488C413.37 42.2005 412.58 44.4402 412.693 47.1679L413.276 61.2048L425.865 60.6822L426.043 64.9625L398.913 66.0887L398.736 61.8084ZM435.207 64.7588L435.546 32.2526L440.208 32.3012L440.168 36.081L440.42 36.0837C440.938 34.829 441.663 33.7655 442.596 32.8932C443.529 32.0209 444.898 31.5942 446.704 31.613C448.594 31.6327 449.996 32.1304 450.91 33.106C451.824 34.0396 452.379 35.2634 452.573 36.7775L452.762 36.7795C453.365 35.3157 454.218 34.1066 455.32 33.152C456.422 32.1975 457.939 31.7303 459.871 31.7504C462.517 31.778 464.271 32.7204 465.133 34.5775C466.038 36.435 466.472 39.0857 466.437 42.5295L466.201 65.0823L461.539 65.0337L461.766 43.2998C461.795 40.528 461.521 38.614 460.944 37.5579C460.41 36.4603 459.386 35.9036 457.874 35.8878C456.53 35.8738 455.434 36.3034 454.585 37.1766C453.736 38.0077 453.302 39.3053 453.284 41.0692L453.035 64.9449L448.373 64.8962L448.6 43.1624C448.629 40.3906 448.355 38.4766 447.778 37.4205C447.243 36.3229 446.241 35.7664 444.771 35.7511C443.427 35.737 442.31 36.1664 441.418 37.0391C440.57 37.8703 440.136 39.1679 440.118 40.9318L439.869 64.8075L435.207 64.7588ZM512.588 63.7963L522.036 64.9069L524.831 41.1306L515.383 40.02L515.883 35.7653L530.336 37.4643L529.38 45.5983L529.693 45.6351C530.66 43.169 532.144 41.3348 534.146 40.1323C536.195 38.893 538.658 38.4425 541.536 38.7808L546.041 39.3104L545.453 44.3159L539.384 43.6025C536.505 43.2642 534.071 43.8238 532.082 45.2815C530.134 46.7441 529 48.831 528.681 51.5424L527.041 65.4953L539.555 66.9663L539.055 71.221L512.088 68.051L512.588 63.7963ZM563.823 76.013C561.507 75.6053 559.487 74.8447 557.764 73.7312C556.082 72.625 554.707 71.2315 553.638 69.5508C552.618 67.836 551.935 65.9033 551.588 63.7527C551.249 61.5607 551.301 59.2031 551.745 56.6799C552.197 54.1153 552.956 51.8608 554.023 49.9163C555.132 47.9792 556.455 46.3995 557.992 45.1774C559.536 43.914 561.267 43.0458 563.184 42.573C565.142 42.1073 567.217 42.0675 569.41 42.4533C571.561 42.8318 573.436 43.5669 575.035 44.6586C576.675 45.7576 577.992 47.1194 578.985 48.7442C579.986 50.3276 580.65 52.129 580.977 54.1482C581.304 56.1674 581.267 58.3146 580.867 60.5896L580.452 62.9474L556.75 58.776L556.488 60.2651C556.24 61.6715 556.238 63.0145 556.482 64.2942C556.726 65.5738 557.185 66.7208 557.86 67.735C558.576 68.7565 559.49 69.6211 560.602 70.3285C561.763 71.0019 563.088 71.4697 564.577 71.7318C566.728 72.1103 568.676 71.9415 570.423 71.2254C572.17 70.5093 573.609 69.3554 574.742 67.7637L577.966 70.8898C576.636 72.8733 574.731 74.3717 572.25 75.385C569.817 76.3642 567.008 76.5735 563.823 76.013ZM568.689 46.5483C567.324 46.3081 566.019 46.3343 564.773 46.6268C563.528 46.9193 562.394 47.4235 561.372 48.1393C560.392 48.8623 559.548 49.78 558.841 50.8922C558.182 51.9703 557.729 53.2125 557.481 54.6189L557.405 55.0532L575.771 58.2855L575.891 57.603C576.138 56.1966 576.137 54.8743 575.885 53.636C575.676 52.405 575.251 51.3067 574.61 50.3411C574.018 49.3414 573.204 48.5158 572.168 47.8642C571.172 47.2199 570.013 46.7813 568.689 46.5483ZM588.068 75.5022L598.724 78.0723L604.337 54.7996L593.068 52.0818L594.073 47.9172L605.342 50.635L606.907 44.1431C607.419 42.02 608.389 40.4177 609.816 39.3362C611.285 38.2645 613.223 38.0192 615.632 38.6002L626.227 41.1555L625.223 45.3201L612.545 42.2626L610.241 51.8166L622.919 54.8742L621.914 59.0388L609.237 55.9812L603.624 79.254L614.893 81.9718L613.888 86.1364L587.063 79.6668L588.068 75.5022ZM636.503 93.6745C634.339 92.9956 632.495 91.9989 630.971 90.6843C629.486 89.3823 628.343 87.8352 627.541 86.0429C626.791 84.223 626.404 82.2307 626.378 80.0659C626.366 77.8611 626.749 75.5163 627.529 73.0317C628.296 70.5872 629.314 68.4636 630.584 66.6611C631.853 64.8585 633.309 63.4445 634.952 62.419C636.647 61.3661 638.475 60.7292 640.437 60.5084C642.439 60.3001 644.522 60.5354 646.686 61.2143C648.85 61.8932 650.674 62.8836 652.159 64.1856C653.683 65.5002 654.82 67.0674 655.57 68.8872C656.372 70.6795 656.78 72.6781 656.792 74.883C656.805 77.0879 656.428 79.4126 655.661 81.8571C654.881 84.3417 653.857 86.4853 652.587 88.2879C651.33 90.0503 649.854 91.4581 648.159 92.511C646.517 93.5365 644.694 94.1533 642.692 94.3616C640.73 94.5824 638.667 94.3534 636.503 93.6745ZM637.804 89.5268C640.489 90.3691 642.905 90.2465 645.051 89.159C647.197 88.0714 648.798 85.8446 649.854 82.4783L651.249 78.0301C652.305 74.6638 652.263 71.9215 651.123 69.8031C649.983 67.6847 648.07 66.2043 645.385 65.362C642.7 64.5197 640.285 64.6423 638.139 65.7298C635.993 66.8174 634.392 69.0443 633.336 72.4105L631.94 76.8587C630.884 80.225 630.926 82.9673 632.067 85.0857C633.207 87.2041 635.119 88.6845 637.804 89.5268ZM660.83 96.4337L669.657 99.9798L678.581 77.7652L669.754 74.2191L671.351 70.2439L684.855 75.6687L681.802 83.2684L682.094 83.3858C683.673 81.259 685.586 79.8774 687.833 79.2412C690.135 78.5817 692.63 78.7921 695.319 79.8723L699.528 81.5632L697.65 86.2399L691.979 83.962C689.29 82.8817 686.794 82.7844 684.492 83.6701C682.229 84.5715 680.589 86.2888 679.571 88.8221L674.334 101.858L686.026 106.555L684.429 110.531L659.233 100.409L660.83 96.4337ZM692.803 114.227L707.604 85.2832L711.754 87.4058L710.033 90.7713L710.258 90.886C711.28 89.9936 712.403 89.3651 713.628 89.0005C714.852 88.6359 716.268 88.8648 717.876 89.687C719.559 90.5475 720.592 91.6181 720.974 92.8989C721.376 94.1422 721.327 95.4848 720.825 96.9266L720.994 97.0127C722.186 95.9716 723.489 95.2696 724.901 94.9067C726.313 94.5437 727.879 94.8021 729.599 95.6817C731.955 96.8864 733.105 98.5122 733.049 100.559C733.03 102.625 732.237 105.191 730.669 108.258L720.4 128.339L716.25 126.216L726.145 106.864C727.407 104.396 728.015 102.561 727.97 101.358C727.981 100.138 727.313 99.183 725.967 98.4946C724.771 97.8827 723.598 97.7782 722.448 98.181C721.318 98.5465 720.351 99.5145 719.548 101.085L708.677 122.344L704.526 120.221L714.422 100.87C715.684 98.4016 716.292 96.5663 716.247 95.3637C716.258 94.1429 715.609 93.1978 714.3 92.5286C713.104 91.9167 711.912 91.8026 710.725 92.1863C709.595 92.5518 708.628 93.5198 707.825 95.0904L696.954 116.349L692.803 114.227ZM761.325 150.78L768.411 157.127L784.384 139.296L777.299 132.948L780.157 129.757L790.997 139.468L785.532 145.568L785.767 145.778C787.977 144.318 790.246 143.673 792.576 143.842C794.964 144.009 797.238 145.059 799.396 146.992L802.775 150.019L799.412 153.773L794.86 149.695C792.702 147.762 790.39 146.818 787.923 146.864C785.488 146.939 783.36 147.992 781.539 150.026L772.165 160.49L781.55 168.897L778.691 172.088L758.467 153.971L761.325 150.78ZM794.02 191.943C792.61 190.061 791.658 188.124 791.164 186.133C790.695 184.175 790.646 182.218 791.017 180.261C791.446 178.313 792.271 176.436 793.49 174.631C794.743 172.8 796.395 171.117 798.446 169.582C800.53 168.021 802.626 166.897 804.735 166.209C806.869 165.556 808.915 165.309 810.872 165.47C812.863 165.606 814.719 166.158 816.44 167.125C818.187 168.126 819.727 169.517 821.061 171.299C822.37 173.047 823.234 174.866 823.653 176.756C824.097 178.68 824.125 180.574 823.737 182.439C823.383 184.278 822.634 186.046 821.491 187.742C820.347 189.438 818.851 190.978 817.002 192.363L815.086 193.798L800.66 174.535L799.449 175.441C798.306 176.297 797.386 177.275 796.688 178.375C795.99 179.475 795.54 180.626 795.337 181.827C795.16 183.061 795.235 184.317 795.561 185.594C795.947 186.88 796.593 188.127 797.499 189.338C798.808 191.086 800.345 192.297 802.108 192.97C803.872 193.643 805.711 193.787 807.627 193.402L807.838 197.888C805.51 198.424 803.096 198.212 800.593 197.253C798.149 196.302 795.958 194.532 794.02 191.943ZM817.733 173.791C816.902 172.682 815.933 171.807 814.824 171.168C813.716 170.529 812.545 170.121 811.31 169.944C810.1 169.8 808.857 169.891 807.58 170.218C806.362 170.553 805.181 171.149 804.038 172.005L803.685 172.269L814.863 187.195L815.418 186.78C816.561 185.924 817.465 184.959 818.129 183.884C818.819 182.843 819.26 181.751 819.454 180.609C819.707 179.475 819.679 178.316 819.369 177.131C819.084 175.98 818.539 174.867 817.733 173.791ZM811.439 209.389L815.423 219.601L837.726 210.9L833.512 200.1L837.503 198.543L841.717 209.342L847.938 206.915C849.973 206.121 851.842 206.001 853.545 206.553C855.264 207.145 856.573 208.595 857.474 210.904L861.436 221.057L857.445 222.614L852.704 210.465L843.549 214.038L848.289 226.187L844.298 227.744L839.558 215.595L817.255 224.297L821.469 235.096L817.478 236.653L807.448 210.946L811.439 209.389ZM819.145 260.035C819.064 257.769 819.388 255.698 820.119 253.822C820.852 251.989 821.929 250.395 823.351 249.041C824.817 247.727 826.566 246.698 828.599 245.952C830.673 245.205 833.012 244.785 835.614 244.691C838.174 244.599 840.516 244.851 842.639 245.447C844.761 246.043 846.58 246.944 848.094 248.15C849.652 249.397 850.862 250.908 851.725 252.684C852.589 254.502 853.062 256.545 853.143 258.811C853.225 261.078 852.899 263.128 852.167 264.961C851.436 266.837 850.338 268.431 848.872 269.745C847.45 271.099 845.701 272.15 843.627 272.897C841.552 273.644 839.235 274.064 836.675 274.156C834.072 274.249 831.71 273.998 829.587 273.402C827.506 272.805 825.687 271.883 824.129 270.636C822.615 269.43 821.425 267.917 820.561 266.099C819.699 264.323 819.227 262.302 819.145 260.035ZM823.489 259.879C823.591 262.691 824.512 264.927 826.253 266.588C827.994 268.248 830.627 269.015 834.153 268.888L838.812 268.72C842.337 268.593 844.909 267.639 846.526 265.858C848.142 264.077 848.9 261.78 848.799 258.968C848.698 256.155 847.777 253.919 846.036 252.259C844.295 250.598 841.662 249.832 838.136 249.958L833.477 250.126C829.951 250.253 827.38 251.207 825.763 252.989C824.146 254.77 823.388 257.067 823.489 259.879ZM823.18 284.596L820.288 293.659L843.095 300.936L845.987 291.874L850.068 293.176L845.644 307.04L837.842 304.551L837.746 304.851C839.983 306.27 841.5 308.077 842.299 310.271C843.125 312.519 843.097 315.023 842.216 317.784L840.837 322.105L836.036 320.573L837.894 314.751C838.774 311.99 838.689 309.494 837.638 307.263C836.573 305.072 834.741 303.561 832.14 302.731L818.756 298.461L814.926 310.465L810.844 309.162L819.098 283.294L823.18 284.596ZM807.235 317.32L834.166 335.527L831.555 339.389L828.423 337.272L828.282 337.481C829.044 338.604 829.531 339.796 829.744 341.055C829.958 342.315 829.558 343.692 828.547 345.189C827.488 346.754 826.3 347.649 824.982 347.874C823.699 348.122 822.373 347.909 821.003 347.236L820.897 347.393C821.785 348.703 822.324 350.082 822.512 351.527C822.701 352.973 822.254 354.496 821.172 356.097C819.69 358.289 817.937 359.232 815.912 358.928C813.863 358.659 811.413 357.559 808.559 355.63L789.875 342.998L792.486 339.136L810.492 351.309C812.788 352.862 814.536 353.689 815.735 353.79C816.946 353.949 817.975 353.402 818.821 352.15C819.574 351.036 819.82 349.885 819.56 348.695C819.335 347.529 818.491 346.451 817.03 345.463L797.25 332.09L799.861 328.228L817.867 340.401C820.163 341.954 821.911 342.781 823.11 342.882C824.321 343.041 825.337 342.512 826.161 341.294C826.914 340.181 827.172 339.012 826.935 337.787C826.71 336.621 825.866 335.543 824.405 334.555L804.624 321.182L807.235 317.32ZM759.308 378.132L751.518 383.593L765.259 403.196L773.049 397.736L775.508 401.244L763.591 409.597L758.89 402.891L758.632 403.071C759.553 405.555 759.666 407.912 758.972 410.142C758.268 412.431 756.73 414.407 754.357 416.07L750.643 418.674L747.75 414.547L752.754 411.039C755.127 409.375 756.571 407.338 757.085 404.925C757.565 402.537 757.022 400.225 755.455 397.99L747.391 386.485L737.073 393.718L734.614 390.21L756.849 374.624L759.308 378.132ZM712.408 402.06C714.48 400.946 716.537 400.293 718.579 400.101C720.585 399.928 722.527 400.171 724.407 400.829C726.27 401.545 728.003 402.639 729.607 404.114C731.23 405.625 732.649 407.509 733.862 409.765C735.095 412.059 735.895 414.299 736.261 416.487C736.589 418.695 736.528 420.754 736.078 422.665C735.647 424.614 734.826 426.367 733.613 427.925C732.363 429.503 730.758 430.819 728.798 431.874C726.874 432.908 724.947 433.491 723.015 433.624C721.047 433.777 719.169 433.522 717.383 432.861C715.617 432.238 713.981 431.234 712.474 429.851C710.967 428.467 709.666 426.758 708.572 424.724L707.439 422.615L728.634 411.217L727.918 409.886C727.242 408.628 726.412 407.572 725.428 406.718C724.444 405.864 723.374 405.248 722.216 404.869C721.022 404.51 719.769 404.397 718.457 404.53C717.129 404.72 715.799 405.173 714.467 405.889C712.543 406.923 711.117 408.262 710.189 409.906C709.261 411.549 708.845 413.347 708.94 415.298L704.473 414.839C704.29 412.458 704.858 410.102 706.18 407.77C707.484 405.495 709.56 403.592 712.408 402.06ZM726.828 428.212C728.049 427.555 729.058 426.726 729.855 425.726C730.652 424.725 731.23 423.627 731.589 422.433C731.911 421.258 732.006 420.015 731.873 418.703C731.723 417.449 731.31 416.193 730.633 414.935L730.425 414.547L714.001 423.379L714.329 423.989C715.005 425.247 715.825 426.284 716.789 427.101C717.716 427.938 718.73 428.537 719.83 428.899C720.914 429.318 722.065 429.462 723.282 429.332C724.463 429.221 725.645 428.848 726.828 428.212ZM693.502 417.368L683.401 421.625L692.699 443.686L703.381 439.183L705.045 443.131L694.363 447.633L696.957 453.787C697.805 455.8 697.976 457.665 697.469 459.382C696.924 461.116 695.51 462.464 693.226 463.427L683.183 467.66L681.519 463.713L693.536 458.647L689.719 449.591L677.702 454.656L676.038 450.709L688.055 445.643L678.756 423.583L668.074 428.085L666.411 424.138L691.838 413.42L693.502 417.368ZM643.673 431.262C645.827 430.552 647.906 430.285 649.911 430.464C651.876 430.656 653.707 431.246 655.405 432.233C657.075 433.274 658.552 434.667 659.835 436.41C661.131 438.194 662.187 440.322 663.004 442.795C663.807 445.228 664.218 447.547 664.238 449.751C664.258 451.956 663.9 453.954 663.165 455.745C662.402 457.589 661.288 459.173 659.823 460.497C658.319 461.834 656.489 462.857 654.336 463.568C652.182 464.279 650.122 464.539 648.157 464.347C646.152 464.168 644.315 463.559 642.644 462.518C640.947 461.53 639.45 460.144 638.154 458.36C636.858 456.577 635.808 454.469 635.005 452.036C634.189 449.563 633.771 447.224 633.751 445.019C633.744 442.854 634.122 440.85 634.884 439.006C635.62 437.215 636.74 435.651 638.245 434.314C639.71 432.99 641.519 431.973 643.673 431.262ZM645.036 435.39C642.363 436.272 640.473 437.781 639.364 439.916C638.256 442.051 638.254 444.794 639.36 448.144L640.821 452.571C641.927 455.921 643.56 458.124 645.722 459.18C647.884 460.235 650.301 460.322 652.973 459.44C655.645 458.558 657.536 457.05 658.645 454.915C659.753 452.78 659.755 450.037 658.649 446.687L657.188 442.26C656.082 438.909 654.448 436.707 652.287 435.651C650.125 434.595 647.708 434.508 645.036 435.39ZM622.351 443.243L613.133 445.592L619.045 468.79L628.263 466.441L629.321 470.593L615.219 474.186L613.196 466.25L612.891 466.328C612.873 468.976 612.144 471.221 610.706 473.061C609.238 474.952 607.099 476.256 604.291 476.971L599.896 478.091L598.651 473.207L604.573 471.698C607.381 470.983 609.453 469.588 610.788 467.514C612.082 465.45 612.393 463.096 611.718 460.45L608.249 446.836L596.039 449.948L594.981 445.797L621.293 439.091L622.351 443.243ZM586.052 447.85L592.073 479.796L587.491 480.659L586.791 476.945L586.544 476.991C586.282 478.323 585.779 479.508 585.034 480.545C584.289 481.583 583.03 482.269 581.255 482.604C579.397 482.954 577.925 482.74 576.838 481.962C575.759 481.225 574.977 480.133 574.49 478.686L574.304 478.721C573.999 480.274 573.399 481.627 572.505 482.778C571.611 483.93 570.214 484.685 568.316 485.042C565.715 485.533 563.811 484.951 562.602 483.299C561.351 481.654 560.407 479.139 559.77 475.755L555.593 453.591L560.174 452.727L564.199 474.086C564.713 476.81 565.355 478.634 566.128 479.557C566.867 480.529 567.979 480.875 569.465 480.595C570.785 480.346 571.777 479.71 572.439 478.688C573.109 477.707 573.28 476.35 572.954 474.616L568.532 451.152L573.113 450.289L577.138 471.648C577.652 474.372 578.295 476.195 579.067 477.118C579.806 478.09 580.897 478.44 582.342 478.168C583.663 477.919 584.675 477.279 585.378 476.249C586.048 475.268 586.22 473.911 585.893 472.178L581.471 448.714L586.052 447.85ZM510.297 463.676L500.809 464.374L502.565 488.25L512.053 487.552L512.367 491.824L497.853 492.892L497.252 484.724L496.938 484.747C496.456 487.351 495.346 489.433 493.608 490.993C491.83 492.598 489.497 493.506 486.607 493.719L482.083 494.052L481.713 489.025L487.808 488.577C490.698 488.364 492.982 487.354 494.66 485.546C496.296 483.741 497.014 481.478 496.813 478.755L495.783 464.744L483.217 465.668L482.902 461.396L509.982 459.404L510.297 463.676ZM457.673 461.467C460.025 461.418 462.154 461.773 464.06 462.531C465.924 463.291 467.543 464.391 468.917 465.833C470.25 467.318 471.295 469.082 472.052 471.124C472.809 473.209 473.214 475.532 473.267 478.094C473.321 480.697 473.013 483.056 472.343 485.17C471.631 487.286 470.639 489.092 469.368 490.588C468.097 492.127 466.568 493.314 464.779 494.149C462.948 494.985 460.919 495.426 458.694 495.473C456.51 495.518 454.528 495.16 452.748 494.399C450.926 493.638 449.37 492.557 448.081 491.156C446.792 489.796 445.792 488.158 445.08 486.24C444.368 484.322 443.988 482.209 443.941 479.899L443.891 477.506L467.952 477.007L467.92 475.495C467.891 474.067 467.632 472.749 467.145 471.541C466.658 470.333 465.985 469.297 465.127 468.432C464.227 467.569 463.163 466.898 461.935 466.419C460.666 465.983 459.275 465.781 457.763 465.813C455.58 465.858 453.701 466.401 452.126 467.442C450.551 468.483 449.362 469.894 448.559 471.675L444.791 469.232C445.711 467.029 447.29 465.19 449.528 463.715C451.725 462.283 454.44 461.534 457.673 461.467ZM458.607 491.316C459.993 491.287 461.269 491.008 462.434 490.48C463.599 489.952 464.614 489.238 465.477 488.337C466.299 487.438 466.949 486.374 467.427 485.146C467.865 483.961 468.069 482.654 468.039 481.227L468.03 480.786L449.386 481.173L449.401 481.865C449.43 483.293 449.688 484.59 450.174 485.756C450.619 486.923 451.248 487.918 452.064 488.742C452.838 489.608 453.797 490.26 454.94 490.698C456.041 491.138 457.264 491.343 458.607 491.316ZM434.03 466.722L423.073 466.382L422.331 490.31L433.917 490.67L433.785 494.952L422.198 494.592L421.991 501.267C421.923 503.45 421.301 505.217 420.125 506.567C418.906 507.916 417.059 508.552 414.582 508.475L403.688 508.137L403.821 503.855L416.856 504.259L417.161 494.436L404.126 494.032L404.259 489.75L417.293 490.154L418.036 466.226L406.449 465.866L406.582 461.584L434.163 462.44L434.03 466.722ZM382.867 459.089C385.127 459.28 387.144 459.85 388.919 460.801C390.651 461.748 392.105 463.008 393.278 464.582C394.407 466.195 395.219 468.055 395.716 470.162C396.209 472.311 396.346 474.683 396.127 477.278C395.912 479.831 395.381 482.125 394.535 484.161C393.689 486.197 392.576 487.895 391.197 489.254C389.773 490.651 388.127 491.671 386.261 492.315C384.352 492.955 382.268 493.179 380.008 492.989C377.748 492.798 375.752 492.229 374.019 491.282C372.245 490.332 370.793 489.05 369.665 487.438C368.491 485.863 367.658 484.002 367.164 481.853C366.671 479.704 366.532 477.353 366.748 474.8C366.967 472.205 367.499 469.889 368.345 467.853C369.188 465.859 370.321 464.163 371.746 462.766C373.125 461.407 374.769 460.408 376.677 459.768C378.544 459.125 380.607 458.898 382.867 459.089ZM382.502 463.421C379.698 463.184 377.367 463.83 375.51 465.36C373.653 466.889 372.576 469.412 372.28 472.927L371.888 477.573C371.591 481.088 372.23 483.755 373.805 485.574C375.38 487.393 377.569 488.42 380.373 488.657C383.177 488.893 385.508 488.247 387.365 486.718C389.222 485.188 390.299 482.666 390.595 479.15L390.987 474.505C391.284 470.989 390.645 468.322 389.07 466.503C387.495 464.685 385.306 463.657 382.502 463.421ZM358.6 461.823L349.18 460.499L345.847 484.206L355.268 485.53L354.671 489.773L340.26 487.747L341.4 479.637L341.088 479.593C340.066 482.036 338.541 483.836 336.512 484.993C334.436 486.186 331.963 486.581 329.093 486.177L324.601 485.546L325.303 480.555L331.354 481.405C334.224 481.809 336.67 481.304 338.692 479.892C340.673 478.474 341.853 476.413 342.233 473.71L344.189 459.798L331.711 458.044L332.308 453.801L359.196 457.581L358.6 461.823ZM323.263 452.328L316.853 484.198L312.283 483.279L313.028 479.573L312.781 479.523C312.039 480.659 311.127 481.568 310.048 482.251C308.968 482.933 307.543 483.097 305.772 482.741C303.919 482.368 302.635 481.617 301.92 480.488C301.196 479.4 300.88 478.094 300.973 476.57L300.787 476.533C299.921 477.858 298.857 478.887 297.596 479.618C296.335 480.35 294.758 480.525 292.864 480.145C290.27 479.623 288.722 478.369 288.222 476.384C287.681 474.39 287.749 471.705 288.428 468.328L292.875 446.217L297.446 447.136L293.16 468.444C292.614 471.162 292.525 473.093 292.895 474.239C293.215 475.417 294.116 476.155 295.598 476.453C296.916 476.718 298.073 476.501 299.071 475.802C300.06 475.144 300.728 473.951 301.076 472.221L305.784 448.813L310.354 449.732L306.069 471.04C305.522 473.758 305.434 475.689 305.803 476.835C306.123 478.013 307.004 478.747 308.445 479.037C309.763 479.302 310.941 479.089 311.979 478.398C312.968 477.74 313.637 476.547 313.985 474.817L318.692 451.409L323.263 452.328ZM247.11 438.208L238.122 435.09L230.277 457.708L239.265 460.826L237.861 464.873L224.111 460.104L226.795 452.367L226.498 452.263C225.023 454.464 223.179 455.936 220.965 456.679C218.698 457.449 216.195 457.359 213.457 456.409L209.172 454.923L210.823 450.161L216.597 452.163C219.335 453.113 221.832 453.09 224.089 452.095C226.306 451.086 227.862 449.291 228.757 446.712L233.36 433.439L221.456 429.31L222.86 425.262L248.514 434.16L247.11 438.208ZM199.917 414.812C202.068 415.763 203.847 416.985 205.253 418.479C206.62 419.956 207.621 421.639 208.256 423.527C208.836 425.436 209.036 427.476 208.857 429.647C208.661 431.856 208.045 434.133 207.009 436.476C205.956 438.858 204.678 440.864 203.176 442.496C201.636 444.111 199.973 445.328 198.188 446.146C196.385 447.002 194.497 447.43 192.523 447.43C190.51 447.413 188.485 446.954 186.449 446.054C184.452 445.171 182.808 444.008 181.517 442.565C180.188 441.105 179.236 439.467 178.661 437.651C178.069 435.874 177.856 433.966 178.023 431.928C178.189 429.889 178.74 427.813 179.674 425.7L180.642 423.511L202.653 433.241L203.264 431.859C203.841 430.552 204.165 429.249 204.235 427.948C204.305 426.647 204.134 425.424 203.722 424.278C203.272 423.114 202.592 422.056 201.682 421.102C200.716 420.17 199.542 419.399 198.159 418.787C196.162 417.904 194.229 417.601 192.362 417.878C190.495 418.154 188.82 418.929 187.339 420.203L184.958 416.395C186.725 414.789 188.934 413.791 191.586 413.402C194.182 413.034 196.959 413.504 199.917 414.812ZM188.131 442.251C189.398 442.811 190.672 443.099 191.951 443.113C193.231 443.128 194.452 442.91 195.615 442.46C196.74 441.993 197.779 441.304 198.733 440.394C199.631 439.505 200.369 438.408 200.946 437.102L201.124 436.699L184.069 429.159L183.788 429.792C183.211 431.098 182.896 432.383 182.843 433.645C182.751 434.891 182.901 436.059 183.291 437.15C183.626 438.262 184.219 439.259 185.069 440.14C185.881 441.004 186.901 441.708 188.131 442.251ZM176.217 409.26L166.676 403.863L154.889 424.7L164.979 430.408L162.87 434.136L152.78 428.429L149.492 434.242C148.417 436.143 147.045 437.417 145.375 438.065C143.669 438.693 141.738 438.396 139.581 437.176L130.095 431.811L132.204 428.082L143.555 434.502L148.393 425.948L137.042 419.527L139.152 415.799L150.503 422.219L162.289 401.382L152.199 395.674L154.308 391.946L178.326 405.531L176.217 409.26ZM135.284 377.651C137.106 379.002 138.521 380.548 139.53 382.29C140.505 384.007 141.078 385.843 141.248 387.8C141.359 389.765 141.072 391.774 140.386 393.827C139.675 395.914 138.543 398.003 136.992 400.095C135.466 402.153 133.807 403.825 132.017 405.111C130.226 406.398 128.387 407.256 126.499 407.686C124.552 408.125 122.616 408.127 120.69 407.692C118.731 407.232 116.84 406.327 115.018 404.975C113.197 403.624 111.798 402.09 110.823 400.374C109.814 398.632 109.254 396.778 109.143 394.813C108.973 392.857 109.243 390.835 109.954 388.748C110.666 386.661 111.784 384.589 113.31 382.531C114.862 380.44 116.533 378.751 118.323 377.464C120.089 376.212 121.945 375.366 123.892 374.927C125.779 374.497 127.703 374.512 129.663 374.972C131.589 375.407 133.463 376.3 135.284 377.651ZM132.695 381.142C130.435 379.466 128.112 378.789 125.729 379.113C123.345 379.437 121.102 381.015 119 383.849L116.223 387.593C114.121 390.427 113.262 393.032 113.644 395.407C114.026 397.782 115.348 399.808 117.608 401.484C119.868 403.16 122.19 403.837 124.574 403.513C126.958 403.19 129.201 401.611 131.302 398.777L134.08 395.033C136.181 392.199 137.041 389.595 136.659 387.219C136.276 384.844 134.955 382.818 132.695 381.142ZM113.246 366.523L106.634 359.684L89.4235 376.325L96.0361 383.164L92.9564 386.142L82.8403 375.68L88.7281 369.987L88.5091 369.76C86.2002 371.058 83.8901 371.539 81.579 371.203C79.2084 370.866 77.0159 369.656 75.0015 367.573L71.8484 364.312L75.4716 360.808L79.7195 365.201C81.734 367.285 83.9727 368.392 86.4359 368.522C88.8698 368.623 91.0681 367.724 93.0307 365.826L103.13 356.061L94.3719 347.003L97.4517 344.025L116.326 363.545L113.246 366.523ZM91.7183 337.007L63.9085 353.841L61.4943 349.853L64.728 347.895L64.5975 347.68C63.2586 347.901 61.9727 347.845 60.7397 347.511C59.5066 347.177 58.4225 346.238 57.4873 344.693C56.5086 343.076 56.1931 341.622 56.541 340.332C56.853 339.063 57.6013 337.947 58.7861 336.984L58.6882 336.823C57.1262 337.081 55.6492 336.993 54.2573 336.559C52.8654 336.125 51.6693 335.082 50.6688 333.429C49.2986 331.165 49.1755 329.178 50.2997 327.466C51.4021 325.719 53.4265 323.954 56.3727 322.17L75.667 310.49L78.0813 314.479L59.4876 325.734C57.1162 327.17 55.6336 328.411 55.0399 329.457C54.3884 330.49 54.4542 331.653 55.2372 332.947C55.9332 334.096 56.8759 334.802 58.0655 335.064C59.219 335.348 60.5504 335.033 62.0594 334.119L82.4855 321.755L84.8998 325.743L66.3061 336.998C63.9347 338.434 62.4521 339.675 61.8584 340.721C61.2069 341.754 61.2618 342.899 62.0231 344.157C62.7191 345.306 63.6727 346.03 64.884 346.328C66.0375 346.612 67.3689 346.297 68.8779 345.383L89.3041 333.019L91.7183 337.007Z" fill="#0039FF"/>
<path d="M349.664 264.877L357.314 279.817C360.104 285.307 361.544 287.467 368.114 287.467V289.627H363.704C351.734 289.627 350.204 288.457 345.974 279.367L334.184 255.517H332.834C331.124 255.517 329.504 255.427 327.974 255.337V280.357C327.974 285.847 329.234 287.467 337.604 287.467V289.627H308.354V287.467C316.724 287.467 317.894 285.847 317.894 280.357V226.897C317.894 221.407 316.724 219.787 308.354 219.787V217.627H336.074C352.184 217.627 359.384 224.557 359.384 235.987C359.384 248.047 351.014 253.357 340.484 254.977C344.084 256.057 346.514 258.037 349.664 264.877ZM327.974 224.647V251.827C329.594 252.007 331.304 252.097 333.104 252.097C342.284 252.097 349.034 247.597 349.034 236.257C349.034 226.447 343.994 221.317 335.264 221.317C333.374 221.317 331.484 221.587 329.594 222.217C328.424 222.667 327.974 223.567 327.974 224.647ZM398.05 270.367H400.21C398.32 284.857 392.2 291.067 383.74 291.067C373.57 291.067 367.18 281.437 367.18 266.587C367.18 252.367 373.48 240.307 384.19 240.307C394.72 240.307 399.67 250.207 399.67 263.347H375.91V263.527C375.91 275.767 379.69 284.407 387.16 284.407C391.21 284.407 395.89 281.257 398.05 270.367ZM384.19 244.087C378.79 244.087 376.54 250.657 376 259.657H391.03C391.03 251.017 389.5 244.087 384.19 244.087ZM428.707 215.197C435.277 215.197 439.597 218.707 439.597 222.217C439.597 224.467 438.067 226.537 435.097 226.537C432.937 226.537 431.857 225.187 430.417 223.027C428.707 220.417 427.987 219.427 426.277 219.427C422.677 219.427 420.247 222.937 420.247 233.647V241.927H430.327V245.617H420.247V280.357C420.247 286.117 421.507 287.467 429.337 287.467V289.627H404.767V287.467C410.617 287.467 411.517 286.117 411.517 280.357V245.617H405.577V242.647L411.517 242.197V235.267C411.517 220.147 420.787 215.197 428.707 215.197ZM451.833 291.067C440.133 291.067 432.483 280.717 432.483 265.957C432.483 251.467 439.593 240.307 451.833 240.307C463.443 240.307 471.183 250.657 471.183 265.417C471.183 279.907 463.983 291.067 451.833 291.067ZM453.183 287.107C459.573 287.107 462.093 278.647 462.093 270.727C462.093 258.487 458.403 244.267 450.483 244.267C444.093 244.267 441.483 252.727 441.483 260.647C441.483 272.887 445.263 287.107 453.183 287.107ZM502.187 240.307C505.337 240.307 507.047 242.107 507.047 245.077C507.047 248.587 504.977 250.837 502.637 250.837C501.017 250.837 500.297 250.207 499.127 248.947C497.957 247.777 497.507 247.417 496.427 247.417C494.357 247.417 491.927 250.387 490.037 255.877V279.817C490.037 285.937 491.387 287.377 499.577 287.377V289.627H475.277V287.467C480.497 287.467 481.397 286.117 481.397 280.357V252.637C481.397 246.607 481.397 245.347 475.997 247.597L475.097 245.527L482.297 242.647L488.417 240.127L490.037 241.477V250.117H490.307C492.827 245.347 497.237 240.307 502.187 240.307ZM570.922 253.267V280.357C570.922 286.117 571.732 287.467 576.952 287.467V289.627H557.062V287.467C561.562 287.467 562.282 286.117 562.282 280.357V253.717C562.282 248.857 560.482 246.607 557.242 246.607C554.002 246.607 551.122 248.857 547.972 253.087V253.267V280.357C547.972 286.117 548.692 287.467 553.192 287.467V289.627H534.022V287.467C538.612 287.467 539.332 286.117 539.332 280.357V253.717C539.332 248.857 537.532 246.607 534.292 246.607C530.962 246.607 527.992 248.947 524.752 253.447V280.357C524.752 286.117 525.472 287.467 530.062 287.467V289.627H509.992V287.467C515.302 287.467 516.112 286.117 516.112 280.357V252.637C516.112 246.607 516.112 245.437 510.802 247.597L509.902 245.617L523.042 240.127L524.752 241.477V249.757H525.022C528.442 244.627 532.312 240.307 538.432 240.307C543.742 240.307 546.892 243.637 547.792 249.757H548.062C551.392 244.627 555.262 240.307 561.382 240.307C567.682 240.307 570.922 244.987 570.922 253.267Z" fill="#0039FF"/>
</svg>
