<svg width="887" height="528" viewBox="0 0 887 528" fill="none" xmlns="http://www.w3.org/2000/svg">
<path d="M61.2722 258.103L62.9329 248.736L39.3605 244.556L37.6998 253.923L33.4816 253.175L36.0222 238.846L44.0864 240.276L44.1414 239.965C41.736 238.857 39.9916 237.268 38.9082 235.199C37.7907 233.081 37.4849 230.596 37.9908 227.742L38.7827 223.276L43.7453 224.156L42.6785 230.173C42.1726 233.026 42.5891 235.489 43.928 237.56C45.2742 239.59 47.2914 240.844 49.9795 241.32L63.8128 243.773L66.0124 231.367L70.2306 232.114L65.4904 258.85L61.2722 258.103ZM81.0313 209.795C79.9247 211.87 78.5747 213.554 76.9813 214.847C75.4077 216.102 73.6562 216.977 71.7267 217.471C69.7799 217.909 67.7306 217.958 65.5787 217.62C63.3897 217.262 61.1648 216.48 58.9041 215.275C56.6063 214.05 54.6988 212.628 53.1817 211.01C51.6843 209.355 50.5934 207.607 49.9088 205.767C49.1872 203.906 48.8991 201.992 49.0447 200.023C49.21 198.017 49.8163 196.031 50.8636 194.067C51.8911 192.14 53.1719 190.586 54.706 189.405C56.2599 188.186 57.9632 187.357 59.8161 186.917C61.632 186.458 63.5504 186.386 65.5713 186.702C67.5923 187.018 69.622 187.719 71.6604 188.806L73.7728 189.932L62.4501 211.168L63.7843 211.88C65.0444 212.552 66.3205 212.97 67.6127 213.136C68.9048 213.301 70.1376 213.221 71.3111 212.894C72.5044 212.531 73.6099 211.93 74.6277 211.093C75.6281 210.198 76.4841 209.084 77.1954 207.75C78.223 205.823 78.6675 203.918 78.5289 202.035C78.3903 200.153 77.7404 198.426 76.579 196.855L80.5515 194.76C82.0242 196.64 82.857 198.917 83.05 201.59C83.2257 204.206 82.5528 206.941 81.0313 209.795ZM54.5326 196.023C53.8805 197.246 53.5002 198.495 53.3916 199.77C53.2831 201.045 53.4105 202.279 53.7738 203.472C54.1568 204.628 54.7672 205.715 55.6049 206.733C56.4252 207.694 57.4654 208.511 58.7255 209.182L59.1146 209.39L67.8882 192.935L67.2767 192.609C66.0167 191.937 64.7591 191.528 63.504 191.383C62.2687 191.2 61.0927 191.263 59.976 191.572C58.8421 191.824 57.8045 192.342 56.8633 193.125C55.9418 193.871 55.1649 194.837 54.5326 196.023ZM102.326 179.524C100.06 182.061 97.6781 183.876 95.1815 184.968C92.6815 186.001 90.1374 186.516 87.5494 186.513L87.6081 182.003C89.8649 181.935 91.9379 181.506 93.8269 180.716C95.7158 179.926 97.5278 178.56 99.2628 176.618C100.942 174.739 101.984 172.91 102.39 171.132C102.792 169.295 102.273 167.733 100.832 166.446C100.206 165.886 99.5772 165.55 98.9462 165.436C98.3119 165.264 97.6875 165.269 97.0732 165.453C96.4588 165.636 95.8651 165.922 95.2921 166.311C94.6878 166.672 94.0868 167.093 93.4891 167.573L89.5253 170.874C88.6445 171.608 87.6467 172.378 86.532 173.184C85.4453 173.959 84.3032 174.544 83.1059 174.939C81.8772 175.305 80.6038 175.407 79.2858 175.243C77.9958 175.048 76.693 174.362 75.3776 173.187C74.1562 172.096 73.3168 170.923 72.8597 169.67C72.3991 168.357 72.2631 166.997 72.4516 165.588C72.6087 164.152 73.0781 162.712 73.8596 161.27C74.6098 159.8 75.6145 158.361 76.8738 156.951C78.8326 154.759 80.8701 153.172 82.9863 152.19C85.1305 151.177 87.331 150.637 89.5879 150.57L89.7072 155.069C89.1108 155.043 88.4445 155.096 87.7082 155.226C86.9686 155.298 86.178 155.521 85.3364 155.895C84.4915 156.21 83.6113 156.691 82.6958 157.338C81.7803 157.984 80.8469 158.84 79.8954 159.905C78.1884 161.815 77.202 163.581 76.9363 165.202C76.6985 166.792 77.206 168.147 78.4588 169.266C79.0852 169.826 79.7156 170.192 80.3499 170.364C80.981 170.477 81.6036 170.442 82.218 170.259C82.8323 170.076 83.4417 169.804 84.046 169.442C84.647 169.022 85.2323 168.587 85.802 168.139L89.7658 164.837C90.6746 164.072 91.6724 163.302 92.7591 162.527C93.8459 161.752 95.0036 161.182 96.2323 160.815C97.4296 160.42 98.6733 160.321 99.9634 160.516C101.281 160.68 102.598 161.349 103.914 162.525C106.325 164.679 107.349 167.284 106.986 170.338C106.65 173.362 105.097 176.423 102.326 179.524ZM105.911 121.156C104.757 122.065 103.766 122.471 102.941 122.373C102.089 122.242 101.377 121.814 100.805 121.088L100.181 120.296C99.6096 119.57 99.3727 118.794 99.4707 117.969C99.5427 117.11 100.156 116.226 101.311 115.316C102.466 114.406 103.469 114.017 104.321 114.148C105.146 114.246 105.845 114.658 106.417 115.384L107.041 116.176C107.612 116.901 107.862 117.694 107.79 118.552C107.692 119.378 107.066 120.246 105.911 121.156ZM116.637 157.779L125.842 150.527L111.027 131.722L101.823 138.973L99.1715 135.608L112.335 125.238L129.801 147.408L138.412 140.625L141.063 143.99L119.289 161.144L116.637 157.779ZM160.636 132.703C157.713 134.445 154.897 135.463 152.188 135.757C149.494 135.994 146.912 135.723 144.444 134.945L145.851 130.659C148.024 131.271 150.13 131.483 152.169 131.295C154.208 131.106 156.346 130.346 158.583 129.013C160.748 127.723 162.29 126.29 163.21 124.716C164.144 123.083 164.117 121.437 163.128 119.778C162.698 119.056 162.199 118.547 161.63 118.25C161.077 117.895 160.48 117.713 159.838 117.704C159.197 117.695 158.545 117.79 157.882 117.99C157.197 118.154 156.498 118.375 155.784 118.653L151.013 120.616C149.953 121.052 148.77 121.488 147.465 121.924C146.196 122.338 144.932 122.553 143.671 122.571C142.389 122.553 141.144 122.268 139.935 121.717C138.763 121.144 137.725 120.101 136.822 118.585C135.984 117.178 135.534 115.808 135.473 114.475C135.427 113.085 135.705 111.746 136.307 110.459C136.887 109.135 137.766 107.902 138.943 106.761C140.1 105.583 141.489 104.51 143.113 103.543C145.639 102.038 148.058 101.134 150.371 100.831C152.72 100.507 154.981 100.651 157.155 101.262L155.921 105.591C155.36 105.388 154.708 105.238 153.967 105.142C153.24 104.989 152.418 104.965 151.503 105.07C150.603 105.118 149.619 105.313 148.552 105.655C147.485 105.998 146.338 106.535 145.111 107.266C142.91 108.577 141.44 109.966 140.701 111.434C139.998 112.879 140.077 114.324 140.937 115.767C141.367 116.488 141.858 117.027 142.412 117.381C142.98 117.678 143.585 117.831 144.226 117.84C144.867 117.85 145.53 117.772 146.214 117.609C146.914 117.388 147.602 117.148 148.28 116.891L153.051 114.928C154.147 114.471 155.33 114.035 156.599 113.621C157.868 113.207 159.143 113.009 160.425 113.028C161.686 113.01 162.902 113.287 164.075 113.86C165.283 114.411 166.339 115.444 167.242 116.959C168.897 119.738 169.094 122.529 167.832 125.335C166.607 128.119 164.208 130.575 160.636 132.703ZM194.694 113.979C192.446 115.021 190.497 115.162 188.847 114.399C187.235 113.619 185.969 112.239 185.05 110.258L176.3 91.3987L166.471 95.9593L164.668 92.0732L171.983 88.6793C172.973 88.2197 173.571 87.711 173.775 87.1533C174 86.5397 173.882 85.7377 173.423 84.7471L169.843 77.032L174.243 74.9904L179.069 85.3914L192.499 79.1604L194.302 83.0465L180.872 89.2775L190.948 110.994L204.378 104.763L206.181 108.649L194.694 113.979ZM249.358 88.3276L258.51 85.7348L251.985 62.7011L242.833 65.2939L241.665 61.1721L255.667 57.2056L257.899 65.0856L258.202 64.9997C258.151 62.3516 258.819 60.0887 260.208 58.2111C261.626 56.2816 263.729 54.9219 266.517 54.1321L270.881 52.8958L272.255 57.745L266.375 59.4105C263.587 60.2004 261.553 61.6496 260.273 63.7583C259.034 65.8554 258.786 68.2173 259.53 70.844L263.36 84.3611L275.483 80.927L276.65 85.0488L250.525 92.4494L249.358 88.3276ZM301.389 80.1403C299.089 80.6328 296.932 80.6869 294.917 80.3024C292.942 79.9091 291.144 79.1345 289.522 77.9786C287.932 76.7728 286.573 75.2384 285.444 73.3756C284.306 71.4717 283.469 69.2672 282.932 66.762C282.387 64.2157 282.243 61.8411 282.502 59.6382C282.801 57.4264 283.433 55.4655 284.399 53.7554C285.355 52.0043 286.633 50.5494 288.232 49.3909C289.871 48.2236 291.78 47.4068 293.956 46.9406C296.092 46.4833 298.106 46.46 299.998 46.8709C301.931 47.273 303.663 48.0402 305.194 49.1727C306.716 50.2641 308.008 51.684 309.07 53.4324C310.132 55.1808 310.905 57.1844 311.388 59.4432L311.89 61.7841L288.357 66.8242L288.674 68.3026C288.973 69.699 289.476 70.9442 290.183 72.0385C290.89 73.1327 291.746 74.0231 292.752 74.7096C293.799 75.3873 294.971 75.8451 296.268 76.0828C297.597 76.2707 299 76.2063 300.479 75.8897C302.614 75.4323 304.357 74.5436 305.706 73.2237C307.056 71.9039 307.957 70.2935 308.409 68.3927L312.571 70.0784C312.084 72.4163 310.881 74.5209 308.962 76.3922C307.076 78.2136 304.551 79.463 301.389 80.1403ZM294.827 51.0064C293.472 51.2967 292.272 51.8114 291.228 52.5505C290.183 53.2896 289.322 54.1827 288.645 55.2299C288.008 56.2682 287.571 57.4357 287.333 58.7322C287.128 59.9789 287.174 61.3004 287.473 62.6968L287.566 63.128L305.8 59.2226L305.655 58.545C305.356 57.1486 304.857 55.9239 304.159 54.8707C303.502 53.8088 302.696 52.9506 301.74 52.2964C300.816 51.5923 299.751 51.1331 298.545 50.9188C297.381 50.6958 296.141 50.725 294.827 51.0064ZM338.299 73.4104C334.936 73.9231 331.944 73.8056 329.323 73.058C326.738 72.2625 324.448 71.0395 322.455 69.3891L325.372 65.9492C327.155 67.3343 329.026 68.3236 330.986 68.9171C332.946 69.5105 335.213 69.6111 337.787 69.2187C340.278 68.8389 342.247 68.0928 343.691 66.9804C345.171 65.8201 345.766 64.285 345.475 62.3751C345.348 61.5447 345.078 60.8849 344.663 60.3958C344.284 59.8588 343.799 59.4653 343.209 59.2155C342.618 58.9656 341.978 58.8082 341.289 58.7434C340.593 58.6371 339.862 58.5786 339.095 58.5679L333.937 58.5895C332.79 58.5944 331.531 58.5527 330.158 58.4646C328.826 58.3701 327.573 58.0938 326.399 57.6355C325.218 57.1358 324.172 56.4031 323.26 55.4375C322.389 54.4655 321.821 53.1076 321.555 51.3638C321.308 49.7445 321.408 48.3061 321.853 47.0486C322.334 45.7432 323.096 44.6075 324.138 43.6414C325.174 42.6338 326.453 41.8229 327.973 41.2087C329.488 40.553 331.179 40.0827 333.048 39.7979C335.954 39.3549 338.536 39.4287 340.793 40.0194C343.091 40.6037 345.131 41.5884 346.915 42.9736L344.141 46.519C343.698 46.1192 343.151 45.7353 342.5 45.3672C341.884 44.9512 341.133 44.6196 340.245 44.3725C339.393 44.0776 338.408 43.8878 337.291 43.8033C336.173 43.7187 334.909 43.784 333.497 43.9992C330.964 44.3853 329.079 45.1187 327.842 46.1995C326.646 47.2739 326.175 48.6416 326.428 50.3024C326.555 51.1328 326.808 51.8165 327.187 52.3535C327.601 52.8426 328.104 53.2121 328.694 53.462C329.284 53.7119 329.928 53.89 330.624 53.9963C331.355 54.0548 332.083 54.0926 332.808 54.1095L337.966 54.0879C339.154 54.0768 340.414 54.1184 341.745 54.2129C343.077 54.3073 344.333 54.6044 345.514 55.1042C346.688 55.5625 347.71 56.2775 348.581 57.2495C349.493 58.2151 350.082 59.5698 350.347 61.3137C350.835 64.5108 349.966 67.1711 347.74 69.2947C345.556 71.412 342.409 72.7839 338.299 73.4104ZM373.518 28.3797C372.055 28.5193 371.003 28.3243 370.361 27.7948C369.716 27.2235 369.35 26.4779 369.262 25.5581L369.166 24.5547C369.079 23.6348 369.299 22.8543 369.829 22.2132C370.354 21.5302 371.349 21.1189 372.812 20.9793C374.276 20.8397 375.33 21.0556 375.975 21.6269C376.616 22.1564 376.981 22.8811 377.068 23.8009L377.164 24.8043C377.252 25.7241 377.033 26.5256 376.507 27.2085C375.978 27.8497 374.982 28.2401 373.518 28.3797ZM362.707 64.9777L374.372 63.865L372.098 40.0332L360.433 41.1459L360.027 36.8813L376.709 35.2899L379.389 63.3864L390.301 62.3455L390.708 66.6101L363.113 69.2424L362.707 64.9777ZM413.358 66.2457C409.959 66.3868 406.998 65.9422 404.475 64.9119C401.993 63.838 399.851 62.3715 398.05 60.5126L401.327 57.4131C402.947 58.9852 404.699 60.1736 406.582 60.9782C408.465 61.7828 410.707 62.1311 413.309 62.0231C415.827 61.9186 417.865 61.3926 419.423 60.4451C421.021 59.454 421.78 57.9933 421.7 56.0629C421.665 55.2236 421.469 54.5382 421.11 54.0066C420.792 53.4313 420.353 52.9871 419.794 52.6741C419.234 52.361 418.615 52.1345 417.937 51.9945C417.257 51.8125 416.537 51.6743 415.776 51.5798L410.646 51.0361C409.506 50.9152 408.259 50.7358 406.904 50.4978C405.59 50.2581 404.375 49.8461 403.258 49.2619C402.139 48.6358 401.179 47.7929 400.379 46.7332C399.62 45.6717 399.204 44.2598 399.131 42.4973C399.063 40.8607 399.319 39.4418 399.9 38.2407C400.521 36.9959 401.402 35.9505 402.544 35.1044C403.684 34.2163 405.044 33.5504 406.623 33.1065C408.2 32.6207 409.933 32.3385 411.821 32.2602C414.759 32.1382 417.317 32.4944 419.495 33.3288C421.716 34.1614 423.636 35.3638 425.257 36.9359L422.112 40.1562C421.715 39.7102 421.213 39.2687 420.606 38.8315C420.04 38.3505 419.329 37.9387 418.474 37.5958C417.66 37.2093 416.702 36.9128 415.6 36.7063C414.499 36.4998 413.234 36.4261 411.808 36.4854C409.248 36.5916 407.294 37.1141 405.946 38.0528C404.639 38.9898 404.021 40.2976 404.091 41.9761C404.126 42.8154 404.302 43.5227 404.62 44.098C404.979 44.6296 405.437 45.0519 405.997 45.365C406.556 45.6781 407.176 45.9256 407.856 46.1075C408.577 46.2458 409.296 46.363 410.015 46.4593L415.145 47.003C416.327 47.1221 417.574 47.3015 418.887 47.5413C420.2 47.781 421.416 48.2139 422.535 48.8401C423.652 49.4242 424.59 50.247 425.349 51.3085C426.15 52.3682 426.587 53.7793 426.66 55.5418C426.794 58.773 425.639 61.3221 423.194 63.1891C420.791 65.0544 417.513 66.0732 413.358 66.2457ZM452.278 64.937C449.8 64.9111 447.98 64.1991 446.819 62.8009C445.699 61.4032 445.151 59.6123 445.174 57.4285L445.391 36.6396L434.555 36.5265L434.6 32.2427L442.664 32.3269C443.756 32.3383 444.514 32.1362 444.938 31.7206C445.405 31.2634 445.644 30.4889 445.655 29.397L445.744 20.8924L450.595 20.943L450.475 32.4084L465.28 32.5629L465.235 36.8467L450.431 36.6922L450.181 60.6309L464.985 60.7854L464.94 65.0692L452.278 64.937ZM512.587 63.7963L522.035 64.9069L524.83 41.1306L515.382 40.02L515.882 35.7653L530.335 37.4643L529.379 45.5983L529.692 45.6351C530.659 43.169 532.143 41.3348 534.145 40.1323C536.194 38.893 538.657 38.4425 541.535 38.7808L546.04 39.3104L545.452 44.3159L539.383 43.6025C536.504 43.2642 534.07 43.8238 532.081 45.2815C530.133 46.7441 528.999 48.831 528.681 51.5424L527.04 65.4953L539.554 66.9663L539.054 71.221L512.087 68.051L512.587 63.7963ZM563.822 76.013C561.506 75.6053 559.486 74.8447 557.763 73.7312C556.081 72.625 554.706 71.2315 553.637 69.5508C552.617 67.836 551.934 65.9033 551.587 63.7527C551.248 61.5607 551.3 59.2031 551.744 56.6799C552.196 54.1153 552.955 51.8608 554.022 49.9163C555.131 47.9792 556.454 46.3995 557.991 45.1774C559.535 43.914 561.266 43.0458 563.183 42.573C565.141 42.1073 567.216 42.0675 569.409 42.4533C571.56 42.8318 573.435 43.5669 575.034 44.6586C576.674 45.7576 577.991 47.1194 578.984 48.7442C579.985 50.3276 580.649 52.129 580.976 54.1482C581.303 56.1674 581.266 58.3146 580.866 60.5896L580.451 62.9474L556.749 58.776L556.487 60.2651C556.239 61.6715 556.237 63.0145 556.481 64.2942C556.725 65.5738 557.184 66.7208 557.859 67.735C558.575 68.7565 559.489 69.6211 560.601 70.3285C561.762 71.0019 563.087 71.4697 564.576 71.7318C566.727 72.1103 568.675 71.9415 570.422 71.2254C572.169 70.5093 573.608 69.3554 574.741 67.7637L577.965 70.8898C576.635 72.8733 574.73 74.3717 572.249 75.385C569.816 76.3642 567.007 76.5735 563.822 76.013ZM568.688 46.5483C567.323 46.3081 566.018 46.3343 564.772 46.6268C563.527 46.9193 562.393 47.4235 561.371 48.1393C560.391 48.8623 559.547 49.78 558.84 50.8922C558.181 51.9703 557.728 53.2125 557.48 54.6189L557.404 55.0532L575.77 58.2855L575.89 57.603C576.137 56.1966 576.136 54.8743 575.884 53.636C575.675 52.405 575.25 51.3067 574.609 50.3411C574.018 49.3414 573.203 48.5158 572.167 47.8642C571.171 47.2199 570.012 46.7813 568.688 46.5483ZM600.543 83.6956C597.235 82.898 594.51 81.6575 592.367 79.9741C590.275 78.2597 588.618 76.2616 587.397 73.9797L591.399 71.8989C592.525 73.8556 593.883 75.4793 595.473 76.77C597.063 78.0606 599.123 79.0113 601.655 79.6218C604.104 80.2126 606.209 80.2664 607.967 79.7832C609.776 79.269 610.907 78.0728 611.36 76.1946C611.557 75.3781 611.556 74.665 611.357 74.0554C611.209 73.4149 610.909 72.8673 610.457 72.4126C610.005 71.958 609.472 71.5702 608.858 71.2494C608.254 70.8877 607.6 70.5569 606.894 70.2572L602.111 68.3259C601.048 67.8967 599.898 67.3816 598.66 66.7807C597.463 66.1896 596.408 65.4599 595.494 64.5914C594.59 63.6821 593.898 62.6081 593.42 61.3692C592.982 60.1403 592.969 58.6684 593.383 56.9536C593.767 55.3612 594.403 54.0673 595.291 53.0718C596.23 52.0453 597.365 51.282 598.695 50.782C600.035 50.2411 601.525 49.974 603.165 49.9808C604.815 49.9467 606.559 50.1512 608.396 50.5943C611.254 51.2836 613.616 52.3285 615.482 53.7289C617.388 55.1392 618.905 56.8227 620.032 58.7794L616.123 61.0123C615.864 60.4745 615.503 59.9122 615.039 59.3252C614.627 58.7072 614.057 58.116 613.329 57.5516C612.651 56.9562 611.811 56.408 610.809 55.907C609.806 55.406 608.611 54.9881 607.223 54.6533C604.732 54.0526 602.71 54.0185 601.156 54.551C599.642 55.0933 598.689 56.181 598.295 57.8142C598.098 58.6308 598.074 59.3594 598.221 59.9999C598.42 60.6095 598.745 61.1416 599.197 61.5962C599.649 62.0509 600.177 62.459 600.781 62.8207C601.436 63.1515 602.096 63.4618 602.76 63.7517L607.544 65.683C608.648 66.122 609.798 66.6371 610.995 67.2282C612.192 67.8192 613.242 68.5694 614.146 69.4787C615.06 70.3472 615.736 71.3959 616.174 72.6248C616.653 73.8637 616.685 75.3405 616.272 77.0553C615.514 80.1992 613.703 82.3331 610.84 83.4571C608.017 84.591 604.585 84.6704 600.543 83.6956ZM650.532 55.6864C649.13 55.2464 648.236 54.6578 647.851 53.9208C647.478 53.1437 647.431 52.3143 647.707 51.4327L648.009 50.4709C648.285 49.5892 648.792 48.9559 649.529 48.5709C650.279 48.1458 651.355 48.1532 652.758 48.5932C654.16 49.0332 655.048 49.6418 655.42 50.4189C655.805 51.156 655.859 51.9653 655.583 52.8469L655.281 53.8087C655.005 54.6904 654.491 55.3437 653.742 55.7688C653.005 56.1539 651.935 56.1264 650.532 55.6864ZM626.349 85.2072L637.53 88.7147L644.696 65.8724L633.515 62.3648L634.797 58.2773L650.787 63.2934L642.339 90.2233L652.798 93.5046L651.516 97.5921L625.067 89.2948L626.349 85.2072ZM672.337 106.488C669.181 105.22 666.664 103.598 664.787 101.622C662.965 99.6228 661.615 97.4058 660.738 94.9712L664.998 93.4917C665.83 95.591 666.938 97.3942 668.324 98.9015C669.71 100.409 671.612 101.648 674.028 102.618C676.366 103.558 678.44 103.916 680.25 103.692C682.114 103.445 683.407 102.426 684.127 100.633C684.44 99.8534 684.542 99.1478 684.434 98.5159C684.381 97.8606 684.163 97.2754 683.782 96.7601C683.4 96.2448 682.929 95.7839 682.368 95.3775C681.823 94.9322 681.223 94.5101 680.568 94.1114L676.115 91.5077C675.125 90.9291 674.062 90.2529 672.924 89.4791C671.826 88.7209 670.887 87.846 670.109 86.8544C669.346 85.8237 668.817 84.6609 668.523 83.3658C668.267 82.0863 668.468 80.6282 669.126 78.9913C669.736 77.4714 670.553 76.2832 671.576 75.4268C672.654 74.5471 673.887 73.9561 675.276 73.654C676.68 73.3129 678.193 73.2645 679.815 73.5087C681.452 73.7139 683.148 74.1687 684.902 74.8732C687.63 75.9692 689.816 77.3451 691.459 79.0009C693.141 80.6724 694.398 82.5578 695.229 84.657L691.039 86.3004C690.86 85.7307 690.584 85.122 690.211 84.4741C689.892 83.8029 689.413 83.1354 688.775 82.4715C688.191 81.7843 687.439 81.1203 686.52 80.4794C685.6 79.8385 684.478 79.2519 683.153 78.7196C680.776 77.7645 678.78 77.4379 677.165 77.7397C675.589 78.0572 674.488 78.9953 673.862 80.5542C673.548 81.3337 673.419 82.051 673.472 82.7063C673.581 83.3382 673.825 83.9118 674.207 84.4271C674.588 84.9424 675.052 85.4227 675.597 85.8681C676.197 86.2901 676.804 86.6927 677.42 87.0757L681.873 89.6795C682.902 90.2737 683.966 90.9499 685.064 91.7081C686.163 92.4662 687.093 93.3606 687.856 94.3912C688.635 95.3829 689.152 96.5184 689.407 97.7979C689.702 99.093 689.52 100.559 688.863 102.196C687.657 105.197 685.556 107.046 682.56 107.743C679.603 108.457 676.196 108.038 672.337 106.488ZM708.003 122C705.797 120.871 704.486 119.423 704.07 117.653C703.691 115.903 703.999 114.056 704.993 112.111L714.459 93.6007L704.811 88.6672L706.761 84.853L713.941 88.5244C714.913 89.0216 715.682 89.1788 716.247 88.9961C716.869 88.7951 717.428 88.2084 717.925 87.2362L721.798 79.6638L726.117 81.8723L720.896 92.0811L734.078 98.8215L732.127 102.636L718.946 95.8953L708.046 117.21L721.228 123.951L719.278 127.765L708.003 122ZM761.324 150.78L768.41 157.127L784.383 139.296L777.298 132.948L780.156 129.757L790.996 139.468L785.531 145.568L785.766 145.778C787.976 144.318 790.245 143.673 792.575 143.842C794.963 144.009 797.237 145.059 799.395 146.992L802.774 150.019L799.411 153.773L794.859 149.695C792.701 147.762 790.389 146.818 787.922 146.864C785.488 146.939 783.359 147.992 781.538 150.026L772.164 160.49L781.549 168.897L778.69 172.088L758.466 153.971L761.324 150.78ZM794.019 191.943C792.609 190.061 791.657 188.124 791.163 186.133C790.694 184.175 790.645 182.218 791.016 180.261C791.445 178.313 792.27 176.436 793.489 174.631C794.742 172.8 796.394 171.117 798.445 169.582C800.529 168.021 802.625 166.897 804.734 166.209C806.868 165.556 808.914 165.309 810.871 165.47C812.862 165.606 814.718 166.158 816.439 167.125C818.186 168.126 819.726 169.517 821.06 171.299C822.369 173.047 823.233 174.866 823.652 176.756C824.096 178.68 824.124 180.574 823.736 182.439C823.382 184.278 822.633 186.046 821.49 187.742C820.346 189.438 818.85 190.978 817.001 192.363L815.085 193.798L800.659 174.535L799.448 175.441C798.305 176.297 797.385 177.275 796.687 178.375C795.989 179.475 795.539 180.626 795.336 181.827C795.159 183.061 795.234 184.317 795.56 185.594C795.946 186.88 796.592 188.127 797.498 189.338C798.807 191.086 800.344 192.297 802.107 192.97C803.871 193.643 805.71 193.787 807.626 193.402L807.837 197.888C805.509 198.424 803.095 198.212 800.592 197.253C798.148 196.302 795.957 194.532 794.019 191.943ZM817.732 173.791C816.901 172.682 815.932 171.807 814.823 171.168C813.715 170.529 812.544 170.121 811.309 169.944C810.099 169.8 808.856 169.891 807.579 170.218C806.361 170.553 805.18 171.149 804.037 172.005L803.684 172.269L814.862 187.195L815.417 186.78C816.56 185.924 817.464 184.959 818.128 183.884C818.818 182.843 819.26 181.751 819.454 180.609C819.706 179.475 819.678 178.316 819.368 177.131C819.083 175.98 818.538 174.867 817.732 173.791ZM811.849 224.309C810.612 221.14 810.072 218.195 810.228 215.474C810.438 212.777 811.13 210.276 812.304 207.969L816.299 210.062C815.338 212.105 814.782 214.148 814.632 216.19C814.482 218.232 814.881 220.466 815.827 222.892C816.743 225.24 817.902 226.997 819.304 228.163C820.76 229.353 822.388 229.597 824.188 228.895C824.97 228.589 825.555 228.181 825.941 227.67C826.382 227.182 826.66 226.623 826.775 225.992C826.889 225.361 826.903 224.702 826.815 224.015C826.766 223.313 826.663 222.587 826.506 221.836L825.355 216.808C825.1 215.69 824.864 214.452 824.65 213.093C824.45 211.773 824.446 210.49 824.636 209.244C824.865 207.982 825.351 206.801 826.093 205.7C826.851 204.638 828.051 203.786 829.695 203.145C831.221 202.549 832.646 202.331 833.971 202.491C835.35 202.674 836.624 203.169 837.795 203.974C839.005 204.764 840.076 205.834 841.009 207.184C841.98 208.518 842.809 210.065 843.496 211.826C844.565 214.565 845.058 217.1 844.976 219.431C844.909 221.802 844.395 224.009 843.434 226.052L839.367 224.122C839.66 223.602 839.915 222.984 840.132 222.268C840.403 221.576 840.562 220.77 840.609 219.851C840.71 218.954 840.679 217.952 840.517 216.843C840.355 215.734 840.014 214.515 839.495 213.184C838.564 210.797 837.436 209.119 836.11 208.148C834.8 207.217 833.362 207.056 831.797 207.667C831.015 207.972 830.403 208.369 829.962 208.856C829.576 209.368 829.325 209.939 829.211 210.57C829.096 211.201 829.063 211.867 829.112 212.569C829.215 213.296 829.337 214.014 829.479 214.725L830.63 219.754C830.901 220.911 831.136 222.149 831.335 223.469C831.535 224.788 831.52 226.079 831.291 227.341C831.101 228.587 830.627 229.741 829.869 230.803C829.127 231.905 827.934 232.776 826.29 233.417C823.278 234.592 820.491 234.327 817.932 232.62C815.388 230.953 813.36 228.183 811.849 224.309ZM859.637 260.595C859.584 259.126 859.841 258.087 860.407 257.478C861.015 256.868 861.781 256.546 862.705 256.513L863.712 256.476C864.636 256.443 865.402 256.71 866.01 257.276C866.661 257.841 867.013 258.858 867.066 260.327C867.119 261.796 866.841 262.836 866.233 263.446C865.666 264.055 864.921 264.376 863.998 264.409L862.99 264.446C862.067 264.479 861.28 264.213 860.629 263.648C860.02 263.082 859.69 262.064 859.637 260.595ZM823.741 247.64L824.163 259.35L848.087 258.489L847.666 246.779L851.947 246.624L852.55 263.372L824.344 264.387L824.739 275.342L820.457 275.496L819.46 247.794L823.741 247.64ZM813.992 296.809C815.026 293.568 816.46 290.939 818.293 288.923C820.154 286.96 822.266 285.452 824.63 284.398L826.417 288.54C824.384 289.522 822.667 290.76 821.265 292.252C819.863 293.744 818.766 295.731 817.975 298.212C817.209 300.613 817.003 302.707 817.358 304.496C817.741 306.337 818.852 307.552 820.693 308.139C821.493 308.394 822.204 308.445 822.826 308.291C823.476 308.189 824.044 307.93 824.53 307.512C825.016 307.094 825.441 306.59 825.805 306.001C826.21 305.424 826.587 304.795 826.937 304.113L829.208 299.482C829.713 298.452 830.31 297.342 830.998 296.151C831.674 295 832.478 294 833.41 293.151C834.382 292.315 835.503 291.703 836.774 291.315C838.031 290.967 839.5 291.061 841.18 291.597C842.741 292.095 843.986 292.823 844.914 293.78C845.871 294.791 846.55 295.977 846.953 297.34C847.396 298.716 847.554 300.221 847.429 301.857C847.344 303.505 847.015 305.229 846.44 307.03C845.546 309.831 844.334 312.111 842.802 313.871C841.258 315.671 839.47 317.062 837.437 318.044L835.492 313.985C836.047 313.765 836.634 313.446 837.253 313.026C837.899 312.659 838.53 312.133 839.145 311.447C839.788 310.815 840.395 310.017 840.967 309.053C841.539 308.089 842.042 306.927 842.476 305.567C843.255 303.126 843.435 301.111 843.016 299.523C842.584 297.974 841.568 296.945 839.968 296.434C839.167 296.179 838.443 296.102 837.793 296.203C837.171 296.357 836.616 296.643 836.13 297.061C835.644 297.479 835.199 297.977 834.795 298.553C834.418 299.182 834.061 299.818 833.724 300.46L831.452 305.091C830.935 306.161 830.338 307.271 829.662 308.422C828.986 309.573 828.162 310.566 827.19 311.402C826.258 312.251 825.163 312.85 823.906 313.198C822.636 313.586 821.16 313.512 819.48 312.976C816.399 311.993 814.401 310.033 813.487 307.096C812.559 304.199 812.728 300.77 813.992 296.809ZM797.672 331.464C799.06 329.411 800.657 328.286 802.464 328.088C804.248 327.924 806.044 328.454 807.853 329.678L825.076 341.322L831.145 332.345L834.694 334.744L830.178 341.425C829.566 342.33 829.317 343.073 829.429 343.657C829.553 344.298 830.068 344.925 830.972 345.536L838.018 350.3L835.301 354.319L825.802 347.897L817.51 360.162L813.961 357.762L822.253 345.497L802.421 332.089L794.129 344.354L790.58 341.954L797.672 331.464ZM759.307 378.132L751.517 383.593L765.258 403.196L773.048 397.736L775.507 401.244L763.59 409.597L758.889 402.891L758.631 403.071C759.552 405.555 759.665 407.912 758.971 410.142C758.267 412.431 756.729 414.407 754.356 416.07L750.642 418.674L747.749 414.547L752.753 411.039C755.126 409.375 756.57 407.338 757.084 404.925C757.564 402.537 757.021 400.225 755.454 397.99L747.39 386.485L737.072 393.718L734.613 390.21L756.848 374.624L759.307 378.132ZM712.407 402.06C714.479 400.946 716.536 400.293 718.578 400.101C720.584 399.928 722.526 400.171 724.406 400.829C726.269 401.545 728.002 402.639 729.606 404.114C731.229 405.625 732.648 407.509 733.861 409.765C735.094 412.059 735.894 414.299 736.26 416.487C736.588 418.695 736.527 420.754 736.077 422.665C735.646 424.614 734.825 426.367 733.612 427.925C732.362 429.503 730.757 430.819 728.797 431.874C726.873 432.908 724.946 433.491 723.014 433.624C721.046 433.777 719.168 433.522 717.382 432.861C715.616 432.238 713.98 431.234 712.473 429.851C710.966 428.467 709.665 426.758 708.571 424.724L707.438 422.615L728.633 411.217L727.917 409.886C727.241 408.628 726.411 407.572 725.427 406.718C724.443 405.864 723.373 405.248 722.215 404.869C721.021 404.51 719.768 404.397 718.456 404.53C717.128 404.72 715.798 405.173 714.466 405.889C712.542 406.923 711.117 408.262 710.188 409.906C709.26 411.549 708.844 413.347 708.939 415.298L704.472 414.839C704.289 412.458 704.857 410.102 706.179 407.77C707.483 405.495 709.559 403.592 712.407 402.06ZM726.828 428.212C728.048 427.555 729.057 426.726 729.854 425.726C730.651 424.725 731.229 423.627 731.588 422.433C731.91 421.258 732.005 420.015 731.872 418.703C731.722 417.449 731.309 416.193 730.632 414.935L730.424 414.547L714 423.379L714.328 423.989C715.004 425.247 715.824 426.284 716.788 427.101C717.715 427.938 718.729 428.537 719.829 428.899C720.913 429.318 722.064 429.462 723.281 429.332C724.462 429.221 725.644 428.848 726.828 428.212ZM678.597 418.18C681.732 416.859 684.662 416.239 687.386 416.322C690.087 416.459 692.607 417.084 694.944 418.195L692.959 422.245C690.891 421.339 688.834 420.839 686.788 420.744C684.743 420.649 682.52 421.107 680.121 422.119C677.799 423.097 676.074 424.303 674.945 425.736C673.795 427.223 673.595 428.857 674.345 430.638C674.672 431.412 675.096 431.985 675.617 432.358C676.117 432.785 676.683 433.048 677.317 433.146C677.95 433.243 678.609 433.239 679.294 433.133C679.995 433.065 680.718 432.943 681.463 432.765L686.459 431.48C687.57 431.194 688.801 430.926 690.154 430.674C691.468 430.44 692.75 430.4 694.001 430.557C695.268 430.752 696.462 431.206 697.583 431.918C698.665 432.647 699.549 433.825 700.234 435.45C700.87 436.959 701.127 438.378 701.003 439.707C700.857 441.09 700.397 442.378 699.623 443.57C698.866 444.801 697.825 445.9 696.501 446.869C695.193 447.875 693.669 448.746 691.927 449.48C689.218 450.622 686.697 451.183 684.364 451.164C681.993 451.161 679.773 450.706 677.705 449.8L679.525 445.683C680.053 445.962 680.677 446.2 681.398 446.398C682.097 446.65 682.907 446.787 683.828 446.809C684.726 446.886 685.728 446.829 686.832 446.637C687.936 446.445 689.146 446.072 690.462 445.517C692.823 444.522 694.471 443.349 695.405 441.998C696.301 440.663 696.423 439.222 695.77 437.673C695.444 436.899 695.031 436.299 694.532 435.871C694.01 435.498 693.432 435.263 692.799 435.166C692.165 435.068 691.498 435.053 690.797 435.121C690.074 435.243 689.359 435.385 688.652 435.546L683.656 436.832C682.507 437.134 681.276 437.402 679.962 437.637C678.648 437.872 677.357 437.891 676.09 437.696C674.839 437.54 673.672 437.097 672.59 436.368C671.47 435.656 670.567 434.487 669.881 432.861C668.625 429.881 668.816 427.089 670.453 424.485C672.051 421.897 674.766 419.795 678.597 418.18ZM654.434 470.302C655.83 469.842 656.899 469.798 657.642 470.172C658.398 470.586 658.921 471.232 659.21 472.11L659.526 473.067C659.816 473.944 659.774 474.754 659.399 475.497C659.039 476.279 658.16 476.901 656.764 477.362C655.368 477.823 654.292 477.846 653.537 477.432C652.794 477.058 652.278 476.432 651.988 475.555L651.672 474.597C651.383 473.72 651.418 472.89 651.779 472.107C652.153 471.365 653.038 470.763 654.434 470.302ZM656.858 432.218L645.73 435.89L653.234 458.624L664.361 454.952L665.704 459.02L649.79 464.272L640.944 437.47L630.535 440.906L629.192 436.838L655.515 428.15L656.858 432.218ZM607.125 441.921C610.422 441.081 613.411 440.905 616.092 441.392C618.743 441.93 621.142 442.922 623.287 444.369L620.722 448.078C618.812 446.875 616.852 446.074 614.844 445.676C612.835 445.277 610.569 445.4 608.046 446.043C605.604 446.665 603.718 447.601 602.39 448.85C601.031 450.149 600.59 451.735 601.067 453.608C601.274 454.422 601.608 455.052 602.068 455.498C602.499 455.995 603.02 456.339 603.632 456.53C604.244 456.72 604.896 456.814 605.589 456.811C606.292 456.849 607.025 456.835 607.789 456.77L612.921 456.243C614.061 456.126 615.319 456.044 616.694 455.997C618.028 455.96 619.302 456.112 620.516 456.453C621.74 456.834 622.853 457.461 623.855 458.332C624.817 459.214 625.515 460.51 625.951 462.219C626.356 463.806 626.398 465.248 626.078 466.543C625.727 467.889 625.081 469.094 624.138 470.158C623.206 471.262 622.013 472.194 620.56 472.955C619.117 473.756 617.48 474.39 615.649 474.857C612.8 475.583 610.223 475.763 607.92 475.396C605.575 475.04 603.448 474.26 601.537 473.057L603.949 469.256C604.43 469.611 605.012 469.939 605.696 470.242C606.349 470.595 607.13 470.851 608.037 471.01C608.914 471.22 609.913 471.312 611.033 471.287C612.154 471.261 613.406 471.072 614.79 470.72C617.272 470.087 619.076 469.172 620.201 467.975C621.286 466.789 621.621 465.381 621.206 463.753C620.999 462.939 620.68 462.284 620.25 461.787C619.789 461.341 619.253 461.022 618.641 460.831C618.029 460.641 617.371 460.526 616.668 460.489C615.935 460.502 615.207 460.536 614.484 460.591L609.352 461.118C608.171 461.246 606.913 461.328 605.579 461.365C604.245 461.401 602.966 461.229 601.741 460.847C600.528 460.506 599.44 459.895 598.478 459.013C597.476 458.142 596.757 456.851 596.322 455.142C595.523 452.008 596.127 449.275 598.133 446.944C600.099 444.622 603.096 442.948 607.125 441.921ZM569.274 451.012C571.709 450.553 573.633 450.896 575.045 452.04C576.416 453.192 577.304 454.841 577.708 456.987L581.559 477.418L592.207 475.411L593.001 479.621L585.076 481.114C584.003 481.317 583.299 481.663 582.964 482.153C582.595 482.693 582.512 483.499 582.715 484.572L584.29 492.93L579.523 493.829L577.399 482.561L562.85 485.303L562.057 481.093L576.606 478.351L572.172 454.825L557.623 457.567L556.83 453.357L569.274 451.012ZM510.296 463.676L500.808 464.374L502.564 488.25L512.052 487.552L512.366 491.824L497.852 492.892L497.251 484.724L496.937 484.747C496.455 487.351 495.345 489.433 493.607 490.993C491.829 492.598 489.496 493.506 486.606 493.719L482.082 494.052L481.712 489.025L487.807 488.577C490.697 488.364 492.981 487.354 494.659 485.546C496.295 483.741 497.013 481.478 496.812 478.755L495.782 464.744L483.216 465.668L482.902 461.396L509.981 459.404L510.296 463.676ZM457.672 461.467C460.024 461.418 462.153 461.773 464.059 462.531C465.923 463.291 467.542 464.391 468.916 465.833C470.249 467.318 471.294 469.082 472.051 471.124C472.808 473.209 473.213 475.532 473.266 478.094C473.32 480.697 473.012 483.056 472.342 485.17C471.63 487.286 470.638 489.092 469.367 490.588C468.096 492.127 466.567 493.314 464.778 494.149C462.947 494.985 460.918 495.426 458.693 495.473C456.509 495.518 454.527 495.16 452.747 494.399C450.925 493.638 449.369 492.557 448.08 491.156C446.791 489.796 445.791 488.158 445.079 486.24C444.367 484.322 443.987 482.209 443.94 479.899L443.89 477.506L467.951 477.007L467.919 475.495C467.89 474.067 467.631 472.749 467.144 471.541C466.657 470.333 465.984 469.297 465.126 468.432C464.226 467.569 463.162 466.898 461.934 466.419C460.665 465.983 459.274 465.781 457.762 465.813C455.579 465.858 453.7 466.401 452.125 467.442C450.55 468.483 449.361 469.894 448.558 471.675L444.79 469.232C445.71 467.029 447.289 465.19 449.527 463.715C451.724 462.283 454.439 461.534 457.672 461.467ZM458.606 491.316C459.992 491.287 461.268 491.008 462.433 490.48C463.598 489.952 464.613 489.238 465.476 488.337C466.298 487.438 466.948 486.374 467.426 485.146C467.864 483.961 468.068 482.654 468.038 481.227L468.029 480.786L449.385 481.173L449.4 481.865C449.429 483.293 449.687 484.59 450.173 485.756C450.618 486.923 451.247 487.918 452.063 488.742C452.837 489.608 453.796 490.26 454.939 490.698C456.04 491.138 457.263 491.343 458.606 491.316ZM420.143 461.249C423.543 461.354 426.464 462.012 428.906 463.222C431.304 464.473 433.334 466.091 434.996 468.075L431.503 470.929C430.001 469.244 428.34 467.932 426.52 466.993C424.7 466.054 422.489 465.544 419.886 465.464C417.367 465.385 415.297 465.762 413.674 466.595C412.008 467.467 411.145 468.869 411.086 470.8C411.06 471.64 411.206 472.338 411.525 472.894C411.8 473.491 412.206 473.966 412.741 474.318C413.277 474.671 413.877 474.942 414.544 475.131C415.209 475.361 415.918 475.551 416.669 475.701L421.746 476.615C422.875 476.818 424.106 477.087 425.44 477.423C426.732 477.757 427.914 478.256 428.986 478.919C430.057 479.625 430.953 480.535 431.675 481.65C432.355 482.764 432.667 484.202 432.613 485.965C432.562 487.602 432.203 488.999 431.537 490.155C430.828 491.351 429.873 492.33 428.673 493.091C427.471 493.894 426.067 494.46 424.46 494.789C422.852 495.159 421.103 495.315 419.214 495.256C416.276 495.165 413.75 494.624 411.638 493.634C409.483 492.643 407.655 491.305 406.153 489.619L409.523 486.635C409.886 487.109 410.355 487.586 410.928 488.066C411.458 488.586 412.137 489.049 412.965 489.453C413.75 489.897 414.684 490.262 415.767 490.548C416.851 490.834 418.107 490.999 419.534 491.043C422.095 491.122 424.081 490.743 425.494 489.904C426.865 489.064 427.576 487.805 427.628 486.126C427.654 485.286 427.53 484.568 427.254 483.971C426.935 483.415 426.508 482.96 425.973 482.608C425.437 482.255 424.837 481.963 424.172 481.732C423.463 481.542 422.754 481.373 422.045 481.225L416.967 480.311C415.797 480.107 414.566 479.838 413.274 479.503C411.982 479.169 410.8 478.649 409.729 477.944C408.657 477.28 407.782 476.392 407.102 475.278C406.38 474.163 406.046 472.724 406.101 470.961C406.201 467.728 407.538 465.27 410.112 463.585C412.643 461.898 415.987 461.12 420.143 461.249ZM377.458 499.222C378.923 499.346 379.923 499.725 380.46 500.361C380.993 501.038 381.221 501.837 381.143 502.758L381.058 503.762C380.98 504.683 380.624 505.411 379.989 505.948C379.35 506.526 378.298 506.754 376.833 506.63C375.368 506.507 374.369 506.106 373.837 505.429C373.3 504.794 373.071 504.016 373.148 503.095L373.233 502.09C373.311 501.17 373.669 500.42 374.308 499.842C374.943 499.305 375.993 499.099 377.458 499.222ZM394.621 465.138L382.945 464.153L380.933 488.009L392.609 488.994L392.249 493.262L375.551 491.854L377.923 463.73L366.999 462.809L367.36 458.54L394.981 460.869L394.621 465.138ZM345.014 454.824C348.383 455.298 351.215 456.268 353.511 457.736C355.76 459.24 357.602 461.068 359.039 463.221L355.258 465.68C353.947 463.841 352.438 462.357 350.731 461.226C349.023 460.096 346.88 459.349 344.302 458.987C341.806 458.636 339.707 458.786 338.004 459.437C336.253 460.124 335.243 461.424 334.974 463.338C334.857 464.169 334.927 464.879 335.184 465.466C335.393 466.09 335.745 466.606 336.239 467.014C336.733 467.423 337.301 467.757 337.943 468.017C338.579 468.319 339.263 468.585 339.994 468.815L344.942 470.274C346.041 470.598 347.236 470.999 348.526 471.477C349.775 471.95 350.896 472.574 351.889 473.35C352.877 474.167 353.669 475.169 354.266 476.356C354.821 477.536 354.976 479 354.73 480.747C354.502 482.369 353.994 483.719 353.207 484.795C352.372 485.908 351.317 486.778 350.041 487.404C348.76 488.072 347.302 488.482 345.669 488.635C344.03 488.828 342.275 488.794 340.403 488.531C337.492 488.121 335.04 487.31 333.048 486.097C331.013 484.878 329.341 483.349 328.03 481.511L331.704 478.91C332.014 479.42 332.428 479.945 332.946 480.484C333.416 481.059 334.041 481.592 334.82 482.084C335.552 482.611 336.441 483.075 337.487 483.476C338.534 483.878 339.764 484.178 341.178 484.377C343.715 484.734 345.731 484.572 347.227 483.891C348.68 483.205 349.524 482.03 349.758 480.366C349.875 479.534 349.829 478.807 349.619 478.184C349.363 477.596 348.987 477.098 348.493 476.689C347.999 476.281 347.434 475.926 346.798 475.624C346.114 475.358 345.428 475.113 344.738 474.889L339.79 473.43C338.649 473.1 337.454 472.699 336.206 472.227C334.958 471.754 333.839 471.109 332.852 470.292C331.858 469.516 331.084 468.538 330.529 467.357C329.932 466.17 329.756 464.704 330.002 462.957C330.452 459.754 332.048 457.455 334.789 456.059C337.488 454.657 340.896 454.245 345.014 454.824ZM306.524 448.962C308.953 449.451 310.608 450.49 311.487 452.081C312.326 453.663 312.53 455.525 312.099 457.666L308 478.048L318.624 480.184L317.779 484.384L309.873 482.794C308.803 482.579 308.02 482.636 307.525 482.965C306.981 483.327 306.602 484.043 306.387 485.113L304.71 493.452L299.954 492.495L302.215 481.254L287.7 478.335L288.545 474.135L303.059 477.054L307.779 453.584L293.265 450.665L294.11 446.465L306.524 448.962ZM247.109 438.208L238.121 435.09L230.276 457.708L239.264 460.826L237.86 464.873L224.111 460.104L226.794 452.367L226.497 452.263C225.022 454.464 223.178 455.936 220.964 456.679C218.697 457.449 216.194 457.359 213.456 456.409L209.171 454.923L210.822 450.161L216.596 452.163C219.334 453.113 221.831 453.09 224.088 452.095C226.305 451.086 227.861 449.291 228.756 446.712L233.359 433.439L221.455 429.31L222.859 425.262L248.513 434.16L247.109 438.208ZM199.916 414.812C202.067 415.763 203.846 416.985 205.252 418.479C206.619 419.956 207.62 421.639 208.255 423.527C208.835 425.436 209.035 427.476 208.856 429.647C208.66 431.856 208.044 434.133 207.008 436.476C205.955 438.858 204.677 440.864 203.175 442.496C201.635 444.111 199.972 445.328 198.187 446.146C196.384 447.002 194.496 447.43 192.522 447.43C190.509 447.413 188.484 446.954 186.449 446.054C184.451 445.171 182.807 444.008 181.516 442.565C180.187 441.105 179.235 439.467 178.66 437.651C178.068 435.874 177.855 433.966 178.022 431.928C178.188 429.889 178.739 427.813 179.673 425.7L180.641 423.511L202.652 433.241L203.263 431.859C203.84 430.552 204.164 429.249 204.234 427.948C204.304 426.647 204.133 425.424 203.721 424.278C203.271 423.114 202.591 422.056 201.681 421.102C200.715 420.17 199.541 419.399 198.158 418.787C196.161 417.904 194.228 417.601 192.361 417.878C190.494 418.154 188.819 418.929 187.338 420.203L184.957 416.395C186.724 414.789 188.933 413.791 191.585 413.402C194.181 413.034 196.958 413.504 199.916 414.812ZM188.13 442.251C189.397 442.811 190.671 443.099 191.95 443.113C193.23 443.128 194.451 442.91 195.614 442.46C196.739 441.993 197.778 441.304 198.732 440.394C199.63 439.505 200.368 438.408 200.945 437.102L201.123 436.699L184.068 429.159L183.787 429.792C183.21 431.098 182.895 432.383 182.842 433.645C182.751 434.891 182.9 436.059 183.29 437.15C183.625 438.262 184.218 439.259 185.068 440.14C185.88 441.004 186.901 441.708 188.13 442.251ZM166.469 397.956C169.43 399.631 171.71 401.572 173.309 403.779C174.85 406.002 175.895 408.378 176.442 410.908L172.023 411.81C171.477 409.619 170.617 407.685 169.443 406.007C168.268 404.33 166.548 402.85 164.281 401.568C162.088 400.327 160.08 399.698 158.256 399.68C156.376 399.678 154.96 400.518 154.008 402.199C153.595 402.93 153.4 403.616 153.424 404.257C153.39 404.913 153.528 405.522 153.838 406.084C154.148 406.645 154.554 407.164 155.056 407.641C155.537 408.155 156.076 408.653 156.672 409.134L160.742 412.305C161.646 413.009 162.611 413.82 163.636 414.738C164.624 415.635 165.439 416.626 166.079 417.712C166.699 418.835 167.069 420.057 167.189 421.38C167.273 422.682 166.881 424.101 166.012 425.636C165.206 427.062 164.239 428.132 163.112 428.845C161.927 429.574 160.626 429.997 159.21 430.112C157.773 430.265 156.267 430.112 154.691 429.656C153.095 429.235 151.475 428.56 149.83 427.629C147.271 426.182 145.287 424.529 143.877 422.67C142.431 420.79 141.435 418.755 140.889 416.565L145.26 415.49C145.362 416.079 145.554 416.719 145.839 417.41C146.066 418.118 146.452 418.843 146.997 419.585C147.485 420.344 148.142 421.102 148.968 421.858C149.795 422.615 150.829 423.345 152.072 424.049C154.302 425.31 156.238 425.898 157.878 425.813C159.482 425.707 160.698 424.922 161.525 423.46C161.939 422.729 162.162 422.035 162.196 421.379C162.172 420.738 162.005 420.137 161.696 419.576C161.386 419.014 160.99 418.477 160.509 417.963C159.97 417.466 159.421 416.986 158.861 416.525L154.792 413.355C153.851 412.629 152.886 411.818 151.898 410.921C150.909 410.024 150.105 409.015 149.485 407.892C148.845 406.806 148.483 405.612 148.399 404.31C148.279 402.987 148.653 401.558 149.521 400.023C151.114 397.208 153.441 395.653 156.503 395.359C159.528 395.043 162.85 395.909 166.469 397.956ZM109.57 408.936C110.751 409.812 111.402 410.661 111.524 411.483C111.621 412.34 111.394 413.139 110.844 413.881L110.243 414.691C109.693 415.433 109.006 415.865 108.184 415.987C107.336 416.143 106.322 415.783 105.142 414.907C103.961 414.031 103.322 413.165 103.225 412.309C103.103 411.486 103.317 410.704 103.868 409.962L104.468 409.152C105.019 408.41 105.718 407.961 106.565 407.805C107.388 407.683 108.389 408.06 109.57 408.936ZM142.098 388.979L132.686 381.999L118.424 401.228L127.836 408.208L125.284 411.649L111.824 401.666L128.638 378.997L119.833 372.466L122.385 369.026L144.65 385.539L142.098 388.979ZM106.84 352.648C109.205 355.093 110.841 357.601 111.748 360.171C112.596 362.74 112.924 365.314 112.732 367.895L108.239 367.508C108.336 365.252 108.06 363.153 107.409 361.212C106.759 359.27 105.528 357.363 103.718 355.491C101.967 353.68 100.219 352.507 98.4755 351.972C96.6726 351.437 95.0767 351.841 93.6878 353.184C93.0839 353.768 92.7025 354.37 92.5436 354.992C92.3252 355.612 92.285 356.235 92.423 356.861C92.561 357.487 92.8032 358.1 93.1495 358.7C93.4657 359.329 93.8412 359.959 94.2761 360.59L97.2798 364.784C97.9473 365.716 98.6425 366.767 99.3654 367.938C100.059 369.078 100.559 370.26 100.865 371.483C101.141 372.735 101.149 374.012 100.89 375.315C100.601 376.587 99.8227 377.836 98.5546 379.063C97.377 380.201 96.1466 380.953 94.8632 381.317C93.5205 381.681 92.1536 381.717 90.7624 381.427C89.3411 381.165 87.9398 380.592 86.5587 379.707C85.1473 378.852 83.7848 377.745 82.471 376.386C80.4274 374.273 78.9932 372.125 78.1685 369.943C77.3146 367.73 76.9364 365.496 77.0337 363.241L81.5301 363.45C81.4608 364.043 81.4644 364.711 81.541 365.455C81.5582 366.198 81.7229 367.002 82.035 367.869C82.2878 368.735 82.7031 369.648 83.281 370.608C83.859 371.568 84.6442 372.561 85.6368 373.588C87.4177 375.43 89.1069 376.542 90.7044 376.926C92.2727 377.279 93.6608 376.871 94.8685 375.704C95.4724 375.12 95.8835 374.518 96.1018 373.898C96.2608 373.277 96.2713 372.653 96.1333 372.027C95.9953 371.401 95.7682 370.773 95.4521 370.144C95.0766 369.514 94.6859 368.899 94.2802 368.298L91.2765 364.104C90.5798 363.142 89.8846 362.09 89.1909 360.95C88.4972 359.81 88.0124 358.613 87.7364 357.361C87.4303 356.138 87.4215 354.891 87.7103 353.618C87.9698 352.316 88.7336 351.051 90.0018 349.825C92.3267 347.577 94.999 346.746 98.0189 347.331C101.009 347.886 103.95 349.659 106.84 352.648ZM82.8761 322.401C84.1593 324.521 84.5126 326.443 83.9359 328.167C83.3374 329.855 82.104 331.264 80.2357 332.395L62.4504 343.161L68.0618 352.431L64.3969 354.649L60.221 347.751C59.6555 346.817 59.0844 346.279 58.5076 346.137C57.8731 345.981 57.0888 346.186 56.1546 346.751L48.8788 351.155L46.3667 347.006L56.1756 341.068L48.5088 328.403L52.1737 326.184L59.8404 338.849L80.3204 326.452L72.6537 313.787L76.3186 311.568L82.8761 322.401Z" fill="#0039FF"/>
<path d="M375.664 264.877L383.314 279.817C386.104 285.307 387.544 287.467 394.114 287.467V289.627H389.704C377.734 289.627 376.204 288.457 371.974 279.367L360.184 255.517H358.834C357.124 255.517 355.504 255.427 353.974 255.337V280.357C353.974 285.847 355.234 287.467 363.604 287.467V289.627H334.354V287.467C342.724 287.467 343.894 285.847 343.894 280.357V226.897C343.894 221.407 342.724 219.787 334.354 219.787V217.627H362.074C378.184 217.627 385.384 224.557 385.384 235.987C385.384 248.047 377.014 253.357 366.484 254.977C370.084 256.057 372.514 258.037 375.664 264.877ZM353.974 224.647V251.827C355.594 252.007 357.304 252.097 359.104 252.097C368.284 252.097 375.034 247.597 375.034 236.257C375.034 226.447 369.994 221.317 361.264 221.317C359.374 221.317 357.484 221.587 355.594 222.217C354.424 222.667 353.974 223.567 353.974 224.647ZM424.05 270.367H426.21C424.32 284.857 418.2 291.067 409.74 291.067C399.57 291.067 393.18 281.437 393.18 266.587C393.18 252.367 399.48 240.307 410.19 240.307C420.72 240.307 425.67 250.207 425.67 263.347H401.91V263.527C401.91 275.767 405.69 284.407 413.16 284.407C417.21 284.407 421.89 281.257 424.05 270.367ZM410.19 244.087C404.79 244.087 402.54 250.657 402 259.657H417.03C417.03 251.017 415.5 244.087 410.19 244.087ZM447.507 291.067C442.917 291.067 439.587 289.177 437.697 287.827C436.527 286.927 435.807 287.197 435.267 288.277L434.547 290.077H432.567L431.937 270.637H433.917C435.267 281.347 440.397 287.287 446.607 287.287C450.837 287.287 453.087 284.407 453.087 279.817C453.087 275.767 451.197 274.057 442.827 267.307C435.177 261.277 432.567 257.767 432.567 252.637C432.567 245.167 437.967 240.307 445.077 240.307C449.127 240.307 451.917 242.017 453.537 243.367C454.707 244.447 455.607 243.997 455.877 242.917L456.417 240.937H458.487L458.847 256.687H456.867C455.787 249.667 451.827 244.087 445.797 244.087C442.197 244.087 439.857 246.517 439.857 250.117C439.857 253.897 442.197 255.877 448.497 260.827C456.597 267.217 460.467 271.087 460.467 277.927C460.467 286.837 454.437 291.067 447.507 291.067ZM474.878 231.487C471.458 231.487 469.028 229.147 469.028 225.997C469.028 222.757 471.458 220.417 474.878 220.417C478.208 220.417 480.638 222.757 480.638 225.997C480.638 229.147 478.208 231.487 474.878 231.487ZM479.918 241.477V280.357C479.918 286.117 480.818 287.467 486.308 287.467V289.627H464.888V287.467C470.378 287.467 471.278 286.117 471.278 280.357V252.637C471.278 246.607 471.188 245.347 465.968 247.507L465.158 245.437L478.388 240.127L479.918 241.477ZM506.043 291.067C501.453 291.067 498.123 289.177 496.233 287.827C495.063 286.927 494.343 287.197 493.803 288.277L493.083 290.077H491.103L490.473 270.637H492.453C493.803 281.347 498.933 287.287 505.143 287.287C509.373 287.287 511.623 284.407 511.623 279.817C511.623 275.767 509.733 274.057 501.363 267.307C493.713 261.277 491.103 257.767 491.103 252.637C491.103 245.167 496.503 240.307 503.613 240.307C507.663 240.307 510.453 242.017 512.073 243.367C513.243 244.447 514.143 243.997 514.413 242.917L514.953 240.937H517.023L517.383 256.687H515.403C514.323 249.667 510.363 244.087 504.333 244.087C500.733 244.087 498.393 246.517 498.393 250.117C498.393 253.897 500.733 255.877 507.033 260.827C515.133 267.217 519.003 271.087 519.003 277.927C519.003 286.837 512.973 291.067 506.043 291.067ZM548.435 269.467H550.955C550.955 283.507 548.165 291.067 539.345 291.067C532.325 291.067 528.635 286.837 528.635 274.237V245.617H522.335V242.287C528.905 242.107 533.045 237.247 533.945 228.787H537.185V241.927H547.985V245.617H537.365V271.897C537.365 279.907 538.175 285.217 542.405 285.217C546.455 285.217 548.435 280.177 548.435 269.467Z" fill="#0039FF"/>
</svg>
